<svg width="44" height="44" viewBox="0 0 44 44" fill="none" xmlns="http://www.w3.org/2000/svg">
<g opacity="0.7">
<path d="M22 42.0681C33.0833 42.0681 42.0681 33.0833 42.0681 22C42.0681 10.9167 33.0833 1.93195 22 1.93195C10.9167 1.93195 1.93195 10.9167 1.93195 22C1.93195 33.0833 10.9167 42.0681 22 42.0681Z" fill="url(#paint0_linear_1403_4239)"/>
<path d="M22 1.93194C33.0845 1.93194 42.0681 10.9155 42.0681 22C42.0681 33.0845 33.0845 42.0681 22 42.0681C10.9155 42.0681 1.93194 33.0845 1.93194 22C1.93194 10.9155 10.9155 1.93194 22 1.93194ZM22 0C9.87706 0 0 9.87706 0 22C0 34.1229 9.87706 44 22 44C34.1229 44 44 34.1229 44 22C44 9.87706 34.1471 0 22 0Z" fill="white"/>
<path opacity="0.1" d="M29.9693 29.2931C17.4841 29.2931 6.9067 23.2075 3.28431 14.7794C2.41493 17.0252 1.93195 19.4643 1.93195 22C1.93195 33.0845 10.9155 42.0681 22 42.0681C31.1767 42.0681 38.8804 35.91 41.2953 27.506C37.8178 28.6652 34.0022 29.2931 29.9693 29.2931Z" fill="black"/>
<g clip-path="url(#clip0_1403_4239)">
<path d="M7.85686 24.2919L20.1283 32.7171C21.2912 33.503 22.7601 32.5284 22.7601 30.9251L22.7601 28.2216L33.1955 28.2216C35.8578 28.2216 38 25.6437 38 22.5C38 19.3563 35.8578 16.7784 33.1955 16.7784L22.7601 16.7784L22.7601 14.0748C22.7601 12.4716 21.2912 11.4656 20.1283 12.2829L7.85686 20.7081C6.69398 21.494 6.69398 23.506 7.85686 24.2919Z" fill="#F2F2F2"/>
</g>
</g>
<defs>
<linearGradient id="paint0_linear_1403_4239" x1="22.003" y1="42.0741" x2="22.003" y2="1.93195" gradientUnits="userSpaceOnUse">
<stop stop-color="#2597BF"/>
<stop offset="1" stop-color="#38B2D8"/>
</linearGradient>
<clipPath id="clip0_1403_4239">
<rect width="31" height="21" fill="white" transform="translate(38 33) rotate(-180)"/>
</clipPath>
</defs>
</svg>
