<svg width="370" height="60" viewBox="0 0 370 60" fill="none" xmlns="http://www.w3.org/2000/svg">
<path d="M25.6394 51.324C24.6314 51.324 23.6774 51.126 22.7774 50.73C21.8774 50.334 21.3014 49.74 21.0494 48.948L10.3574 14.982C10.2854 14.766 10.2494 14.55 10.2494 14.334C10.2494 13.794 10.4834 13.326 10.9514 12.93C11.4194 12.498 11.9954 12.156 12.6794 11.904C13.3994 11.652 14.0834 11.526 14.7314 11.526C15.2714 11.526 15.7574 11.634 16.1894 11.85C16.6574 12.066 16.9454 12.426 17.0534 12.93L25.5854 42.198L30.1754 23.406C30.3554 22.758 30.7694 22.272 31.4174 21.948C32.1014 21.624 32.8394 21.462 33.6314 21.462C34.4234 21.462 35.1434 21.624 35.7914 21.948C36.4754 22.272 36.8894 22.758 37.0334 23.406L41.6234 42.198L50.1554 12.93C50.2994 12.426 50.5874 12.066 51.0194 11.85C51.4514 11.634 51.9374 11.526 52.4774 11.526C53.1614 11.526 53.8454 11.652 54.5294 11.904C55.2134 12.156 55.7894 12.498 56.2574 12.93C56.7254 13.326 56.9594 13.794 56.9594 14.334C56.9594 14.55 56.9234 14.766 56.8514 14.982L46.1594 48.948C45.8714 49.74 45.2954 50.334 44.4314 50.73C43.5674 51.126 42.6134 51.324 41.5694 51.324C40.5614 51.324 39.6074 51.126 38.7074 50.73C37.8074 50.334 37.2674 49.74 37.0874 48.948L33.6314 34.368L30.1214 48.948C29.9414 49.74 29.4014 50.334 28.5014 50.73C27.6014 51.126 26.6474 51.324 25.6394 51.324ZM68.1391 51.486C66.0511 51.486 64.1251 50.982 62.3611 49.974C60.5971 48.93 59.1751 47.562 58.0951 45.87C57.0151 44.178 56.4751 42.36 56.4751 40.416V35.988C56.4751 34.044 56.9971 32.244 58.0411 30.588C59.0851 28.896 60.4891 27.546 62.2531 26.538C64.0531 25.53 66.0151 25.026 68.1391 25.026C70.2631 25.026 72.2071 25.53 73.9711 26.538C75.7711 27.51 77.1931 28.824 78.2371 30.48C79.3171 32.136 79.8571 33.972 79.8571 35.988V40.416C79.8571 42.324 79.3171 44.124 78.2371 45.816C77.1571 47.508 75.7171 48.876 73.9171 49.92C72.1531 50.964 70.2271 51.486 68.1391 51.486ZM68.1391 45.384C69.0031 45.384 69.7951 45.15 70.5151 44.682C71.2351 44.214 71.8111 43.602 72.2431 42.846C72.6751 42.054 72.8911 41.244 72.8911 40.416V35.988C72.8911 35.16 72.6751 34.386 72.2431 33.666C71.8111 32.946 71.2351 32.352 70.5151 31.884C69.8311 31.38 69.0391 31.128 68.1391 31.128C67.2751 31.128 66.4831 31.362 65.7631 31.83C65.0431 32.298 64.4671 32.91 64.0351 33.666C63.6391 34.386 63.4411 35.16 63.4411 35.988V40.416C63.4411 41.244 63.6391 42.054 64.0351 42.846C64.4671 43.602 65.0431 44.214 65.7631 44.682C66.4831 45.15 67.2751 45.384 68.1391 45.384ZM87.6909 51C86.7189 51 85.9089 50.766 85.2609 50.298C84.6129 49.83 84.2889 49.308 84.2889 48.732V27.51C84.2889 26.862 84.6129 26.34 85.2609 25.944C85.9089 25.548 86.7189 25.35 87.6909 25.35C88.5909 25.35 89.3289 25.548 89.9049 25.944C90.5169 26.34 90.8229 26.862 90.8229 27.51V29.724C91.2189 28.932 91.7409 28.194 92.3889 27.51C93.0729 26.79 93.8469 26.196 94.7109 25.728C95.5749 25.26 96.4929 25.026 97.4649 25.026H99.1389C99.8229 25.026 100.417 25.332 100.921 25.944C101.425 26.52 101.677 27.222 101.677 28.05C101.677 28.914 101.425 29.652 100.921 30.264C100.417 30.84 99.8229 31.128 99.1389 31.128H97.4649C96.4569 31.128 95.4669 31.47 94.4949 32.154C93.5589 32.802 92.7849 33.72 92.1729 34.908C91.5609 36.06 91.2549 37.464 91.2549 39.12V48.732C91.2549 49.308 90.9129 49.83 90.2289 50.298C89.5449 50.766 88.6989 51 87.6909 51ZM108.481 51C107.473 51 106.645 50.766 105.997 50.298C105.349 49.83 105.025 49.308 105.025 48.732V12.552C105.025 11.904 105.349 11.382 105.997 10.986C106.645 10.59 107.473 10.392 108.481 10.392C109.453 10.392 110.281 10.59 110.965 10.986C111.649 11.382 111.991 11.904 111.991 12.552V48.732C111.991 49.308 111.649 49.83 110.965 50.298C110.281 50.766 109.453 51 108.481 51ZM126.413 51.486C124.721 51.486 123.155 50.964 121.715 49.92C120.275 48.876 119.123 47.508 118.259 45.816C117.395 44.124 116.963 42.324 116.963 40.416V35.988C116.963 33.972 117.395 32.136 118.259 30.48C119.123 28.824 120.275 27.51 121.715 26.538C123.155 25.53 124.757 25.026 126.521 25.026C128.213 25.026 129.653 25.458 130.841 26.322C132.029 27.15 132.911 28.086 133.487 29.13V12.552C133.487 11.904 133.829 11.382 134.513 10.986C135.197 10.59 136.043 10.392 137.051 10.392C138.023 10.392 138.833 10.59 139.481 10.986C140.129 11.382 140.453 11.904 140.453 12.552V48.732C140.453 49.308 140.129 49.83 139.481 50.298C138.833 50.766 138.023 51 137.051 51C136.187 51 135.449 50.766 134.837 50.298C134.225 49.83 133.919 49.308 133.919 48.732V47.22C133.379 48.336 132.407 49.326 131.003 50.19C129.635 51.054 128.105 51.486 126.413 51.486ZM128.627 45.384C129.563 45.384 130.391 45.132 131.111 44.628C131.831 44.088 132.407 43.512 132.839 42.9C133.271 42.252 133.487 41.748 133.487 41.388V35.988C133.487 34.98 133.235 34.116 132.731 33.396C132.263 32.676 131.651 32.118 130.895 31.722C130.175 31.326 129.437 31.128 128.681 31.128C127.817 31.128 127.007 31.38 126.251 31.884C125.531 32.352 124.955 32.946 124.523 33.666C124.127 34.386 123.929 35.16 123.929 35.988V40.416C123.929 41.244 124.127 42.036 124.523 42.792C124.955 43.548 125.531 44.178 126.251 44.682C126.971 45.15 127.763 45.384 128.627 45.384Z" fill="white"/>
<path d="M161.39 51.5273C159.456 51.5273 157.681 51.3164 156.063 50.8945C154.464 50.4727 153.11 49.8926 152.003 49.1543V41.9297C153.603 42.8262 155.167 43.5293 156.696 44.0391C158.243 44.5312 159.825 44.7773 161.442 44.7773C162.339 44.7773 163.165 44.6982 163.921 44.54C164.694 44.3643 165.362 44.1006 165.925 43.749C166.487 43.3975 166.927 42.958 167.243 42.4307C167.56 41.9033 167.718 41.2881 167.718 40.585C167.718 39.583 167.516 38.748 167.111 38.0801C166.725 37.3945 166.18 36.7617 165.477 36.1816C164.791 35.6016 163.991 34.9775 163.077 34.3096C162.005 33.5361 160.959 32.6572 159.939 31.6729C158.938 30.6885 158.111 29.5459 157.461 28.2451C156.811 26.9268 156.485 25.3887 156.485 23.6309C156.485 21.9082 156.793 20.335 157.408 18.9111C158.041 17.4873 158.938 16.248 160.098 15.1934C161.258 14.1387 162.646 13.3301 164.264 12.7676C165.898 12.1875 167.718 11.8975 169.722 11.8975C171.708 11.8975 173.545 12.1172 175.232 12.5566C176.938 12.9785 178.59 13.6289 180.189 14.5078L177.315 20.6514C175.944 20.001 174.635 19.5176 173.387 19.2012C172.156 18.8672 170.935 18.7002 169.722 18.7002C169.001 18.7002 168.333 18.8057 167.718 19.0166C167.12 19.21 166.593 19.5 166.136 19.8867C165.696 20.2559 165.354 20.7041 165.107 21.2314C164.861 21.7588 164.738 22.3564 164.738 23.0244C164.738 23.9385 164.923 24.7207 165.292 25.3711C165.679 26.0215 166.224 26.6279 166.927 27.1904C167.647 27.7354 168.509 28.3418 169.511 29.0098C170.935 29.9414 172.112 30.9434 173.044 32.0156C173.993 33.0703 174.696 34.2217 175.153 35.4697C175.628 36.7178 175.865 38.0977 175.865 39.6094C175.865 41.6309 175.487 43.3887 174.731 44.8828C173.976 46.377 172.93 47.6162 171.594 48.6006C170.275 49.585 168.737 50.3232 166.979 50.8154C165.239 51.29 163.376 51.5273 161.39 51.5273ZM186.57 51L193.268 19.2539H183.986L185.437 12.4512H212.067L210.617 19.2539H201.31L194.612 51H186.57ZM209.642 51L217.789 12.4512H227.255C231.122 12.4512 234.172 13.2861 236.404 14.9561C238.654 16.6084 239.779 19.2979 239.779 23.0244C239.779 25.0635 239.41 26.8477 238.672 28.377C237.934 29.9062 236.923 31.1895 235.64 32.2266C234.374 33.2637 232.924 34.0635 231.289 34.626L238.171 51H229.417L223.959 36.208H220.821L217.684 51H209.642ZM222.219 29.5635H224.275C225.418 29.5635 226.438 29.4404 227.334 29.1943C228.248 28.9307 229.021 28.5527 229.654 28.0605C230.287 27.5508 230.762 26.918 231.078 26.1621C231.412 25.3887 231.579 24.4922 231.579 23.4727C231.579 22.0312 231.157 20.9502 230.313 20.2295C229.47 19.5088 228.16 19.1484 226.385 19.1484H224.434L222.219 29.5635ZM242.548 51L250.695 12.4512H272.264L270.84 19.1484H257.34L255.573 27.6123H268.15L266.7 34.3096H254.123L252.014 44.25H265.514L264.09 51H242.548ZM267.175 51L287.372 12.4512H297.207L301.083 51H293.252L292.619 41.8242H280.147L275.612 51H267.175ZM283.443 34.9688H292.224L291.538 25.0283C291.468 23.9736 291.397 22.9102 291.327 21.8379C291.257 20.7656 291.239 19.667 291.274 18.542H291.143C290.809 19.5088 290.422 20.4756 289.982 21.4424C289.543 22.4092 289.051 23.4375 288.506 24.5273L283.443 34.9688ZM305.724 51L313.871 12.4512H321.939L317.879 31.0664L321.992 25.5557L332.882 12.4512H342.4L326.738 30.9082L334.411 51H325.499L319.936 35.3906L316.64 37.2363L313.766 51H305.724ZM347.911 51.5273C345.978 51.5273 344.202 51.3164 342.585 50.8945C340.985 50.4727 339.632 49.8926 338.524 49.1543V41.9297C340.124 42.8262 341.688 43.5293 343.218 44.0391C344.765 44.5312 346.347 44.7773 347.964 44.7773C348.86 44.7773 349.687 44.6982 350.442 44.54C351.216 44.3643 351.884 44.1006 352.446 43.749C353.009 43.3975 353.448 42.958 353.765 42.4307C354.081 41.9033 354.239 41.2881 354.239 40.585C354.239 39.583 354.037 38.748 353.633 38.0801C353.246 37.3945 352.701 36.7617 351.998 36.1816C351.312 35.6016 350.513 34.9775 349.599 34.3096C348.526 33.5361 347.48 32.6572 346.461 31.6729C345.459 30.6885 344.633 29.5459 343.982 28.2451C343.332 26.9268 343.007 25.3887 343.007 23.6309C343.007 21.9082 343.314 20.335 343.93 18.9111C344.562 17.4873 345.459 16.248 346.619 15.1934C347.779 14.1387 349.168 13.3301 350.785 12.7676C352.42 12.1875 354.239 11.8975 356.243 11.8975C358.229 11.8975 360.066 12.1172 361.754 12.5566C363.459 12.9785 365.111 13.6289 366.711 14.5078L363.837 20.6514C362.466 20.001 361.156 19.5176 359.908 19.2012C358.678 18.8672 357.456 18.7002 356.243 18.7002C355.522 18.7002 354.854 18.8057 354.239 19.0166C353.642 19.21 353.114 19.5 352.657 19.8867C352.218 20.2559 351.875 20.7041 351.629 21.2314C351.383 21.7588 351.26 22.3564 351.26 23.0244C351.26 23.9385 351.444 24.7207 351.813 25.3711C352.2 26.0215 352.745 26.6279 353.448 27.1904C354.169 27.7354 355.03 28.3418 356.032 29.0098C357.456 29.9414 358.634 30.9434 359.565 32.0156C360.515 33.0703 361.218 34.2217 361.675 35.4697C362.149 36.7178 362.387 38.0977 362.387 39.6094C362.387 41.6309 362.009 43.3887 361.253 44.8828C360.497 46.377 359.451 47.6162 358.115 48.6006C356.797 49.585 355.259 50.3232 353.501 50.8154C351.761 51.29 349.897 51.5273 347.911 51.5273Z" fill="#FFC608"/>
</svg>
