<svg width="812" height="314" viewBox="0 0 812 314" fill="none" xmlns="http://www.w3.org/2000/svg">
<path opacity="0.44" d="M277.457 259.33C267.449 259.33 258.148 262.353 250.207 267.528C242.32 213.397 198.534 172 145.719 172C104.925 172 69.5703 196.711 51.8928 232.875C40.1441 225.956 26.6549 222.061 12.2953 222.061C-33.1221 222.061 -70 261.481 -70 310.088C-70 311.891 -69.9456 313.693 -69.8368 315.437H94.5363H224.969H330C330 284.448 306.448 259.33 277.457 259.33Z" fill="url(#paint0_linear_1414_370)"/>
<path opacity="0.44" d="M777.457 257.33C767.449 257.33 758.148 260.353 750.207 265.528C742.32 211.397 698.534 170 645.719 170C604.925 170 569.57 194.711 551.893 230.875C540.144 223.956 526.655 220.061 512.295 220.061C466.878 220.061 430 259.481 430 308.088C430 309.891 430.054 311.693 430.163 313.437H594.536H724.969H830C830 282.448 806.448 257.33 777.457 257.33Z" fill="url(#paint1_linear_1414_370)"/>
<path opacity="0.44" d="M799.457 156.33C789.449 156.33 780.148 159.353 772.207 164.528C764.32 110.397 720.534 69 667.719 69C626.925 69 591.57 93.7106 573.893 129.875C562.144 122.956 548.655 119.061 534.295 119.061C488.878 119.061 452 158.481 452 207.088C452 208.891 452.054 210.693 452.163 212.437H616.536H746.969H852C852 181.448 828.448 156.33 799.457 156.33Z" fill="url(#paint2_linear_1414_370)"/>
<path opacity="0.44" d="M58.5429 171.33C68.551 171.33 77.8521 174.353 85.7933 179.528C93.6802 125.397 137.466 84 190.281 84C231.075 84 266.43 108.711 284.107 144.875C295.856 137.956 309.345 134.061 323.705 134.061C369.122 134.061 406 173.481 406 222.088C406 223.891 405.946 225.693 405.837 227.437H241.464H111.031H6.00001C6.00001 196.448 29.5518 171.33 58.5429 171.33Z" fill="url(#paint3_linear_1414_370)"/>
<path d="M609.75 606.75C721.45 495.05 721.45 313.95 609.75 202.25C498.05 90.5504 316.95 90.5504 205.25 202.25C93.5504 313.95 93.5504 495.05 205.25 606.75C316.95 718.45 498.05 718.45 609.75 606.75Z" fill="#3FC3EE"/>
<path d="M314.885 669.018C307.091 656.158 301.181 638.038 301.181 615.501C301.181 544.709 308.39 501.649 276.566 479.047C244.742 456.446 259.095 445.469 255.003 410.918C250.912 376.431 153.101 389.81 164.337 255.434C164.337 255.434 236.688 106.575 436.271 119.564C436.271 119.564 378.403 120.344 410.942 198.995C439.908 268.878 386.132 329.279 285.918 302.456C218.503 284.4 169.013 377.145 317.548 379.613C419.125 381.302 483.812 437.091 424.321 508.858C364.764 580.625 339.11 638.038 349.372 678.045" fill="#83E377"/>
<path d="M688.786 352.14C688.786 352.14 637.607 362.857 595.781 323.174C564.672 293.688 514.857 301.741 493.944 337.138C473.031 372.534 497.711 416.958 542.72 425.531C587.728 434.104 601.432 483.723 586.689 532.174C574.868 571.142 604.744 612.708 604.744 612.708C604.744 612.708 717.752 511.326 688.786 352.14Z" fill="#83E377"/>
<path d="M635.918 232.702C635.918 232.702 620.266 228.676 615.395 243.159C610.524 257.577 622.994 257.512 595.261 273.489C576.232 284.465 601.042 311.483 616.369 293.623C631.697 275.762 655.597 290.895 650.856 312.717C648.453 323.694 665.989 336.423 683.849 332.007C683.784 332.072 669.171 274.139 635.918 232.702Z" fill="#83E377"/>
<path d="M625.657 224.844C625.657 225.299 625.657 225.688 625.657 226.143C625.657 227.637 627.995 227.637 627.995 226.143C627.995 225.688 627.995 225.299 627.995 224.844C627.995 223.35 625.657 223.35 625.657 224.844Z" fill="#03C4A1"/>
<path d="M620.397 229.13C620.332 229.195 620.267 229.195 620.202 229.13C620.786 229.39 621.501 229.26 621.825 228.741C622.15 228.221 621.955 227.442 621.436 227.117C620.916 226.857 620.397 226.792 619.812 226.922C619.163 227.052 618.838 227.766 618.968 228.351C619.098 229 619.747 229.26 620.397 229.13Z" fill="#03C4A1"/>
<path d="M620.461 220.557C620.266 221.856 620.136 223.155 620.136 224.519C620.136 226.013 622.475 226.013 622.475 224.519C622.475 223.415 622.539 222.311 622.669 221.207C622.734 220.557 622.54 219.973 621.825 219.778C621.37 219.583 620.526 219.908 620.461 220.557Z" fill="#03C4A1"/>
<path d="M610.784 214.842C610.784 216.466 610.784 218.025 610.784 219.648C610.784 221.142 613.123 221.142 613.123 219.648C613.123 218.025 613.123 216.466 613.123 214.842C613.123 213.348 610.784 213.348 610.784 214.842Z" fill="#03C4A1"/>
<path d="M612.992 224.454C613.771 224.974 614.551 225.363 615.395 225.688C615.98 225.883 616.694 225.428 616.824 224.844C617.019 224.194 616.629 223.61 615.98 223.415C615.33 223.155 614.681 222.831 614.096 222.441C613.577 222.051 612.797 222.311 612.473 222.831C612.213 223.48 612.473 224.129 612.992 224.454Z" fill="#03C4A1"/>
<path d="M615.98 218.479C615.98 219.323 615.98 220.103 615.98 220.947C615.98 222.441 618.318 222.441 618.318 220.947C618.318 220.103 618.318 219.323 618.318 218.479C618.318 216.985 615.98 216.985 615.98 218.479Z" fill="#03C4A1"/>
<path d="M613.447 235.43C612.928 236.729 612.473 238.093 612.213 239.522C611.889 241.016 614.162 241.6 614.486 240.171C614.746 238.743 615.201 237.444 615.72 236.08C615.98 235.495 615.461 234.781 614.876 234.651C614.227 234.456 613.707 234.846 613.447 235.43Z" fill="#03C4A1"/>
<path d="M616.369 233.157C617.019 233.547 617.603 233.937 618.253 234.326C619.552 235.106 620.721 233.092 619.422 232.313C618.773 231.923 618.188 231.533 617.539 231.144C616.305 230.364 615.071 232.378 616.369 233.157Z" fill="#03C4A1"/>
<path d="M608.706 244.913C608.576 245.692 608.446 246.471 608.316 247.251C608.186 247.9 608.511 248.485 609.16 248.68C609.745 248.809 610.459 248.485 610.589 247.835C610.719 247.056 610.849 246.276 610.979 245.497C611.109 244.848 610.784 244.263 610.135 244.068C609.55 243.938 608.771 244.263 608.706 244.913Z" fill="#03C4A1"/>
<path d="M607.602 253.94C608.381 254.265 609.095 254.655 609.81 255.044C611.109 255.759 612.343 253.745 610.979 253.031C610.264 252.641 609.55 252.252 608.771 251.927C608.186 251.667 607.537 251.732 607.147 252.317C606.887 252.836 607.017 253.745 607.602 253.94Z" fill="#03C4A1"/>
<path d="M606.173 257.447C605.719 258.876 605.199 260.305 604.55 261.604C603.9 262.968 605.913 264.137 606.563 262.773C607.342 261.279 607.992 259.656 608.446 258.032C608.836 256.668 606.563 256.019 606.173 257.447Z" fill="#03C4A1"/>
<path d="M595.976 267.254C596.95 267.709 597.86 268.229 598.704 268.813C599.224 269.203 600.003 268.878 600.328 268.423C600.652 267.839 600.393 267.189 599.938 266.8C599.094 266.215 598.184 265.631 597.21 265.241C596.626 264.981 595.976 265.046 595.587 265.631C595.262 266.15 595.392 266.995 595.976 267.254Z" fill="#03C4A1"/>
<path d="M585.714 266.345C585.714 267.384 585.714 268.358 585.714 269.398C585.714 270.891 588.052 270.891 588.052 269.398C588.052 268.358 588.052 267.384 588.052 266.345C588.052 264.851 585.714 264.851 585.714 266.345Z" fill="#03C4A1"/>
<path d="M581.818 260.435C582.402 260.435 582.922 260.63 583.441 260.89C584.026 261.214 584.74 261.019 585.065 260.5C585.39 259.98 585.195 259.201 584.675 258.876C583.766 258.421 582.857 258.162 581.883 258.097C581.233 258.032 580.714 258.681 580.714 259.266C580.649 259.915 581.233 260.435 581.818 260.435Z" fill="#03C4A1"/>
<path d="M584.091 274.983C583.961 275.957 583.831 276.932 583.701 277.906C583.636 278.555 584.286 279.075 584.87 279.075C585.585 279.075 585.974 278.555 586.039 277.906C586.169 276.932 586.299 275.957 586.429 274.983C586.494 274.334 585.845 273.814 585.26 273.814C584.546 273.814 584.156 274.399 584.091 274.983Z" fill="#03C4A1"/>
<path d="M574.089 269.463C575.063 269.463 575.907 269.657 576.817 269.917C578.245 270.372 578.895 268.164 577.466 267.644C576.362 267.254 575.258 267.125 574.089 267.125C572.595 267.125 572.595 269.463 574.089 269.463Z" fill="#03C4A1"/>
<path d="M580.909 281.153C580.454 282.777 580.194 284.4 580.129 286.024C580.064 287.518 582.402 287.518 582.467 286.024C582.532 284.53 582.792 283.166 583.182 281.738C583.571 280.309 581.363 279.659 580.909 281.153Z" fill="#03C4A1"/>
<path d="M572.595 280.569C574.609 280.828 576.622 281.088 578.635 281.413C580.129 281.673 580.779 279.399 579.285 279.14C577.077 278.815 574.869 278.49 572.66 278.165C571.102 278.036 571.102 280.374 572.595 280.569Z" fill="#03C4A1"/>
<path d="M578.765 272.515C578.765 273.165 578.7 273.814 578.57 274.399C578.441 275.048 578.765 275.698 579.415 275.827C579.999 275.957 580.714 275.633 580.844 274.983C581.038 274.139 581.103 273.295 581.168 272.45C581.168 271.021 578.83 271.021 578.765 272.515Z" fill="#03C4A1"/>
<path d="M584.091 289.337C584.091 290.116 584.091 290.895 584.091 291.675C584.091 293.168 586.429 293.168 586.429 291.675C586.429 290.895 586.429 290.116 586.429 289.337C586.429 287.778 584.091 287.778 584.091 289.337Z" fill="#03C4A1"/>
<path d="M577.921 296.74C579.025 297.13 580.064 297.52 581.169 297.844C582.597 298.234 583.247 296.026 581.818 295.571C580.714 295.247 579.61 294.857 578.571 294.467C577.986 294.272 577.272 294.727 577.142 295.312C576.882 295.961 577.337 296.546 577.921 296.74Z" fill="#03C4A1"/>
<path d="M575.518 287.323C575.583 287.648 575.583 287.908 575.453 288.167C575.063 289.596 577.271 290.246 577.726 288.817C577.856 288.362 577.921 287.843 577.856 287.323C577.791 286.674 577.401 286.154 576.687 286.154C576.102 286.154 575.388 286.674 575.518 287.323Z" fill="#03C4A1"/>
<path d="M585.325 301.157C586.364 301.092 587.468 301.092 588.508 301.222C589.157 301.287 589.677 300.637 589.677 300.053C589.677 299.403 589.157 298.949 588.508 298.884C587.468 298.819 586.429 298.754 585.325 298.819C583.831 298.884 583.831 301.222 585.325 301.157Z" fill="#03C4A1"/>
<path d="M591.884 298.624C592.339 299.858 592.859 301.027 593.378 302.196C593.638 302.781 594.482 302.911 595.002 302.586C595.586 302.261 595.716 301.547 595.392 300.962C594.937 299.988 594.482 298.949 594.158 297.975C593.963 297.39 593.378 297 592.729 297.13C592.079 297.325 591.625 298.04 591.884 298.624Z" fill="#03C4A1"/>
<path d="M601.172 304.794C602.341 304.794 603.51 304.794 604.679 304.794C606.173 304.794 606.173 302.456 604.679 302.456C603.51 302.456 602.341 302.456 601.172 302.456C599.678 302.456 599.678 304.794 601.172 304.794Z" fill="#03C4A1"/>
<path d="M610.979 300.377C610.524 301.546 610.394 302.845 610.459 304.079C610.524 305.573 612.862 305.573 612.797 304.079C612.733 302.975 612.862 302.001 613.252 301.027C613.772 299.598 611.499 298.949 610.979 300.377Z" fill="#03C4A1"/>
<path d="M614.616 297.65C615.59 297.974 616.564 298.299 617.538 298.624C618.967 299.079 619.617 296.805 618.188 296.351C617.214 296.026 616.24 295.701 615.265 295.377C613.772 294.922 613.187 297.195 614.616 297.65Z" fill="#03C4A1"/>
<path d="M621.76 292.259C621.436 293.298 621.046 294.272 620.526 295.247C620.266 295.831 620.396 296.546 620.916 296.87C621.436 297.195 622.215 297 622.54 296.481C623.059 295.312 623.579 294.143 623.968 292.909C624.488 291.48 622.215 290.83 621.76 292.259Z" fill="#03C4A1"/>
<path d="M626.177 290.051C627.67 290.311 629.164 290.571 630.593 290.83C632.087 291.09 632.736 288.817 631.242 288.557C629.749 288.297 628.255 288.038 626.826 287.778C625.332 287.518 624.683 289.791 626.177 290.051Z" fill="#03C4A1"/>
<path d="M626.956 291.675C626.956 292.454 626.891 293.298 626.761 294.078C626.631 294.727 626.956 295.377 627.606 295.506C628.19 295.636 628.905 295.312 629.035 294.662C629.229 293.688 629.359 292.649 629.294 291.675C629.294 290.116 626.956 290.116 626.956 291.675Z" fill="#03C4A1"/>
<path d="M628.45 298.429C629.099 298.884 629.684 299.403 630.203 299.988C630.593 300.442 631.437 300.442 631.892 299.988C632.347 299.533 632.282 298.819 631.892 298.299C631.243 297.52 630.463 296.935 629.619 296.351C629.099 296.026 628.32 296.221 627.995 296.74C627.735 297.39 627.93 298.104 628.45 298.429Z" fill="#03C4A1"/>
<path d="M608.381 205.684C607.407 206.204 606.498 206.789 605.653 207.438C605.134 207.828 605.264 208.672 605.653 209.127C606.173 209.646 606.822 209.516 607.342 209.127C608.056 208.542 608.771 208.087 609.615 207.698C610.2 207.438 610.33 206.594 610.005 206.074C609.68 205.555 608.966 205.425 608.381 205.684Z" fill="#03C4A1"/>
<path d="M599.549 196.917C599.549 198.086 599.549 199.19 599.549 200.359C599.549 201.853 601.887 201.853 601.887 200.359C601.887 199.19 601.887 198.086 601.887 196.917C601.887 195.358 599.549 195.358 599.549 196.917Z" fill="#03C4A1"/>
<path d="M588.702 193.539C589.741 193.604 590.781 193.864 591.82 194.124C593.249 194.579 593.898 192.305 592.469 191.851C591.235 191.461 590.001 191.266 588.702 191.136C587.144 191.071 587.209 193.41 588.702 193.539Z" fill="#03C4A1"/>
<path d="M582.207 180.355C582.467 181.459 582.727 182.563 582.987 183.667C583.312 185.161 585.585 184.512 585.26 183.018C585 181.914 584.74 180.81 584.481 179.706C584.156 178.212 581.883 178.861 582.207 180.355Z" fill="#03C4A1"/>
<path d="M604.614 202.242C605.329 202.437 605.978 202.697 606.628 203.087C607.926 203.866 609.096 201.853 607.797 201.073C607.017 200.554 606.108 200.229 605.199 199.969C603.77 199.644 603.185 201.853 604.614 202.242Z" fill="#03C4A1"/>
<path d="M614.746 212.504C615.331 212.504 615.915 212.569 616.5 212.829C617.084 213.089 617.734 212.959 618.123 212.439C618.448 211.919 618.253 211.075 617.734 210.815C616.825 210.361 615.85 210.166 614.811 210.166C614.162 210.166 613.642 210.685 613.642 211.335C613.577 211.984 614.162 212.569 614.746 212.504Z" fill="#03C4A1"/>
<path d="M607.667 311.613C607.667 313.302 607.667 315.056 607.667 316.744C607.667 318.238 610.005 318.238 610.005 316.744C610.005 315.056 610.005 313.302 610.005 311.613C610.005 310.12 607.667 310.12 607.667 311.613Z" fill="#03C4A1"/>
<path d="M613.707 313.822C614.876 314.211 616.045 314.731 617.149 315.315C618.513 316.03 619.682 314.016 618.318 313.302C617.019 312.653 615.655 312.068 614.291 311.613C612.863 311.029 612.278 313.302 613.707 313.822Z" fill="#03C4A1"/>
<path d="M622.215 302.586C621.63 304.08 621.046 305.638 620.526 307.132C620.007 308.561 622.28 309.145 622.8 307.782C623.384 306.288 623.969 304.729 624.488 303.235C625.008 301.741 622.799 301.157 622.215 302.586Z" fill="#03C4A1"/>
<path d="M613.707 307.002C613.902 307.002 614.097 307.002 614.162 307.002C614.292 307.067 614.422 307.067 614.422 307.132C614.941 307.522 615.591 307.587 616.11 307.132C616.5 306.742 616.63 305.898 616.11 305.443C615.396 304.859 614.616 304.534 613.707 304.599C613.058 304.664 612.538 305.119 612.538 305.768C612.538 306.418 613.058 307.067 613.707 307.002Z" fill="#03C4A1"/>
<path d="M625.852 310.249C627.28 311.483 628.904 312.393 630.723 312.977C632.152 313.432 632.801 311.159 631.372 310.704C629.943 310.249 628.644 309.535 627.54 308.626C626.371 307.652 624.683 309.275 625.852 310.249Z" fill="#03C4A1"/>
<path d="M592.144 315.705C592.534 316.744 592.924 317.783 593.508 318.758C594.223 320.056 596.236 318.887 595.522 317.589C595.067 316.809 594.742 315.965 594.417 315.121C593.898 313.692 591.625 314.276 592.144 315.705Z" fill="#03C4A1"/>
<path d="M576.037 176.069C575.648 176.913 575.323 177.757 575.063 178.666C574.673 180.16 576.947 180.745 577.336 179.316C577.531 178.602 577.726 177.887 578.051 177.238C578.31 176.653 578.245 176.004 577.661 175.614C577.141 175.354 576.297 175.484 576.037 176.069Z" fill="#03C4A1"/>
<path d="M590.001 187.694C590.455 188.019 590.975 188.214 591.495 188.409C592.079 188.668 592.794 188.149 592.923 187.564C593.118 186.915 592.664 186.33 592.079 186.135C591.754 186.006 591.43 185.811 591.17 185.616C590.65 185.291 589.871 185.486 589.546 186.006C589.286 186.655 589.481 187.304 590.001 187.694Z" fill="#03C4A1"/>
<path d="M563.113 167.041C563.632 168.015 564.607 168.729 565.711 169.054C567.139 169.444 567.789 167.171 566.36 166.781C565.841 166.651 565.451 166.326 565.191 165.872C564.412 164.508 562.398 165.677 563.113 167.041Z" fill="#03C4A1"/>
<path d="M518.17 299.923C518.105 300.183 517.91 300.572 517.65 300.767C516.546 301.806 518.235 303.495 519.339 302.456C520.053 301.741 520.378 300.897 520.508 299.923C520.573 299.273 519.923 298.754 519.339 298.754C518.624 298.754 518.235 299.273 518.17 299.923Z" fill="#03C4A1"/>
<path d="M509.532 304.989C510.116 305.638 510.831 306.093 511.675 306.353C512.259 306.548 512.974 306.093 513.104 305.508C513.299 304.859 512.909 304.274 512.259 304.08C511.805 303.95 511.48 303.69 511.155 303.3C510.701 302.846 509.921 302.846 509.467 303.3C509.012 303.82 509.077 304.534 509.532 304.989Z" fill="#03C4A1"/>
<path d="M503.101 308.171C502.907 309.925 502.582 311.613 502.192 313.302C501.802 314.796 504.076 315.38 504.465 313.951C504.92 312.068 505.245 310.12 505.439 308.171C505.634 306.677 503.296 306.677 503.101 308.171Z" fill="#03C4A1"/>
<path d="M496.542 311.483C496.672 312.328 496.867 313.172 497.062 313.951C497.192 314.601 497.906 314.926 498.49 314.796C499.14 314.601 499.4 313.951 499.335 313.367C499.205 312.523 499.01 311.678 498.88 310.899C498.75 310.249 498.036 309.925 497.451 310.055C496.737 310.185 496.412 310.834 496.542 311.483Z" fill="#03C4A1"/>
<path d="M523.495 307.911C524.34 307.911 525.054 308.496 525.768 308.756C526.613 309.015 527.457 308.951 528.301 308.626C528.886 308.366 529.016 307.522 528.691 307.002C528.366 306.418 527.652 306.353 527.067 306.612C526.613 306.807 525.768 306.288 525.379 306.093C524.729 305.833 524.145 305.638 523.43 305.638C522.002 305.508 522.001 307.846 523.495 307.911Z" fill="#03C4A1"/>
<path d="M530.315 299.403C530.055 300.183 529.665 300.832 529.081 301.417C528.041 302.521 529.665 304.144 530.769 303.105C531.614 302.261 532.198 301.222 532.588 300.053C532.783 299.468 532.328 298.754 531.743 298.624C531.159 298.429 530.509 298.819 530.315 299.403Z" fill="#03C4A1"/>
<path d="M514.402 309.08C513.428 310.25 512.714 311.483 512.194 312.847C511.999 313.432 512.454 314.146 513.038 314.276C513.688 314.471 514.272 314.081 514.467 313.432C514.857 312.458 515.376 311.484 516.026 310.704C516.416 310.25 516.48 309.535 516.026 309.015C515.636 308.691 514.792 308.626 514.402 309.08Z" fill="#03C4A1"/>
<path d="M476.928 311.938C477.058 312.847 476.798 313.692 476.343 314.471C475.499 315.705 477.512 316.939 478.357 315.64C479.201 314.341 479.461 312.847 479.201 311.289C479.071 310.639 478.357 310.314 477.772 310.444C477.058 310.639 476.798 311.289 476.928 311.938Z" fill="#03C4A1"/>
<path d="M481.669 313.432C483.358 314.211 485.046 314.861 486.8 315.445C488.229 315.9 488.878 313.627 487.449 313.172C485.89 312.717 484.332 312.133 482.903 311.419C481.474 310.704 480.305 312.717 481.669 313.432Z" fill="#03C4A1"/>
<path d="M491.866 308.041C491.866 309.21 491.671 310.379 491.281 311.483C490.827 312.912 493.035 313.562 493.554 312.133C494.009 310.834 494.204 309.47 494.204 308.041C494.204 306.547 491.866 306.483 491.866 308.041Z" fill="#03C4A1"/>
<path d="M539.017 300.702C538.368 301.612 537.653 302.586 537.004 303.495C536.614 304.015 536.939 304.794 537.394 305.119C537.978 305.443 538.628 305.184 539.017 304.729C539.667 303.82 540.381 302.846 541.031 301.936C541.42 301.417 541.096 300.637 540.641 300.313C540.056 299.923 539.407 300.183 539.017 300.702Z" fill="#03C4A1"/>
<path d="M545.902 302.001C547.396 302.91 548.89 303.82 550.384 304.729C551.683 305.508 552.852 303.495 551.553 302.716C550.059 301.806 548.565 300.897 547.071 299.988C545.772 299.208 544.603 301.222 545.902 302.001Z" fill="#03C4A1"/>
<path d="M558.437 301.352C558.177 301.547 557.917 301.806 557.658 302.001C557.203 302.391 557.268 303.235 557.658 303.69C558.112 304.144 558.827 304.08 559.346 303.69C559.606 303.495 559.866 303.235 560.126 303.04C560.58 302.651 560.515 301.806 560.126 301.352C559.606 300.897 558.892 300.962 558.437 301.352Z" fill="#03C4A1"/>
<path d="M563.048 306.093C563.373 306.223 563.697 306.418 563.957 306.547C564.542 306.807 565.256 306.677 565.581 306.158C565.906 305.638 565.711 304.859 565.191 304.534C564.866 304.404 564.542 304.209 564.282 304.079C563.697 303.82 562.983 303.95 562.658 304.469C562.334 304.989 562.528 305.768 563.048 306.093Z" fill="#03C4A1"/>
<path d="M434.258 120.539C433.219 120.604 432.244 121.123 431.725 122.097C431.01 123.396 433.024 124.63 433.738 123.267C433.803 123.137 433.868 123.007 433.933 123.007C433.933 123.007 434.128 122.877 433.998 122.942C433.998 122.942 434.323 122.877 434.193 122.877C434.842 122.812 435.362 122.357 435.362 121.708C435.427 121.058 434.907 120.474 434.258 120.539Z" fill="#03C4A1"/>
<path d="M427.633 126.189C428.282 126.644 428.802 127.293 429.257 127.943C430.036 129.242 432.049 128.073 431.27 126.774C430.621 125.734 429.841 124.89 428.802 124.176C428.282 123.786 427.503 124.111 427.178 124.565C426.854 125.215 427.113 125.864 427.633 126.189Z" fill="#03C4A1"/>
<path d="M422.373 127.228C422.113 128.073 421.918 128.852 421.658 129.696C421.269 131.125 423.477 131.775 423.931 130.346C424.191 129.501 424.386 128.722 424.646 127.878C425.101 126.384 422.827 125.734 422.373 127.228Z" fill="#03C4A1"/>
<path d="M412.046 130.346C412.955 131.125 413.735 132.034 414.384 133.074C415.163 134.373 417.177 133.203 416.397 131.905C415.683 130.735 414.774 129.631 413.735 128.657C412.566 127.683 410.877 129.307 412.046 130.346Z" fill="#03C4A1"/>
<path d="M407.304 136.321C406.46 137.1 405.681 137.944 404.966 138.854C404.577 139.373 404.512 140.023 404.966 140.542C405.356 140.932 406.2 141.062 406.655 140.542C407.369 139.633 408.149 138.789 408.993 138.009C410.032 136.97 408.409 135.282 407.304 136.321Z" fill="#03C4A1"/>
<path d="M404.512 145.284C404.902 146.063 405.291 146.842 405.746 147.622C406.006 148.206 406.85 148.336 407.37 148.011C407.954 147.687 408.084 146.972 407.759 146.388C407.37 145.608 406.98 144.829 406.525 144.05C406.266 143.465 405.421 143.335 404.902 143.66C404.382 143.985 404.252 144.699 404.512 145.284Z" fill="#03C4A1"/>
<path d="M404.187 157.039C403.993 158.143 403.603 159.182 403.018 160.157C402.239 161.456 404.317 162.625 405.032 161.326C405.681 160.157 406.136 158.923 406.396 157.624C406.785 156.195 404.512 155.545 404.187 157.039Z" fill="#03C4A1"/>
<path d="M406.72 153.012C407.239 153.142 407.694 153.272 408.149 153.597C408.668 153.922 409.448 153.727 409.772 153.207C410.097 152.623 409.902 151.973 409.383 151.584C408.798 151.194 408.084 150.934 407.434 150.804C406.785 150.674 406.2 150.999 406.005 151.648C405.746 152.103 406.135 152.882 406.72 153.012Z" fill="#03C4A1"/>
<path d="M407.109 165.482C407.109 166.456 407.109 167.431 407.109 168.47C407.109 169.964 409.448 169.964 409.448 168.47C409.448 167.496 409.448 166.521 409.448 165.482C409.448 163.988 407.109 163.988 407.109 165.482Z" fill="#03C4A1"/>
<path d="M400.55 151.259C400.55 151.778 400.485 152.103 400.225 152.558C399.446 153.857 401.459 155.026 402.239 153.727C402.693 153.012 402.953 152.103 402.888 151.259C402.823 150.609 402.368 150.09 401.719 150.09C401.134 150.09 400.55 150.609 400.55 151.259Z" fill="#03C4A1"/>
<path d="M403.407 172.626C404.252 174.12 405.031 175.549 405.875 177.043C406.59 178.342 408.668 177.173 407.889 175.874C407.045 174.38 406.265 172.951 405.421 171.457C404.706 170.093 402.693 171.262 403.407 172.626Z" fill="#03C4A1"/>
<path d="M415.358 139.438C414.579 140.283 413.929 141.257 413.41 142.231C412.695 143.595 414.709 144.764 415.423 143.4C415.878 142.556 416.397 141.776 416.982 141.062C417.371 140.607 417.436 139.893 416.982 139.373C416.592 138.984 415.813 138.984 415.358 139.438Z" fill="#03C4A1"/>
<path d="M422.697 139.308C422.957 139.308 423.152 139.373 423.346 139.503C423.931 139.763 424.645 139.633 424.97 139.114C425.295 138.594 425.1 137.815 424.58 137.49C423.996 137.165 423.411 137.035 422.762 137.035C422.112 137.035 421.593 137.62 421.593 138.204C421.528 138.789 422.048 139.243 422.697 139.308Z" fill="#03C4A1"/>
<path d="M428.088 132.034C427.893 133.009 427.633 133.983 427.243 134.892C426.983 135.477 427.048 136.126 427.633 136.516C428.152 136.776 428.997 136.646 429.257 136.126C429.711 135.022 430.101 133.918 430.296 132.749C430.426 132.099 430.101 131.515 429.451 131.32C428.997 131.06 428.217 131.385 428.088 132.034Z" fill="#03C4A1"/>
<path d="M437.376 132.294C438.22 132.489 438.999 132.879 439.649 133.528C440.753 134.567 442.441 132.879 441.337 131.84C440.428 130.995 439.259 130.346 438.025 130.021C436.531 129.631 435.947 131.905 437.376 132.294Z" fill="#03C4A1"/>
<path d="M438.934 123.137C438.674 123.916 438.284 124.63 437.765 125.345C437.44 125.864 437.635 126.644 438.155 126.968C438.739 127.293 439.389 127.098 439.778 126.579C440.363 125.734 440.817 124.76 441.142 123.786C441.337 123.202 440.882 122.487 440.298 122.357C439.713 122.162 439.129 122.552 438.934 123.137Z" fill="#03C4A1"/>
<path d="M443.09 126.579C443.545 127.163 444.065 127.748 444.519 128.267C444.909 128.722 445.753 128.657 446.208 128.267C446.662 127.813 446.598 127.098 446.208 126.579C445.753 125.994 445.234 125.41 444.779 124.89C444.389 124.371 443.545 124.501 443.09 124.89C442.636 125.41 442.701 126.124 443.09 126.579Z" fill="#03C4A1"/>
<path d="M447.247 124.89C448.221 125.28 449.195 125.345 450.234 125.15C450.884 125.02 451.208 124.241 451.079 123.721C450.884 123.072 450.234 122.812 449.65 122.877C449.065 122.942 448.481 122.812 447.896 122.617C447.312 122.357 446.597 122.877 446.467 123.461C446.208 124.111 446.597 124.63 447.247 124.89Z" fill="#03C4A1"/>
<path d="M411.721 148.726C411.916 149.7 412.37 150.544 413.02 151.324C413.409 151.778 414.254 151.713 414.708 151.324C415.163 150.869 415.098 150.155 414.708 149.635C414.319 149.181 414.124 148.661 413.994 148.076C413.864 147.427 413.15 147.102 412.565 147.232C411.916 147.492 411.591 148.141 411.721 148.726Z" fill="#03C4A1"/>
<path d="M407.759 182.174C407.305 183.473 407.045 184.771 406.915 186.07C406.785 187.564 409.123 187.564 409.253 186.07C409.318 184.966 409.578 183.862 409.968 182.758C410.552 181.394 408.279 180.745 407.759 182.174Z" fill="#03C4A1"/>
<path d="M409.772 193.085C410.292 193.604 410.812 194.124 411.331 194.643C412.435 195.683 414.059 194.059 413.02 192.955C412.5 192.435 411.981 191.916 411.461 191.396C410.357 190.357 408.733 191.981 409.772 193.085Z" fill="#03C4A1"/>
<path d="M409.968 200.164C409.903 200.749 409.838 201.333 409.773 201.853C409.708 202.502 410.357 203.022 410.942 203.022C411.656 203.022 412.046 202.502 412.111 201.853C412.176 201.268 412.241 200.684 412.306 200.164C412.371 199.515 411.721 198.995 411.137 198.995C410.422 198.995 410.033 199.515 409.968 200.164Z" fill="#03C4A1"/>
<path d="M458.353 124.76C457.509 125.215 456.795 125.864 456.21 126.644C455.82 127.163 456.145 127.943 456.6 128.267C457.184 128.592 457.834 128.332 458.223 127.878C458.548 127.423 459.003 127.098 459.522 126.839C460.107 126.514 460.237 125.735 459.912 125.215C459.587 124.565 458.873 124.436 458.353 124.76Z" fill="#03C4A1"/>
<path d="M465.627 130.476C466.406 131.255 467.251 131.969 468.16 132.554C468.68 132.879 469.459 132.684 469.784 132.164C470.108 131.58 469.914 130.93 469.394 130.541C468.615 130.021 467.965 129.501 467.316 128.852C466.276 127.748 464.588 129.372 465.627 130.476Z" fill="#03C4A1"/>
<path d="M480.5 133.333C481.149 133.528 481.734 133.658 482.383 133.853C483.812 134.243 484.462 131.969 483.033 131.58C482.383 131.385 481.799 131.255 481.149 131.06C479.656 130.67 479.071 132.944 480.5 133.333Z" fill="#03C4A1"/>
<path d="M486.216 133.009C485.891 133.463 485.566 133.918 485.241 134.372C484.852 134.892 485.111 135.671 485.631 135.996C486.216 136.321 486.865 136.126 487.255 135.606C487.579 135.152 487.904 134.697 488.229 134.243C488.619 133.723 488.294 132.944 487.839 132.619C487.255 132.229 486.54 132.489 486.216 133.009Z" fill="#03C4A1"/>
<path d="M473.875 128.462C473.875 128.332 473.81 128.592 473.875 128.462C473.551 129.047 473.745 129.761 474.265 130.086C474.785 130.411 475.564 130.216 475.889 129.696C476.213 129.112 476.278 128.527 476.148 127.878C476.019 127.228 475.304 126.904 474.72 127.033C474.07 127.163 473.745 127.813 473.875 128.462Z" fill="#03C4A1"/>
<path d="M495.957 136.97C496.607 136.97 497.321 136.97 497.971 136.97C499.465 136.97 499.465 134.632 497.971 134.632C497.321 134.632 496.607 134.632 495.957 134.632C494.464 134.632 494.464 136.97 495.957 136.97Z" fill="#03C4A1"/>
<path d="M503.231 137.165C503.231 138.139 503.621 139.049 504.4 139.698C504.855 140.088 505.57 140.153 506.089 139.698C506.479 139.308 506.609 138.464 506.089 138.01C505.764 137.75 505.634 137.49 505.634 137.165C505.57 135.671 503.231 135.671 503.231 137.165Z" fill="#03C4A1"/>
<path d="M254.419 304.794C253.835 306.612 253.315 308.366 252.73 310.185C252.276 311.613 254.549 312.263 255.004 310.834C255.588 309.015 256.108 307.262 256.692 305.443C257.147 304.015 254.874 303.365 254.419 304.794Z" fill="#03C4A1"/>
<path d="M269.681 308.431C269.746 309.795 269.487 311.094 268.902 312.263C268.253 313.627 270.266 314.796 270.916 313.432C271.695 311.873 272.085 310.184 272.02 308.366C271.955 306.937 269.552 306.937 269.681 308.431Z" fill="#03C4A1"/>
<path d="M285.723 308.886C284.554 309.145 283.515 309.665 282.606 310.379C282.086 310.769 282.216 311.613 282.606 312.068C283.06 312.523 283.775 312.458 284.294 312.068C284.879 311.613 285.593 311.289 286.373 311.159C287.022 311.029 287.347 310.314 287.217 309.73C287.022 309.08 286.373 308.756 285.723 308.886Z" fill="#03C4A1"/>
<path d="M291.958 316.16C293.452 316.16 294.946 316.16 296.44 316.16C297.934 316.16 297.934 313.822 296.44 313.822C294.946 313.822 293.452 313.822 291.958 313.822C290.4 313.822 290.4 316.16 291.958 316.16Z" fill="#03C4A1"/>
<path d="M237.662 309.405C239.091 310.185 240.455 310.964 241.884 311.808C243.183 312.523 244.352 310.509 243.053 309.795C241.624 309.016 240.26 308.236 238.832 307.392C237.533 306.677 236.364 308.691 237.662 309.405Z" fill="#03C4A1"/>
<path d="M333.2 314.276C333.265 315.315 333.07 316.16 332.42 317.004C332.031 317.524 332.355 318.303 332.81 318.628C333.395 318.952 334.044 318.693 334.434 318.238C335.213 317.134 335.603 315.705 335.538 314.341C335.408 312.782 333.07 312.782 333.2 314.276Z" fill="#03C4A1"/>
<path d="M353.983 312.068C354.437 311.678 354.892 311.289 355.347 310.899C355.801 310.509 355.801 309.665 355.347 309.21C354.892 308.756 354.177 308.821 353.658 309.21C353.203 309.6 352.749 309.99 352.229 310.379C351.774 310.769 351.839 311.613 352.229 312.068C352.814 312.588 353.528 312.523 353.983 312.068Z" fill="#03C4A1"/>
<path d="M363.465 309.99C363.4 310.444 363.335 310.899 363.205 311.418C363.075 312.068 363.4 312.652 364.049 312.847C364.634 312.977 365.413 312.652 365.478 312.003C365.543 311.548 365.608 311.094 365.738 310.574C365.868 309.925 365.543 309.34 364.894 309.145C364.374 309.015 363.595 309.34 363.465 309.99Z" fill="#03C4A1"/>
<path d="M377.039 304.924C378.533 304.924 378.533 302.586 377.039 302.586C375.546 302.586 375.546 304.924 377.039 304.924Z" fill="#03C4A1"/>
<path d="M383.989 297.455C385.613 298.234 387.236 299.208 388.665 300.313C389.834 301.222 391.523 299.598 390.354 298.624C388.73 297.39 387.041 296.286 385.223 295.377C383.794 294.792 382.625 296.805 383.989 297.455Z" fill="#03C4A1"/>
<path d="M395.874 289.791C394.705 290.96 393.86 292.324 393.211 293.818C392.951 294.402 393.471 295.117 394.055 295.247C394.705 295.441 395.224 294.987 395.484 294.402C395.939 293.298 396.653 292.259 397.497 291.415C398.601 290.311 396.978 288.687 395.874 289.791Z" fill="#03C4A1"/>
<path d="M373.922 310.639C373.532 311.483 373.143 312.393 372.753 313.237C372.493 313.821 372.558 314.471 373.143 314.861C373.662 315.185 374.506 314.991 374.766 314.471C375.156 313.627 375.546 312.717 375.935 311.873C376.195 311.289 376.13 310.639 375.546 310.249C375.026 309.925 374.182 310.055 373.922 310.639Z" fill="#03C4A1"/>
<path d="M400.42 281.868C400.16 282.647 399.965 283.426 399.836 284.206C399.771 284.855 399.965 285.44 400.68 285.634C401.199 285.764 402.044 285.44 402.109 284.79C402.239 284.011 402.433 283.231 402.693 282.452C402.888 281.868 402.433 281.153 401.849 281.023C401.199 280.828 400.615 281.218 400.42 281.868Z" fill="#03C4A1"/>
<path d="M404.707 279.01C405.616 279.01 406.59 279.01 407.499 279.01C408.993 279.01 408.993 276.672 407.499 276.672C406.59 276.672 405.616 276.672 404.707 276.672C403.213 276.672 403.213 279.01 404.707 279.01Z" fill="#03C4A1"/>
<path d="M409.643 267.514C409.513 268.294 409.253 268.943 408.863 269.592C408.084 270.891 410.097 272.061 410.877 270.762C411.396 269.982 411.721 269.073 411.916 268.099C412.046 267.449 411.721 266.865 411.071 266.67C410.552 266.54 409.772 266.93 409.643 267.514Z" fill="#03C4A1"/>
<path d="M412.695 256.993C412.436 258.227 412.241 259.461 411.981 260.76C411.721 262.253 413.929 262.838 414.254 261.409C414.514 260.175 414.709 258.941 414.968 257.642C415.228 256.148 412.955 255.499 412.695 256.993Z" fill="#03C4A1"/>
<g opacity="0.61">
<path opacity="0.61" d="M416.527 119.24C416.202 119.694 415.877 120.149 415.618 120.669C415.293 121.188 415.488 121.968 416.007 122.292C416.592 122.617 417.241 122.422 417.631 121.903C417.956 121.448 418.28 120.993 418.54 120.474C418.865 119.954 418.67 119.175 418.15 118.85C417.566 118.525 416.852 118.72 416.527 119.24Z" fill="#95C11F"/>
</g>
<g opacity="0.61">
<path opacity="0.61" d="M407.824 123.137C408.409 123.331 408.993 123.591 409.513 123.786C410.097 123.981 410.812 123.526 410.942 122.942C411.136 122.292 410.747 121.708 410.097 121.513C409.513 121.318 408.928 121.058 408.409 120.863C407.824 120.669 407.11 121.123 406.98 121.708C406.85 122.357 407.24 122.942 407.824 123.137Z" fill="#95C11F"/>
</g>
<g opacity="0.61">
<path opacity="0.61" d="M403.992 122.682C403.473 123.591 402.953 124.436 402.434 125.345C401.654 126.644 403.668 127.813 404.447 126.514C404.967 125.605 405.486 124.76 406.006 123.851C406.785 122.552 404.772 121.383 403.992 122.682Z" fill="#95C11F"/>
</g>
<g opacity="0.61">
<path opacity="0.61" d="M398.147 130.865C398.666 131.19 399.056 131.515 399.446 131.905C400.485 133.009 402.173 131.32 401.134 130.216C400.615 129.696 399.965 129.177 399.316 128.787C398.082 128.008 396.913 130.086 398.147 130.865Z" fill="#95C11F"/>
</g>
<g opacity="0.61">
<path opacity="0.61" d="M397.303 133.463C397.043 134.632 396.588 135.736 396.004 136.776C395.29 138.074 397.303 139.308 398.017 137.945C398.667 136.711 399.186 135.412 399.576 134.048C399.966 132.619 397.693 131.969 397.303 133.463Z" fill="#95C11F"/>
</g>
<g opacity="0.61">
<path opacity="0.61" d="M391.197 134.762C391.522 135.022 391.847 135.282 392.107 135.542C392.561 135.931 393.276 135.996 393.795 135.542C394.185 135.152 394.315 134.308 393.795 133.853C393.471 133.593 393.146 133.333 392.886 133.074C392.431 132.684 391.717 132.619 391.197 133.074C390.808 133.528 390.743 134.372 391.197 134.762Z" fill="#95C11F"/>
</g>
<g opacity="0.61">
<path opacity="0.61" d="M390.743 141.387C390.548 142.426 390.353 143.465 390.158 144.504C390.028 145.154 390.353 145.738 391.003 145.933C391.587 146.063 392.302 145.738 392.432 145.089C392.626 144.05 392.821 143.01 393.016 141.971C393.146 141.322 392.821 140.737 392.172 140.542C391.587 140.413 390.873 140.802 390.743 141.387Z" fill="#95C11F"/>
</g>
<g opacity="0.61">
<path opacity="0.61" d="M382.04 131.969C382.949 132.359 383.664 132.944 384.183 133.788C384.963 135.087 386.976 133.918 386.197 132.619C385.482 131.45 384.443 130.476 383.209 129.956C382.625 129.696 381.975 129.761 381.586 130.346C381.326 130.865 381.456 131.71 382.04 131.969Z" fill="#95C11F"/>
</g>
<g opacity="0.61">
<path opacity="0.61" d="M385.417 125.15C385.417 126.059 385.417 127.033 385.417 127.943C385.417 129.436 387.756 129.436 387.756 127.943C387.756 127.033 387.756 126.059 387.756 125.15C387.756 123.656 385.417 123.656 385.417 125.15Z" fill="#95C11F"/>
</g>
<g opacity="0.61">
<path opacity="0.61" d="M391.522 124.825C391.912 125.475 392.236 126.059 392.626 126.709C393.405 128.008 395.419 126.839 394.639 125.54C394.25 124.89 393.925 124.306 393.535 123.656C392.756 122.292 390.743 123.526 391.522 124.825Z" fill="#95C11F"/>
</g>
<g opacity="0.61">
<path opacity="0.61" d="M396.393 122.422C397.172 122.422 397.952 122.552 398.731 122.747C400.16 123.201 400.81 120.928 399.381 120.474C398.406 120.214 397.432 120.019 396.458 120.084C394.899 120.084 394.899 122.422 396.393 122.422Z" fill="#95C11F"/>
</g>
<g opacity="0.61">
<path opacity="0.61" d="M379.182 120.474C379.182 121.188 379.182 121.903 379.182 122.682C379.182 124.176 381.52 124.176 381.52 122.682C381.52 121.968 381.52 121.253 381.52 120.474C381.52 118.98 379.182 118.98 379.182 120.474Z" fill="#95C11F"/>
</g>
<g opacity="0.61">
<path opacity="0.61" d="M372.817 123.396C373.921 123.656 375.026 123.981 376.065 124.436C376.649 124.695 377.364 124.176 377.494 123.591C377.688 122.942 377.234 122.422 376.649 122.162C375.61 121.708 374.506 121.383 373.402 121.123C371.973 120.863 371.324 123.137 372.817 123.396Z" fill="#95C11F"/>
</g>
<g opacity="0.61">
<path opacity="0.61" d="M366.972 122.357C366.907 122.877 366.777 123.396 366.713 123.916C366.583 124.565 366.907 125.15 367.557 125.345C368.141 125.475 368.921 125.15 368.986 124.501C369.051 123.981 369.181 123.461 369.245 122.942C369.375 122.292 369.051 121.708 368.401 121.513C367.817 121.383 367.037 121.708 366.972 122.357Z" fill="#95C11F"/>
</g>
<g opacity="0.61">
<path opacity="0.61" d="M361.712 126.709C362.816 127.033 363.855 127.423 364.829 127.878C366.193 128.527 367.362 126.514 365.998 125.864C364.829 125.28 363.595 124.825 362.296 124.436C360.867 124.046 360.283 126.319 361.712 126.709Z" fill="#95C11F"/>
</g>
<g opacity="0.61">
<path opacity="0.61" d="M353.073 126.514C352.099 127.163 351.06 127.618 349.891 127.683C348.397 127.813 348.397 130.151 349.891 130.021C351.45 129.891 352.943 129.436 354.307 128.527C355.476 127.748 354.307 125.67 353.073 126.514Z" fill="#95C11F"/>
</g>
<g opacity="0.61">
<path opacity="0.61" d="M364.31 134.243C365.154 134.762 365.739 135.542 366.193 136.386C366.453 136.97 367.297 137.1 367.817 136.776C368.401 136.451 368.531 135.736 368.206 135.152C367.622 133.918 366.648 132.944 365.479 132.164C364.959 131.84 364.18 132.034 363.855 132.554C363.53 133.203 363.79 133.853 364.31 134.243Z" fill="#95C11F"/>
</g>
<g opacity="0.61">
<path opacity="0.61" d="M376.26 130.021C376.13 130.411 375.935 130.865 375.805 131.255C375.545 131.84 376.065 132.554 376.649 132.684C377.299 132.879 377.883 132.489 378.078 131.84C378.208 131.45 378.403 130.995 378.533 130.606C378.793 130.021 378.273 129.307 377.688 129.177C377.039 128.982 376.455 129.436 376.26 130.021Z" fill="#95C11F"/>
</g>
<g opacity="0.61">
<path opacity="0.61" d="M374.311 141.647C374.636 142.036 374.961 142.491 375.221 142.881C375.61 143.4 376.26 143.66 376.844 143.27C377.364 142.946 377.624 142.166 377.234 141.647C376.909 141.257 376.584 140.802 376.325 140.413C375.935 139.893 375.286 139.633 374.701 140.023C374.246 140.348 373.922 141.192 374.311 141.647Z" fill="#95C11F"/>
</g>
<g opacity="0.61">
<path opacity="0.61" d="M369.505 131.125C369.895 131.45 370.22 131.775 370.609 132.099C371.064 132.489 371.778 132.554 372.298 132.099C372.753 131.645 372.753 130.865 372.298 130.411C371.908 130.086 371.584 129.761 371.194 129.436C370.739 129.047 370.025 128.982 369.505 129.436C369.051 129.891 368.986 130.735 369.505 131.125Z" fill="#95C11F"/>
</g>
<g opacity="0.61">
<path opacity="0.61" d="M383.209 144.829C383.209 145.998 383.209 147.232 383.209 148.401C383.209 149.895 385.547 149.895 385.547 148.401C385.547 147.232 385.547 145.998 385.547 144.829C385.547 143.335 383.209 143.335 383.209 144.829Z" fill="#95C11F"/>
</g>
<g opacity="0.61">
<path opacity="0.61" d="M387.171 158.338C387.821 158.922 388.405 159.507 389.055 160.092C390.159 161.131 391.847 159.442 390.743 158.403C390.094 157.818 389.509 157.234 388.86 156.649C387.691 155.61 386.067 157.299 387.171 158.338Z" fill="#95C11F"/>
</g>
<g opacity="0.61">
<path opacity="0.61" d="M389.509 153.337C389.444 153.272 389.574 153.272 389.509 153.402C389.509 153.337 389.574 153.207 389.444 153.467C388.99 154.896 391.263 155.545 391.717 154.116C391.977 153.207 391.717 152.428 391.133 151.713C390.743 151.259 389.899 151.259 389.444 151.713C389.055 152.103 389.12 152.818 389.509 153.337Z" fill="#95C11F"/>
</g>
<g opacity="0.61">
<path opacity="0.61" d="M394.77 159.052C394.77 159.767 394.77 160.481 394.77 161.261C394.77 162.754 397.108 162.754 397.108 161.261C397.108 160.546 397.108 159.832 397.108 159.052C397.108 157.559 394.77 157.559 394.77 159.052Z" fill="#95C11F"/>
</g>
<g opacity="0.61">
<path opacity="0.61" d="M393.665 167.95C393.665 169.444 393.665 171.003 393.665 172.496C393.665 173.99 396.003 173.99 396.003 172.496C396.003 171.003 396.003 169.444 396.003 167.95C396.003 166.456 393.665 166.456 393.665 167.95Z" fill="#95C11F"/>
</g>
<g opacity="0.61">
<path opacity="0.61" d="M396.328 182.953C396.328 183.862 396.328 184.836 396.328 185.746C396.328 187.239 398.667 187.239 398.667 185.746C398.667 184.836 398.667 183.862 398.667 182.953C398.667 181.459 396.328 181.459 396.328 182.953Z" fill="#95C11F"/>
</g>
<g opacity="0.61">
<path opacity="0.61" d="M400.42 193.15C401.459 193.864 402.303 194.838 402.888 195.942C403.602 197.306 405.616 196.072 404.901 194.773C404.122 193.28 403.018 192.046 401.589 191.136C400.355 190.292 399.121 192.305 400.42 193.15Z" fill="#95C11F"/>
</g>
<g opacity="0.61">
<path opacity="0.61" d="M397.433 197.046C397.433 197.371 397.433 197.696 397.433 197.956C397.433 199.45 399.771 199.45 399.771 197.956C399.771 197.631 399.771 197.306 399.771 197.046C399.771 195.553 397.433 195.553 397.433 197.046Z" fill="#95C11F"/>
</g>
<g opacity="0.61">
<path opacity="0.61" d="M403.343 204.45C404.057 204.97 404.772 205.49 405.486 206.009C406.006 206.399 406.785 206.074 407.11 205.62C407.435 205.035 407.175 204.386 406.72 203.996C406.006 203.476 405.291 202.957 404.577 202.437C404.057 202.047 403.278 202.372 402.953 202.827C402.564 203.476 402.823 204.126 403.343 204.45Z" fill="#95C11F"/>
</g>
<g opacity="0.61">
<path opacity="0.61" d="M406.005 211.4C406.005 212.309 406.005 213.283 406.005 214.193C406.005 215.686 408.343 215.686 408.343 214.193C408.343 213.283 408.343 212.309 408.343 211.4C408.408 209.906 406.005 209.906 406.005 211.4Z" fill="#95C11F"/>
</g>
<g opacity="0.61">
<path opacity="0.61" d="M397.627 210.166C397.627 210.296 397.627 210.426 397.497 210.556C397.108 211.01 397.043 211.725 397.497 212.244C397.887 212.634 398.731 212.699 399.186 212.244C399.706 211.66 399.965 210.945 400.03 210.166C400.03 209.516 399.446 208.997 398.861 208.997C398.147 208.997 397.627 209.516 397.627 210.166Z" fill="#95C11F"/>
</g>
<g opacity="0.61">
<path opacity="0.61" d="M407.11 228.481C407.824 228.871 408.474 229.325 409.123 229.78C409.643 230.17 410.422 229.845 410.747 229.39C411.072 228.806 410.812 228.156 410.357 227.767C409.708 227.312 409.058 226.857 408.344 226.468C406.98 225.753 405.811 227.766 407.11 228.481Z" fill="#95C11F"/>
</g>
<g opacity="0.61">
<path opacity="0.61" d="M409.188 220.362C409.188 220.882 409.188 221.402 409.188 221.921C409.188 223.415 411.526 223.415 411.526 221.921C411.526 221.402 411.526 220.882 411.526 220.362C411.526 218.804 409.188 218.804 409.188 220.362Z" fill="#95C11F"/>
</g>
<g opacity="0.61">
<path opacity="0.61" d="M410.422 242.055C410.552 243.224 410.487 244.328 410.162 245.497C409.772 246.991 412.045 247.575 412.435 246.147C412.76 244.848 412.89 243.484 412.76 242.055C412.695 241.405 412.24 240.886 411.591 240.886C411.006 240.886 410.357 241.405 410.422 242.055Z" fill="#95C11F"/>
</g>
<g opacity="0.61">
<path opacity="0.61" d="M408.928 239.912C409.577 239.847 410.292 239.912 410.876 240.236C411.461 240.496 412.11 240.431 412.5 239.847C412.825 239.327 412.63 238.483 412.11 238.223C410.876 237.639 409.707 237.509 408.408 237.703C407.759 237.768 407.434 238.613 407.564 239.132C407.694 239.782 408.278 240.042 408.928 239.912Z" fill="#95C11F"/>
</g>
<g opacity="0.61">
<path opacity="0.61" d="M401.524 223.61C401.589 224.779 401.654 225.883 401.719 227.052C401.784 228.546 404.122 228.546 404.057 227.052C403.992 225.883 403.927 224.779 403.862 223.61C403.797 222.116 401.459 222.116 401.524 223.61Z" fill="#95C11F"/>
</g>
<g opacity="0.61">
<path opacity="0.61" d="M406.979 252.252C406.979 253.161 406.979 254.005 406.979 254.914C406.979 256.408 409.318 256.408 409.318 254.914C409.318 254.005 409.318 253.161 409.318 252.252C409.318 250.693 406.979 250.693 406.979 252.252Z" fill="#95C11F"/>
</g>
<g opacity="0.61">
<path opacity="0.61" d="M405.811 263.682C406.071 263.682 406.46 263.877 406.72 264.137C407.824 265.176 409.513 263.487 408.409 262.448C407.694 261.799 406.85 261.409 405.876 261.344C405.226 261.279 404.707 261.929 404.707 262.513C404.642 263.228 405.161 263.617 405.811 263.682Z" fill="#95C11F"/>
</g>
<g opacity="0.61">
<path opacity="0.61" d="M389.184 194.708C389.184 196.137 389.184 197.631 389.184 199.06C389.184 200.554 391.523 200.554 391.523 199.06C391.523 197.631 391.523 196.137 391.523 194.708C391.523 193.215 389.184 193.215 389.184 194.708Z" fill="#95C11F"/>
</g>
<g opacity="0.61">
<path opacity="0.61" d="M389.379 188.603C391.003 188.798 392.431 189.708 393.471 190.942C394.445 192.111 396.069 190.422 395.159 189.253C393.73 187.499 391.652 186.46 389.444 186.2C387.885 186.07 387.885 188.409 389.379 188.603Z" fill="#95C11F"/>
</g>
<g opacity="0.61">
<path opacity="0.61" d="M383.404 174.315C384.573 174.705 385.677 175.159 386.846 175.549C388.275 176.068 388.86 173.795 387.496 173.276C386.327 172.886 385.223 172.431 384.054 172.042C382.625 171.522 382.04 173.795 383.404 174.315Z" fill="#95C11F"/>
</g>
<g opacity="0.61">
<path opacity="0.61" d="M379.183 161.91C379.183 162.624 379.053 163.209 378.663 163.794C377.884 165.092 379.962 166.261 380.677 164.963C381.196 163.988 381.521 162.949 381.521 161.845C381.521 160.351 379.183 160.351 379.183 161.91Z" fill="#95C11F"/>
</g>
<g opacity="0.61">
<path opacity="0.61" d="M365.933 152.623C368.076 153.857 370.415 154.831 372.818 155.545C374.246 155.935 374.896 153.727 373.467 153.272C371.259 152.623 369.181 151.778 367.167 150.609C365.803 149.83 364.634 151.843 365.933 152.623Z" fill="#95C11F"/>
</g>
<g opacity="0.61">
<path opacity="0.61" d="M357.62 142.296C356.905 143.14 356.516 144.179 356.646 145.284C356.711 145.933 357.165 146.453 357.815 146.453C358.399 146.453 359.049 145.933 358.984 145.284C358.919 144.764 358.984 144.309 359.243 143.92C359.633 143.4 359.698 142.751 359.243 142.231C358.854 141.906 358.009 141.776 357.62 142.296Z" fill="#95C11F"/>
</g>
<g opacity="0.61">
<path opacity="0.61" d="M341.253 137.36C342.487 137.75 343.786 138.204 345.02 138.594C346.449 139.049 347.098 136.775 345.67 136.321C344.436 135.931 343.137 135.477 341.903 135.087C340.409 134.632 339.824 136.905 341.253 137.36Z" fill="#95C11F"/>
</g>
<g opacity="0.61">
<path opacity="0.61" d="M349.501 135.022C349.631 136.061 349.696 137.1 349.826 138.139C349.891 138.789 350.346 139.308 350.995 139.308C351.58 139.308 352.229 138.789 352.164 138.139C352.034 137.1 351.969 136.061 351.839 135.022C351.774 134.373 351.32 133.853 350.67 133.853C350.086 133.788 349.436 134.373 349.501 135.022Z" fill="#95C11F"/>
</g>
<g opacity="0.61">
<path opacity="0.61" d="M323.393 139.503C324.757 140.218 326.12 140.932 327.484 141.711C328.783 142.426 330.017 140.413 328.653 139.698C327.29 138.984 325.926 138.269 324.562 137.49C323.263 136.775 322.094 138.789 323.393 139.503Z" fill="#95C11F"/>
</g>
<g opacity="0.61">
<path opacity="0.61" d="M310.209 141.906C309.689 143.01 309.039 143.985 308.195 144.764C307.091 145.803 308.78 147.492 309.884 146.453C310.858 145.478 311.702 144.374 312.287 143.075C312.547 142.491 312.482 141.841 311.897 141.452C311.313 141.192 310.468 141.322 310.209 141.906Z" fill="#95C11F"/>
</g>
<g opacity="0.61">
<path opacity="0.61" d="M293.647 145.933C294.426 146.972 295.401 147.882 296.57 148.531C297.869 149.245 299.103 147.232 297.739 146.518C296.959 146.063 296.18 145.478 295.66 144.764C295.271 144.244 294.621 143.985 294.037 144.374C293.582 144.569 293.257 145.414 293.647 145.933Z" fill="#95C11F"/>
</g>
<g opacity="0.61">
<path opacity="0.61" d="M280.917 154.766C280.398 155.48 279.878 156.195 279.359 156.974C278.969 157.494 279.294 158.273 279.748 158.598C280.333 158.922 280.982 158.663 281.372 158.208C281.892 157.494 282.411 156.779 282.931 156C283.32 155.48 282.996 154.701 282.541 154.376C281.892 153.986 281.242 154.246 280.917 154.766Z" fill="#95C11F"/>
</g>
<g opacity="0.61">
<path opacity="0.61" d="M271.24 158.663C272.019 158.598 272.734 158.728 273.448 159.117C274.747 159.897 275.916 157.818 274.617 157.104C273.578 156.519 272.409 156.195 271.24 156.325C270.591 156.39 270.071 156.844 270.071 157.494C270.071 158.078 270.591 158.728 271.24 158.663Z" fill="#95C11F"/>
</g>
<g opacity="0.61">
<path opacity="0.61" d="M262.472 161.001C262.018 162.105 261.563 163.209 261.108 164.313C260.849 164.898 260.914 165.547 261.498 165.937C262.018 166.197 262.862 166.132 263.122 165.547C263.576 164.443 264.031 163.339 264.486 162.235C264.745 161.65 264.68 161.001 264.096 160.611C263.576 160.351 262.732 160.416 262.472 161.001Z" fill="#95C11F"/>
</g>
<g opacity="0.61">
<path opacity="0.61" d="M247.599 171.003C248.184 171.068 248.833 171.392 249.353 171.782C249.872 172.172 250.652 171.847 250.976 171.392C251.301 170.808 251.041 170.158 250.587 169.769C249.742 169.119 248.703 168.794 247.664 168.665C247.015 168.6 246.495 169.249 246.495 169.834C246.43 170.548 247.015 170.938 247.599 171.003Z" fill="#95C11F"/>
</g>
<g opacity="0.61">
<path opacity="0.61" d="M238.637 179.121C237.403 181.654 236.364 184.252 235.454 186.915C235 188.344 237.273 188.993 237.728 187.564C238.507 185.096 239.481 182.693 240.65 180.355C241.365 178.926 239.286 177.757 238.637 179.121Z" fill="#95C11F"/>
</g>
<g opacity="0.61">
<path opacity="0.61" d="M229.089 184.122C229.154 184.122 229.219 184.122 229.349 184.122C230.843 184.122 230.843 181.784 229.349 181.784C229.284 181.784 229.219 181.784 229.089 181.784C227.596 181.784 227.596 184.122 229.089 184.122Z" fill="#95C11F"/>
</g>
<g opacity="0.61">
<path opacity="0.61" d="M243.313 176.133C243.638 176.198 243.962 176.263 244.222 176.393C245.716 176.783 246.301 174.51 244.872 174.12C244.547 174.055 244.222 173.99 243.962 173.86C242.469 173.471 241.884 175.744 243.313 176.133Z" fill="#95C11F"/>
</g>
<g opacity="0.61">
<path opacity="0.61" d="M286.568 148.986C287.477 148.986 288.451 148.986 289.36 148.986C290.854 148.986 290.854 146.647 289.36 146.647C288.451 146.647 287.477 146.647 286.568 146.647C285.009 146.647 285.009 148.986 286.568 148.986Z" fill="#95C11F"/>
</g>
<g opacity="0.61">
<path opacity="0.61" d="M335.538 127.683C335.668 128.852 335.408 129.891 334.758 130.865C333.914 132.099 335.927 133.268 336.772 132.034C337.616 130.735 338.006 129.242 337.876 127.683C337.811 127.033 337.356 126.514 336.707 126.514C336.122 126.449 335.473 127.033 335.538 127.683Z" fill="#95C11F"/>
</g>
<g opacity="0.61">
<path opacity="0.61" d="M176.157 237.249C174.988 239.132 173.819 241.016 172.65 242.834C171.871 244.133 173.884 245.302 174.664 244.003C175.833 242.12 177.002 240.236 178.171 238.418C178.95 237.184 176.937 235.95 176.157 237.249Z" fill="#95C11F"/>
</g>
<g opacity="0.61">
<path opacity="0.61" d="M167.13 253.226C168.039 253.615 169.013 254.07 169.922 254.46C170.507 254.72 171.156 254.655 171.546 254.07C171.806 253.551 171.676 252.706 171.156 252.446C170.247 252.057 169.273 251.602 168.364 251.212C167.779 250.953 167.13 251.018 166.74 251.602C166.415 252.122 166.545 252.966 167.13 253.226Z" fill="#95C11F"/>
</g>
<g opacity="0.61">
<path opacity="0.61" d="M183.951 244.458C182.912 245.952 181.873 247.38 180.834 248.874C179.989 250.108 182.003 251.277 182.847 250.043C183.886 248.55 184.925 247.121 185.964 245.627C186.809 244.393 184.795 243.224 183.951 244.458Z" fill="#95C11F"/>
</g>
<g opacity="0.61">
<path opacity="0.61" d="M169.403 266.215C170.312 267.384 171.221 268.553 172.131 269.722C172.52 270.242 173.365 270.112 173.819 269.722C174.339 269.203 174.209 268.553 173.819 268.034C172.91 266.865 172.001 265.696 171.091 264.527C170.702 264.007 169.857 264.137 169.403 264.527C168.948 265.046 169.013 265.696 169.403 266.215Z" fill="#95C11F"/>
</g>
<g opacity="0.61">
<path opacity="0.61" d="M178.236 260.695C178.041 261.539 177.781 262.383 177.586 263.163C177.197 264.592 179.47 265.241 179.859 263.812C180.054 262.968 180.314 262.124 180.509 261.344C180.899 259.85 178.625 259.201 178.236 260.695Z" fill="#95C11F"/>
</g>
<g opacity="0.61">
<path opacity="0.61" d="M170.442 287.193C170.637 287.583 170.832 288.037 171.092 288.427C171.352 289.012 172.196 289.142 172.715 288.817C173.3 288.492 173.43 287.778 173.105 287.193C172.91 286.803 172.715 286.349 172.456 285.959C172.196 285.375 171.352 285.245 170.832 285.569C170.312 285.959 170.182 286.674 170.442 287.193Z" fill="#95C11F"/>
</g>
<g opacity="0.61">
<path opacity="0.61" d="M178.561 293.818C178.885 294.662 179.145 295.506 179.47 296.351C179.665 296.935 180.249 297.325 180.899 297.195C181.483 297.065 181.938 296.351 181.743 295.766C181.418 294.922 181.158 294.078 180.834 293.233C180.639 292.649 180.054 292.259 179.405 292.389C178.755 292.519 178.301 293.168 178.561 293.818Z" fill="#95C11F"/>
</g>
<g opacity="0.61">
<path opacity="0.61" d="M178.365 283.621C179.275 283.751 180.249 283.881 181.158 284.011C181.808 284.076 182.392 283.881 182.587 283.167C182.717 282.647 182.392 281.803 181.743 281.738C180.833 281.608 179.859 281.478 178.95 281.348C178.3 281.283 177.716 281.478 177.521 282.192C177.391 282.712 177.781 283.556 178.365 283.621Z" fill="#95C11F"/>
</g>
<g opacity="0.61">
<path opacity="0.61" d="M177.846 310.379C177.846 311.289 177.846 312.263 177.846 313.172C177.846 314.666 180.184 314.666 180.184 313.172C180.184 312.263 180.184 311.289 180.184 310.379C180.184 308.886 177.846 308.886 177.846 310.379Z" fill="#95C11F"/>
</g>
<g opacity="0.61">
<path opacity="0.61" d="M172.131 305.898C172.585 305.833 173.04 305.833 173.429 306.028C174.014 306.288 174.663 306.158 175.053 305.638C175.378 305.119 175.183 304.274 174.663 304.014C173.689 303.56 172.65 303.43 171.546 303.625C170.897 303.755 170.572 304.469 170.702 305.054C170.897 305.703 171.481 306.028 172.131 305.898Z" fill="#95C11F"/>
</g>
<g opacity="0.61">
<path opacity="0.61" d="M185.51 315.64C185.64 315.9 185.705 316.289 185.705 316.614C185.64 317.264 185.835 317.848 186.549 318.043C187.069 318.173 187.913 317.848 187.978 317.199C188.108 316.225 187.978 315.315 187.588 314.406C187.328 313.821 186.484 313.692 185.964 314.016C185.315 314.406 185.25 315.056 185.51 315.64Z" fill="#95C11F"/>
</g>
<g opacity="0.61">
<path opacity="0.61" d="M193.693 314.341C194.083 314.471 194.538 314.536 194.927 314.666C196.421 315.056 197.006 312.782 195.577 312.393C195.187 312.263 194.732 312.198 194.343 312.068C192.849 311.678 192.2 313.951 193.693 314.341Z" fill="#95C11F"/>
</g>
<g opacity="0.61">
<path opacity="0.61" d="M204.734 313.172C204.734 314.081 204.734 315.056 204.734 315.965C204.734 317.459 207.072 317.459 207.072 315.965C207.072 315.056 207.072 314.081 207.072 313.172C207.072 311.678 204.734 311.678 204.734 313.172Z" fill="#95C11F"/>
</g>
<g opacity="0.61">
<path opacity="0.61" d="M180.964 229.715C180.964 230.429 180.964 231.144 180.964 231.923C180.964 233.417 183.302 233.417 183.302 231.923C183.302 231.209 183.302 230.494 183.302 229.715C183.302 228.221 180.964 228.221 180.964 229.715Z" fill="#95C11F"/>
</g>
<g opacity="0.61">
<path opacity="0.61" d="M187.783 222.116C187.978 222.116 188.173 222.116 188.432 222.116C189.926 222.116 189.926 219.778 188.432 219.778C188.237 219.778 188.043 219.778 187.783 219.778C186.224 219.778 186.224 222.116 187.783 222.116Z" fill="#95C11F"/>
</g>
<g opacity="0.61">
<path opacity="0.61" d="M192.849 213.478C192.849 214.128 192.849 214.712 192.849 215.362C192.849 216.855 195.187 216.855 195.187 215.362C195.187 214.712 195.187 214.128 195.187 213.478C195.187 211.984 192.849 211.919 192.849 213.478Z" fill="#95C11F"/>
</g>
<path d="M234.285 207.828C234.025 208.412 233.766 208.997 233.506 209.516C233.246 210.101 233.311 210.75 233.896 211.14C234.415 211.465 235.259 211.27 235.519 210.75C235.779 210.166 236.039 209.581 236.299 209.062C236.558 208.477 236.493 207.828 235.909 207.438C235.389 207.113 234.545 207.243 234.285 207.828Z" fill="#95C11F"/>
<path d="M230.453 215.232C230.843 215.297 231.103 215.492 231.298 215.816C231.622 216.336 232.337 216.596 232.921 216.206C233.441 215.881 233.701 215.102 233.311 214.582C232.791 213.803 232.012 213.153 231.038 212.959C229.609 212.569 228.959 214.842 230.453 215.232Z" fill="#95C11F"/>
<path d="M227.531 218.934C227.141 219.908 226.751 220.817 226.362 221.791C226.102 222.376 226.621 223.09 227.206 223.22C227.855 223.415 228.375 222.96 228.635 222.376C229.025 221.402 229.414 220.492 229.804 219.518C230.064 218.934 229.544 218.219 228.96 218.089C228.31 217.894 227.791 218.349 227.531 218.934Z" fill="#95C11F"/>
<path d="M223.764 225.753C224.154 226.467 224.673 226.987 225.258 227.442C225.777 227.831 226.557 227.507 226.881 227.052C227.206 226.467 226.946 225.818 226.492 225.428C226.167 225.233 225.972 224.909 225.842 224.584C225.063 223.285 223.049 224.454 223.764 225.753Z" fill="#95C11F"/>
<path d="M233.246 198.281C233.246 198.8 233.246 199.32 233.311 199.839C233.376 200.489 233.766 201.008 234.48 201.008C235.064 201.008 235.714 200.489 235.649 199.839C235.584 199.32 235.584 198.8 235.584 198.281C235.584 196.787 233.246 196.787 233.246 198.281Z" fill="#95C11F"/>
<path d="M233.766 205.814C234.155 205.814 234.61 205.814 235 205.814C236.494 205.814 236.494 203.476 235 203.476C234.61 203.476 234.155 203.476 233.766 203.476C232.272 203.411 232.272 205.814 233.766 205.814Z" fill="#95C11F"/>
<path d="M364.309 266.735C364.244 267.06 364.114 267.384 363.92 267.644C363.53 268.164 363.465 268.813 363.92 269.333C364.309 269.722 365.154 269.852 365.608 269.333C366.063 268.748 366.453 268.164 366.582 267.384C366.907 265.891 364.634 265.241 364.309 266.735Z" fill="#95C11F"/>
<path d="M366.712 263.747C367.037 263.812 367.492 264.007 367.752 264.332C368.791 265.436 370.479 263.747 369.44 262.643C368.726 261.864 367.752 261.474 366.712 261.344C366.063 261.279 365.543 261.929 365.543 262.513C365.543 263.228 366.063 263.682 366.712 263.747Z" fill="#95C11F"/>
<path d="M369.376 253.681C369.246 254.2 369.116 254.785 368.921 255.304C368.531 256.733 370.805 257.383 371.194 255.954C371.324 255.434 371.454 254.85 371.649 254.33C371.974 252.901 369.765 252.252 369.376 253.681Z" fill="#95C11F"/>
<path d="M374.766 248.42C375.87 248.225 376.909 247.705 377.753 246.991C378.208 246.601 378.208 245.757 377.753 245.302C377.299 244.848 376.584 244.913 376.065 245.302C375.48 245.757 374.831 246.017 374.116 246.147C373.467 246.212 373.142 247.056 373.272 247.575C373.532 248.29 374.181 248.485 374.766 248.42Z" fill="#95C11F"/>
<path d="M377.364 237.249C376.585 238.158 375.805 239.067 375.091 240.107C374.701 240.626 375.026 241.405 375.48 241.73C376.065 242.055 376.714 241.795 377.104 241.34C377.689 240.496 378.338 239.717 378.988 239.002C380.027 237.768 378.403 236.145 377.364 237.249Z" fill="#95C11F"/>
<path d="M374.896 232.443C375.416 232.962 376 233.352 376.65 233.677C377.234 233.936 377.884 233.871 378.274 233.287C378.598 232.767 378.403 231.923 377.884 231.663C377.364 231.468 376.975 231.209 376.585 230.819C375.481 229.78 373.857 231.404 374.896 232.443Z" fill="#95C11F"/>
<path d="M370.869 226.857C370.674 227.312 370.674 227.831 370.739 228.286C370.804 228.936 371.649 229.26 372.168 229.13C372.818 228.936 373.077 228.286 373.012 227.702C373.012 227.896 373.077 227.572 373.142 227.507C373.402 226.922 372.883 226.208 372.298 226.078C371.649 225.883 371.129 226.273 370.869 226.857Z" fill="#95C11F"/>
<path d="M468.29 133.593C450.494 130.995 423.866 124.501 414.643 145.608C404.187 169.509 426.139 192.565 426.074 216.336C426.074 217.245 427.503 217.245 427.503 216.336C427.568 194.124 409.383 174.445 414.124 152.038C419.644 125.864 448.676 132.099 467.965 134.957C468.809 135.087 469.199 133.723 468.29 133.593Z" fill="#03C4A1"/>
<path d="M469.134 140.542C454.261 138.204 428.088 134.307 420.554 152.038C417.306 159.702 418.995 167.82 422.112 175.159C426.139 184.577 428.802 193.669 430.75 203.671C430.945 204.58 432.309 204.191 432.114 203.281C430.75 196.267 429.386 189.383 426.854 182.693C423.736 174.51 419.255 167.106 420.489 158.013C423.476 135.671 453.027 139.438 468.809 141.906C469.654 142.036 470.043 140.672 469.134 140.542Z" fill="#03C4A1"/>
<path d="M438.025 148.466C431.595 149.18 426.594 154.896 426.983 161.455C427.048 162.365 428.412 162.365 428.412 161.455C428.088 155.74 432.374 150.544 438.089 149.895C438.869 149.765 438.869 148.336 438.025 148.466Z" fill="#03C4A1"/>
<path d="M625.982 223.805C617.993 222.831 610.265 224 608.706 233.157C607.991 237.379 608.771 241.665 608.446 245.887C607.797 254.85 601.237 256.928 593.313 256.928C592.404 256.928 592.404 258.357 593.313 258.357C601.367 258.357 608.446 256.408 609.68 247.381C610.329 242.575 609.095 237.703 610.135 232.897C611.823 224.779 619.162 224.389 625.982 225.234C626.826 225.299 626.826 223.935 625.982 223.805Z" fill="#03C4A1"/>
<path d="M621.306 218.479C614.421 218.024 605.848 218.349 601.627 224.909C600.003 227.442 599.678 230.494 599.549 233.417C599.419 235.69 599.549 238.093 598.964 240.236C597.86 244.458 594.807 246.082 591.04 247.446C590.196 247.77 590.586 249.134 591.43 248.809C597.665 246.536 600.393 243.289 600.848 236.664C601.172 231.988 600.783 227.117 604.55 223.61C609.031 219.388 615.591 219.518 621.306 219.843C622.215 219.908 622.215 218.479 621.306 218.479Z" fill="#03C4A1"/>
<path d="M575.842 275.633C574.479 281.023 573.764 287.193 578.375 291.22C579.09 291.804 580.064 290.83 579.35 290.246C575.063 286.544 575.907 280.958 577.141 276.022C577.401 275.113 576.037 274.723 575.842 275.633Z" fill="#03C4A1"/>
<path d="M568.309 276.152C567.399 279.919 567.919 283.751 569.867 287.063C570.322 287.843 571.556 287.128 571.101 286.349C569.348 283.296 568.828 279.919 569.673 276.477C569.867 275.633 568.569 275.308 568.309 276.152Z" fill="#03C4A1"/>
<path d="M579.674 307.652C564.996 298.884 549.734 293.623 532.458 296.611C517.325 299.208 503.946 307.846 494.723 319.992C494.204 320.706 495.373 321.42 495.957 320.706C504.985 308.886 518.169 300.572 532.847 297.974C549.734 295.052 564.671 300.313 579.025 308.821C579.739 309.34 580.454 308.106 579.674 307.652Z" fill="#03C4A1"/>
<path d="M561.489 291.61C540.706 282.842 516.026 287.323 499.53 302.716C498.88 303.365 499.854 304.339 500.504 303.69C516.611 288.622 540.771 284.401 561.1 292.974C561.944 293.298 562.334 291.934 561.489 291.61Z" fill="#03C4A1"/>
<path d="M421.333 262.513C420.749 269.657 416.852 276.672 413.864 283.037C410.812 289.466 407.305 295.636 402.564 300.962C393.991 310.704 382.495 317.329 369.83 320.251C368.921 320.446 369.311 321.81 370.22 321.615C383.534 318.563 395.744 311.419 404.512 300.832C409.188 295.247 412.695 288.817 415.748 282.257C418.605 276.087 422.178 269.398 422.697 262.513C422.827 261.604 421.398 261.669 421.333 262.513Z" fill="#03C4A1"/>
<path d="M368.433 186.364C369.017 184.871 369.342 183.182 369.147 181.363C368.628 176.297 364.406 172.271 359.34 172.011C353.3 171.686 348.234 176.492 348.234 182.467C348.234 183.701 348.429 184.806 348.819 185.91V185.975C348.819 186.04 348.884 186.105 348.884 186.169L355.703 205.199C356.353 207.018 358.885 207.082 359.665 205.394L367.978 187.339C368.173 186.949 368.303 186.689 368.433 186.364Z" fill="#E75858"/>
<path d="M365.38 182.597C365.38 186.299 362.393 189.287 358.691 189.287C354.989 189.287 352.001 186.299 352.001 182.597C352.001 178.895 354.989 175.908 358.691 175.908C362.393 175.908 365.38 178.895 365.38 182.597Z" fill="white"/>
<path d="M642.199 249.369C642.783 247.875 643.108 246.186 642.913 244.368C642.393 239.302 638.172 235.275 633.106 235.016C627.066 234.691 622 239.497 622 245.472C622 246.706 622.195 247.81 622.585 248.914V248.979C622.585 249.044 622.649 249.109 622.649 249.174L629.469 268.204C630.118 270.022 632.651 270.087 633.431 268.398L641.744 250.343C641.939 249.953 642.069 249.694 642.199 249.369Z" fill="#E75858"/>
<path d="M639.146 245.602C639.146 249.304 636.158 252.291 632.456 252.291C628.754 252.291 625.767 249.304 625.767 245.602C625.767 241.9 628.754 238.912 632.456 238.912C636.158 238.912 639.146 241.9 639.146 245.602Z" fill="white"/>
<path d="M213.502 226.229C214.152 224.605 214.412 222.851 214.217 220.968C213.697 215.642 209.216 211.356 203.89 211.096C197.46 210.706 192.2 215.837 192.2 222.137C192.2 223.436 192.394 224.605 192.784 225.774V225.839C192.784 225.904 192.849 225.969 192.849 226.034L200.058 246.102C200.773 247.986 203.371 248.116 204.215 246.297L212.983 227.203C213.242 226.878 213.372 226.618 213.502 226.229Z" fill="#E75858"/>
<path d="M210.32 222.267C210.32 226.164 207.138 229.346 203.241 229.346C199.344 229.346 196.161 226.164 196.161 222.267C196.161 218.37 199.344 215.188 203.241 215.188C207.138 215.188 210.32 218.37 210.32 222.267Z" fill="white"/>
<circle cx="256" cy="240" r="7" fill="white"/>
<circle cx="470.5" cy="204.5" r="5.5" fill="white"/>
<circle cx="568" cy="278" r="10" fill="white"/>
<circle cx="569" cy="197" r="7" fill="white"/>
<defs>
<linearGradient id="paint0_linear_1414_370" x1="129.991" y1="123.451" x2="129.991" y2="361.544" gradientUnits="userSpaceOnUse">
<stop stop-color="white"/>
<stop offset="1" stop-color="white" stop-opacity="0"/>
</linearGradient>
<linearGradient id="paint1_linear_1414_370" x1="629.991" y1="121.451" x2="629.991" y2="359.544" gradientUnits="userSpaceOnUse">
<stop stop-color="white"/>
<stop offset="1" stop-color="white" stop-opacity="0"/>
</linearGradient>
<linearGradient id="paint2_linear_1414_370" x1="651.991" y1="20.451" x2="665.029" y2="170.342" gradientUnits="userSpaceOnUse">
<stop stop-color="white"/>
<stop offset="1" stop-color="white" stop-opacity="0"/>
</linearGradient>
<linearGradient id="paint3_linear_1414_370" x1="206.009" y1="35.451" x2="219.777" y2="188.61" gradientUnits="userSpaceOnUse">
<stop stop-color="white"/>
<stop offset="1" stop-color="white" stop-opacity="0"/>
</linearGradient>
</defs>
</svg>
