<svg width="185" height="65" viewBox="0 0 185 65" fill="none" xmlns="http://www.w3.org/2000/svg">
<path d="M168.215 54.4513L18.3348 62.2875C9.84149 62.7228 2.69629 55.9918 2.69629 47.5193V17.4472C2.69629 9.30963 9.36964 2.67903 17.5597 2.67903H167.407C175.63 2.67903 182.27 9.30963 182.27 17.4472V39.6832C182.304 47.5528 176.102 54.0495 168.215 54.4513Z" fill="url(#paint0_linear_1403_3228)"/>
<path d="M167.44 2.67903C175.664 2.67903 182.304 9.30963 182.304 17.4472V39.6831C182.304 47.5528 176.102 54.016 168.216 54.4513L18.3349 62.2875C18.0652 62.2875 17.7956 62.321 17.526 62.321C9.40335 62.321 2.6963 55.7238 2.6963 47.5193V17.4472C2.6963 9.30963 9.36965 2.67903 17.5597 2.67903H167.44ZM167.44 0H17.5597C7.88668 0 0 7.83616 0 17.4472V47.5193C0 57.1303 7.88668 64.9665 17.5597 64.9665C17.863 64.9665 18.2 64.9665 18.5034 64.933L168.35 57.0969C177.686 56.5945 185 48.9593 185 39.6497V17.4472C185 7.83616 177.113 0 167.44 0Z" fill="white"/>
<path opacity="0.1" d="M123.356 37.5064C75.0583 37.5064 32.0186 27.2257 4.11185 11.2184C3.20185 13.0938 2.69629 15.2035 2.69629 17.4472V47.5193C2.69629 55.9918 9.84149 62.7228 18.3685 62.2875L168.215 54.4513C176.102 54.0495 182.304 47.5528 182.304 39.6832V32.0814C164.171 35.5641 144.252 37.5064 123.356 37.5064Z" fill="black"/>
<path d="M56.9256 41.4915C56.656 41.5585 56.1841 41.6589 55.5775 41.7259C54.9708 41.7929 54.3641 41.8264 53.7574 41.8264C53.1508 41.8264 52.6452 41.7929 52.1734 41.6924C51.7352 41.592 51.3308 41.4245 51.0274 41.2236C50.7241 40.9892 50.4882 40.6543 50.3197 40.2524C50.1511 39.8506 50.0837 39.3148 50.0837 38.645V20.3941C50.0837 19.8583 50.2186 19.423 50.5219 19.1216C50.8252 18.8202 51.2297 18.5858 51.7352 18.4183C52.6115 18.1169 53.6226 17.8825 54.7349 17.7486C55.8471 17.6146 56.993 17.5477 58.1389 17.5477C61.7115 17.5477 64.4415 18.3179 66.3627 19.8248C68.2501 21.3318 69.1938 23.408 69.1938 26.0201C69.1938 27.2926 68.9916 28.4312 68.5871 29.4359C68.1827 30.4405 67.576 31.3447 66.8008 32.0479C66.0256 32.7846 65.0145 33.3539 63.8012 33.7558C62.5878 34.1576 61.206 34.3586 59.6219 34.3586H56.8582V41.4915H56.9256ZM58.9478 29.0675C60.0263 29.0675 60.8689 28.7996 61.4419 28.3308C62.0149 27.8619 62.3182 27.0582 62.3182 26.0201C62.3182 25.0489 62.0149 24.2787 61.4082 23.7429C60.8015 23.2071 59.9252 22.9392 58.7456 22.9392C58.3412 22.9392 58.0041 22.9392 57.7008 22.9727C57.4312 22.9727 57.1615 23.0062 56.8582 23.0732V29.0675H58.9478Z" fill="white"/>
<path d="M76.339 41.7594C75.2268 41.7594 74.3505 41.4245 73.6764 40.7882C73.036 40.152 72.699 39.2813 72.699 38.1427V18.1839C72.9686 18.1169 73.4405 18.05 74.0471 17.983C74.6538 17.8825 75.2605 17.849 75.8334 17.849C76.4401 17.849 76.9456 17.8825 77.4175 17.983C77.8557 18.0835 78.2601 18.2509 78.5634 18.4518C78.8668 18.6862 79.1027 19.0211 79.2712 19.423C79.4397 19.8248 79.5071 20.3606 79.5071 21.0304V36.3009H88.4049C88.5734 36.5688 88.742 36.9706 88.9105 37.4395C89.079 37.9083 89.1464 38.4106 89.1464 38.9129C89.1464 39.9511 88.9105 40.6878 88.4723 41.0896C88.0342 41.525 87.4612 41.7259 86.7197 41.7259H76.339V41.7594Z" fill="white"/>
<path d="M98.1116 18.8872C98.5497 18.6193 99.2238 18.3848 100.1 18.1504C101.01 17.916 101.886 17.8156 102.796 17.8156C104.077 17.8156 105.257 18.0165 106.234 18.3848C107.245 18.7532 107.886 19.356 108.155 20.1597C108.627 21.4992 109.133 23.0731 109.672 24.848C110.211 26.6229 110.75 28.4647 111.323 30.3735C111.863 32.2823 112.402 34.1242 112.908 35.966C113.413 37.8078 113.885 39.4487 114.256 40.8552C113.952 41.2236 113.48 41.4915 112.84 41.7259C112.233 41.9603 111.492 42.0608 110.616 42.0608C110.009 42.0608 109.47 41.9938 109.032 41.8933C108.593 41.7929 108.256 41.6254 107.987 41.4245C107.717 41.2236 107.481 40.9557 107.313 40.6208C107.144 40.2859 107.009 39.8841 106.875 39.4487L106.167 36.7697H99.1227C98.9205 37.5399 98.7182 38.3436 98.516 39.1808C98.3138 40.018 98.1116 40.7882 97.9094 41.592C97.5386 41.7259 97.1679 41.8264 96.7634 41.9268C96.359 42.0273 95.8871 42.0608 95.3142 42.0608C93.9997 42.0608 93.0223 41.8264 92.3819 41.391C91.7416 40.9557 91.4382 40.3194 91.4382 39.5157C91.4382 39.1473 91.5056 38.779 91.6068 38.4441C91.7079 38.0757 91.8427 37.6739 91.9438 37.1716C92.1123 36.4683 92.3819 35.5976 92.6853 34.593C93.0223 33.5549 93.3594 32.4498 93.7638 31.2442C94.1682 30.0386 94.5727 28.7996 95.0108 27.5605C95.449 26.288 95.8534 25.1159 96.2579 23.9773C96.6623 22.8722 96.9994 21.8676 97.3364 20.9969C97.6734 20.0258 97.9094 19.356 98.1116 18.8872ZM102.763 23.8769C102.392 24.9485 101.988 26.154 101.549 27.4936C101.111 28.8331 100.673 30.1726 100.336 31.5456H105.156C104.785 30.1391 104.414 28.7996 104.043 27.4601C103.673 26.1205 103.336 24.9485 102.999 23.8769H102.763Z" fill="white"/>
<path d="M128.108 41.4915C127.838 41.5585 127.367 41.6589 126.794 41.7259C126.187 41.7929 125.614 41.8264 125.041 41.8264C123.861 41.8264 122.951 41.6254 122.345 41.2236C121.738 40.8217 121.435 39.9845 121.435 38.6785V33.4879C120.794 32.5502 120.086 31.4786 119.345 30.3065C118.604 29.1345 117.862 27.9624 117.121 26.7568C116.379 25.5513 115.705 24.3457 115.098 23.1736C114.492 22.0015 113.986 20.9299 113.582 19.9588C113.919 19.4899 114.391 19.0546 114.964 18.6862C115.536 18.2844 116.278 18.1169 117.121 18.1169C118.132 18.1169 118.941 18.3179 119.581 18.7197C120.221 19.1216 120.828 19.8918 121.401 21.0304L124.636 27.4936H124.872C125.243 26.6898 125.546 25.9531 125.816 25.3168C126.086 24.6471 126.355 24.0108 126.625 23.3411C126.895 22.6713 127.164 22.0015 127.434 21.2983C127.704 20.595 128.041 19.7579 128.411 18.8537C128.883 18.6193 129.389 18.4518 129.962 18.3179C130.535 18.1839 131.074 18.1169 131.579 18.1169C132.489 18.1169 133.265 18.3514 133.905 18.8202C134.545 19.289 134.849 20.0258 134.849 20.9634C134.849 21.2648 134.781 21.6332 134.647 22.0685C134.512 22.5039 134.208 23.1736 133.737 24.0443C133.265 24.9485 132.591 26.154 131.681 27.661C130.771 29.1679 129.557 31.1772 128.041 33.6218V41.4915H128.108Z" fill="white"/>
<defs>
<linearGradient id="paint0_linear_1403_3228" x1="92.4986" y1="62.3054" x2="92.4986" y2="2.67903" gradientUnits="userSpaceOnUse">
<stop stop-color="#F29E4C"/>
</linearGradient>
</defs>
</svg>
