<svg xmlns="http://www.w3.org/2000/svg" xmlns:xlink="http://www.w3.org/1999/xlink" preserveAspectRatio="xMinYMax meet" viewBox="0 0 1868 485.9"><style><![CDATA[.E{fill:#4c4c4c}.F{fill:#fefeff}.G{fill:#e75858}.H{opacity:.44}]]></style><defs><linearGradient id="A" x1="216.7" y1="358.4" x2="216.7" y2="866.4" gradientUnits="userSpaceOnUse"><stop offset="0" stop-color="#fff"/><stop offset="1" stop-color="#fff" stop-opacity="0"/></linearGradient><linearGradient id="B" x1="1146.7" y1="422.4" x2="1146.7" y2="930.4" xlink:href="#A"/><linearGradient id="C" x1="1123.8" y1="193.7" x2="1175.5" y2="597.6" gradientUnits="userSpaceOnUse"><stop offset="0" stop-color="#fff"/><stop offset=".1" stop-color="#fff" stop-opacity=".9"/><stop offset=".3" stop-color="#fff" stop-opacity=".8"/><stop offset=".5" stop-color="#fff" stop-opacity=".6"/><stop offset=".9" stop-color="#fff" stop-opacity=".1"/><stop offset="1" stop-color="#fff" stop-opacity="0"/></linearGradient><linearGradient id="D" x1="201.3" y1="170.2" x2="228.8" y2="497.3" xlink:href="#A"/><path id="E" d="M857 187.7v8.5c0 4.5 7.1 4.5 7.1 0v-8.5c0-4.5-7-4.5-7 0z"/><path id="F" d="M838.2 173.7v6.5c0 4.6 7 4.6 7 0v-6.5c0-4.6-7-4.6-7 0z"/><clipPath id="G" transform="translate(239.8 -267)"><path d="M-95-35.6h1579.3v803.2H-95z" fill="none"/></clipPath></defs><g transform="translate(239.8 -267)"><path d="M553.2 648.3a119 119 0 0 0-62.2 17.5 241.4 241.4 0 0 0-452.6-74 186.7 186.7 0 0 0-90.4-23A187.9 187.9 0 0 0-239.5 768h912.7c0-66.1-53.8-119.7-120-119.7z" fill="url(#A)" class="H"/><path d="M1483.2 712.3a119.1 119.1 0 0 0-62.2 17.5 241.4 241.4 0 0 0-452.6-74 186.8 186.8 0 0 0-90.4-23A187.9 187.9 0 0 0 690.5 832h912.7c0-66.1-53.8-119.7-120-119.7z" fill="url(#B)" class="H"/><path d="M1508.2 453.3a119.1 119.1 0 0 0-62.2 17.5 241.4 241.4 0 0 0-452.6-74 186.8 186.8 0 0 0-90.4-23A187.9 187.9 0 0 0 715.5 573h912.7c0-66.1-53.8-119.7-120-119.7z" fill="url(#C)" class="H"/><path d="M-101.9 457.3a119 119 0 0 1 62.2 17.5 241.4 241.4 0 0 1 452.7-74 186.8 186.8 0 0 1 90.4-23A187.9 187.9 0 0 1 690.9 577h-912.7c0-66.1 53.7-119.7 119.9-119.7z" fill="url(#D)" class="H"/></g><g clip-path="url(#G)"><ellipse cx="923.7" cy="1026.8" rx="862.1" ry="859.1" fill="#00a19a"/><path d="M644.5 1821.4c-23.4-38.7-41.4-93-41.4-160.9 0-212.6 21.7-342-74.2-409.8s-52.6-101-65-204.6S156.7 982.7 190.8 579c0 0 218-447.1 819.6-408.1 0 0-174.4 2.4-76.2 238.5 87.2 209.9-74.8 391.3-376.8 310.7-203.2-54.3-352.3 224.2 95.2 231.6 306.3 5.1 501.2 172.6 321.8 388.3s-256.8 388.3-225.9 508.5m1023-979s-154.3 32.2-280.3-86.9c-93.7-88.5-244-64.3-307 41.9s11.3 239.8 147 265.6 177 174.7 132.5 320.3c-35.7 117 54.4 241.8 54.4 241.8s340.7-304.6 253.4-782.6zm-159.4-358.7s-47.3-12-61.9 31.3 23 43-60.7 91.2c-57.4 33 17.4 114.2 63.6 60.5s118.2-8.2 103.9 57.4c-7.2 33 45.6 71.2 99.3 58 0 0-44-173.9-144.2-298.4z" fill="#b9e769"/><path d="M1581.3 487.1v3.9c0 4.5 7 4.5 7 0v-3.9c0-4.5-7-4.5-7 0zm-16 13h-.6a3.6 3.6 0 0 0 4.8-1.4 3.5 3.5 0 0 0-1.3-4.8 7.2 7.2 0 0 0-4.8-.6 3.5 3.5 0 0 0-2.5 4.3 3.6 3.6 0 0 0 4.3 2.5zm.2-25.9a79.6 79.6 0 0 0-.9 11.9c0 4.5 7.1 4.5 7 0a67.9 67.9 0 0 1 .8-10c.2-1.9-.5-3.8-2.5-4.3-1.7-.5-4 .5-4.4 2.4zm-29.1-17v14.5c0 4.5 7 4.5 7 0v-14.5c0-4.5-7-4.5-7 0zm6.6 28.9a34.4 34.4 0 0 0 7.3 3.7c1.8.7 3.9-.8 4.4-2.5a3.6 3.6 0 0 0-2.5-4.3 26.8 26.8 0 0 1-5.6-3 3.5 3.5 0 1 0-3.6 6zm9-18v7.4c0 4.6 7 4.6 7 0v-7.4c0-4.5-7-4.5-7 0zm-7.6 50.9a67.2 67.2 0 0 0-3.7 12.3c-1 4.4 5.9 6.3 6.8 1.8a66.6 66.6 0 0 1 3.7-12.2c.7-1.8-.8-3.9-2.5-4.4-2-.5-3.6.7-4.3 2.5zm8.9-6.9 5.7 3.4c3.9 2.4 7.5-3.7 3.6-6l-5.8-3.5c-3.9-2.3-7.4 3.7-3.5 6zm-23.2 35.4-1.3 7a3.6 3.6 0 0 0 2.4 4.4c1.8.4 4-.6 4.4-2.5l1.3-7a3.6 3.6 0 0 0-2.5-4.4c-1.7-.5-4 .6-4.3 2.5zm-3.3 27.2q3.5 1.4 6.7 3.2c4 2.2 7.6-3.9 3.6-6l-6.7-3.3a3.7 3.7 0 0 0-4.8 1.3c-1 1.4-.5 4 1.2 4.8zm-4.4 10.5a72.7 72.7 0 0 1-5 12.5c-2 4 4 7.6 6.1 3.6a81.9 81.9 0 0 0 5.7-14.3c1.3-4.3-5.5-6.2-6.8-1.8zm-30.6 29.4a46.8 46.8 0 0 1 8.3 4.7c1.5 1.1 4 .3 4.8-1.3a3.6 3.6 0 0 0-1.2-4.8 46.5 46.5 0 0 0-8.3-4.7 3.7 3.7 0 0 0-4.8 1.3c-1 1.5-.5 4 1.2 4.8zm-31-2.8v9.2c0 4.5 7 4.5 7 0v-9.2c0-4.5-7-4.5-7 0zM1449 594a11.7 11.7 0 0 1 5 1.4 3.6 3.6 0 0 0 4.8-1.3 3.6 3.6 0 0 0-1.3-4.8 20 20 0 0 0-8.5-2.3 3.5 3.5 0 1 0 0 7zm6.8 43.8-1 8.8c-.3 1.9 1.7 3.5 3.5 3.5 2 0 3.3-1.6 3.5-3.5l1.1-8.8c.2-2-1.8-3.5-3.5-3.5-2.1 0-3.3 1.6-3.6 3.5zm-30-16.6a26 26 0 0 1 8.2 1.4c4.3 1.4 6.1-5.4 1.8-6.8a32 32 0 0 0-10-1.7c-4.6 0-4.6 7 0 7zm20.4 35a59 59 0 0 0-2.4 14.7c-.2 4.5 6.9 4.5 7 0a50.8 50.8 0 0 1 2.2-12.9c1.3-4.3-5.5-6.2-6.8-1.8zm-25-1.7q9 1.1 18 2.6c4.5.7 6.4-6.1 2-6.8q-10-1.6-20-2.8c-4.6-.6-4.5 6.4 0 7zm18.7-24.1a31.7 31.7 0 0 1-.7 5.7 3.5 3.5 0 1 0 6.8 1.9 41.5 41.5 0 0 0 1-7.6c0-4.6-7-4.6-7.1 0zm15.8 50.3v7c0 4.5 7 4.6 7 0v-7c0-4.5-7-4.5-7 0zm-18.6 22.4q4.9 1.8 9.9 3.3c4.4 1.2 6.2-5.6 1.9-6.8q-5-1.5-9.9-3.3c-1.8-.7-3.8.7-4.3 2.4a3.6 3.6 0 0 0 2.4 4.4zm-7.2-28.4a6 6 0 0 1-.1 2.6c-1.3 4.4 5.5 6.3 6.8 1.9a11 11 0 0 0 .4-4.5c-.3-1.9-1.5-3.5-3.6-3.5-1.7 0-3.7 1.6-3.5 3.5zm29.7 41.6a70.8 70.8 0 0 1 9.6.2 3.5 3.5 0 0 0 3.5-3.5 3.6 3.6 0 0 0-3.5-3.6 69.2 69.2 0 0 0-9.6-.1c-4.5.2-4.5 7.2 0 7zm19.6-7.6q2 5.5 4.6 10.8c.8 1.7 3.3 2.1 4.8 1.2a3.6 3.6 0 0 0 1.3-4.8l-3.8-9a3.6 3.6 0 0 0-4.4-2.4 3.5 3.5 0 0 0-2.5 4.3zm28.1 18.5h10.6c4.6 0 4.6-7 0-7h-10.6c-4.5 0-4.5 7 0 7zM1537 714a28 28 0 0 0-1.7 11c.3 4.6 7.3 4.6 7 0a22.6 22.6 0 0 1 1.5-9.2c1.5-4.2-5.3-6-6.8-1.8zm10.8-8.2 8.9 2.8c4.3 1.4 6.2-5.4 1.8-6.8l-8.8-2.8c-4.3-1.4-6.2 5.4-1.9 6.8zm21.6-16.2a79 79 0 0 1-3.6 9 3.6 3.6 0 0 0 1.2 4.9 3.6 3.6 0 0 0 4.9-1.3 94.7 94.7 0 0 0 4.3-10.7c1.5-4.3-5.4-6.1-6.8-1.8zm13.4-6.7 13.4 2.3c4.5.7 6.4-6 2-6.8l-13.5-2.3c-4.4-.7-6.3 6-1.9 6.8zm2.3 4.9a31.8 31.8 0 0 1-.5 7.1 3.6 3.6 0 0 0 2.4 4.3 3.6 3.6 0 0 0 4.4-2.4 41.5 41.5 0 0 0 .8-9c-.1-4.5-7.2-4.6-7 0zm4.6 20.3a24.8 24.8 0 0 1 5.3 4.7 3.5 3.5 0 1 0 5-5 31.6 31.6 0 0 0-6.7-5.8 3.5 3.5 0 1 0-3.6 6zm-60.5-278.5a44.7 44.7 0 0 0-8.2 5.3c-1.5 1.2-1.3 3.8 0 5a3.6 3.6 0 0 0 5 0 37.6 37.6 0 0 1 6.7-4.2 3.5 3.5 0 0 0 1.3-4.8 3.6 3.6 0 0 0-4.8-1.3zm-26.7-26.5v10.4c0 4.5 7 4.5 7 0v-10.4c0-4.5-7-4.5-7 0zm-32.8-10.1a45 45 0 0 1 9.4 1.8c4.4 1.4 6.3-5.4 2-6.8a54.1 54.1 0 0 0-11.4-2.1c-4.5-.4-4.5 6.7 0 7zm-19.4-39.6 2.4 9.8c1 4.4 7.8 2.6 6.8-1.9l-2.4-9.8c-1-4.4-7.8-2.5-6.8 1.9zm67.5 65.8a21.7 21.7 0 0 1 6.2 2.6c3.9 2.3 7.5-3.8 3.6-6.1a28.6 28.6 0 0 0-7.9-3.3c-4.4-1.1-6.3 5.7-1.9 6.8zm30.6 30.9a11.3 11.3 0 0 1 5.3 1 3.6 3.6 0 0 0 4.8-1.3 3.5 3.5 0 0 0-1.3-4.8 19 19 0 0 0-8.8-2 3.5 3.5 0 1 0 0 7zM1527 747.8v15.5c0 4.6 7 4.6 7 0v-15.5c0-4.5-7-4.5-7 0zm18.2 6.6a72 72 0 0 1 10.4 4.4c4 2 7.6-4 3.6-6.1a85 85 0 0 0-12.2-5.1c-4.3-1.5-6.2 5.3-1.9 6.8zm25.7-33.8-5.2 13.6c-1.6 4.3 5.2 6.1 6.8 1.9l5.2-13.6c1.6-4.3-5.2-6.1-6.8-1.9zm-25.8 13.4a5 5 0 0 1 1.4 0 2.3 2.3 0 0 1 .8.4 3.6 3.6 0 0 0 5 0c1.2-1.3 1.5-3.8 0-5a10 10 0 0 0-7.2-2.5 3.6 3.6 0 0 0-3.5 3.5 3.6 3.6 0 0 0 3.5 3.5zm36 27.4a23.2 23.2 0 0 1-2.3 7.7c-2 4 4 7.6 6.1 3.5a32.9 32.9 0 0 0 3.4-11.2c.2-1.8-1.8-3.5-3.6-3.5-2 0-3.3 1.7-3.5 3.5zm.6-17.7a43.8 43.8 0 0 0 14.7 8.1c4.3 1.4 6.2-5.4 1.9-6.8a35 35 0 0 1-11.6-6.3c-3.4-2.9-8.5 2-5 5zm-24.1 34.6a4.3 4.3 0 0 1-1 3 3.5 3.5 0 0 0 1.3 4.8 3.6 3.6 0 0 0 4.8-1.3 10.7 10.7 0 0 0 2-6.5c-.2-4.5-7.3-4.5-7.2 0zm-21.4 5.7a13 13 0 0 1 7.3 4.4c3 3.4 8-1.6 5-5a19.4 19.4 0 0 0-10.5-6.2c-4.4-1-6.3 5.8-1.8 6.8zm-37.7-8.6a18.9 18.9 0 0 1 9.3 4.4c3.4 3 8.4-2 5-5a25.9 25.9 0 0 0-12.4-6.2c-4.5-.8-6.4 6-1.9 6.8zm17.2.6v6.1c0 4.5 7 4.5 7 0V776c0-4.5-7-4.5-7 0zm-35.5-15.9a59.2 59.2 0 0 0 4 9.2c2.1 4 8.2.4 6-3.6a48.4 48.4 0 0 1-3.2-7.4c-1.5-4.3-8.3-2.5-6.9 1.8zm-48.6-419.4a47.1 47.1 0 0 0-2.9 7.8c-1.1 4.4 5.7 6.3 6.8 1.9a37.8 37.8 0 0 1 2.2-6.2 3.6 3.6 0 0 0-1.3-4.8c-1.5-.9-4-.5-4.8 1.3zm42.2 34.8a28 28 0 0 0 4.5 2.3c1.7.7 3.8-.8 4.3-2.5a3.6 3.6 0 0 0-2.5-4.3 19.1 19.1 0 0 1-2.8-1.5 3.5 3.5 0 1 0-3.6 6zm-81.1-62a12.7 12.7 0 0 0 7.7 6c4.4 1.2 6.3-5.6 2-6.8a5.3 5.3 0 0 1-3.6-2.8c-2.2-4-8.3-.4-6.1 3.6zM1257 712.6a5 5 0 0 1-1.5 2.6c-3.2 3.2 1.8 8.2 5 5a12.2 12.2 0 0 0 3.6-7.5c.3-2-1.8-3.6-3.5-3.6-2.1 0-3.3 1.7-3.5 3.6zm-26 15.3a14.7 14.7 0 0 0 6.4 4 3.5 3.5 0 0 0 1.9-6.7 7.6 7.6 0 0 1-3.3-2.3 3.5 3.5 0 1 0-5 5zm-19.3 9.6a107 107 0 0 1-2.7 15.5c-1.1 4.4 5.7 6.3 6.8 1.9a120 120 0 0 0 3-17.4c.4-4.5-6.6-4.5-7 0zm-43.5 34.6a45.2 45.2 0 0 0 11.3 4.9c4.3 1.2 6.2-5.6 1.8-6.8a37.8 37.8 0 0 1-9.6-4.2c-3.9-2.4-7.4 3.7-3.5 6zm23.8-24.7 1.5 7.5a3.5 3.5 0 1 0 6.8-2l-1.5-7.4a3.5 3.5 0 1 0-6.8 1.9zm12.2 21.2-2.4 5.1a3.6 3.6 0 0 0 1.3 4.9c1.5.9 4 .4 4.8-1.3l2.4-5.1a3.6 3.6 0 0 0-1.3-4.9c-1.5-.9-4-.4-4.8 1.3zm69-32c2.4.1 4.6 1.9 6.9 2.6a10.3 10.3 0 0 0 7.5-.4c1.8-.8 2.2-3.3 1.3-4.8-1-1.8-3.1-2-4.8-1.3-1.5.6-4-1-5.2-1.6a15 15 0 0 0-5.8-1.5c-4.5-.1-4.5 7 0 7zm20.6-25.4a16 16 0 0 1-3.7 6c-3.2 3.3 1.8 8.3 5 5a24.3 24.3 0 0 0 5.5-9.1 3.6 3.6 0 0 0-2.5-4.4 3.6 3.6 0 0 0-4.3 2.5zm-48 29a37 37 0 0 0-6.7 11.4 3.5 3.5 0 0 0 2.5 4.3 3.6 3.6 0 0 0 4.3-2.4 27.3 27.3 0 0 1 4.8-8.3 3.5 3.5 0 1 0-5-5zm-95.8 30.4a29.5 29.5 0 0 0-6 7.9 3.5 3.5 0 1 0 6 3.5 23.5 23.5 0 0 1 5-6.4c3.4-3.1-1.6-8-5-5zm-27.3 5a14 14 0 0 0 6.8 3.3 3.6 3.6 0 0 0 4.3-2.5c.5-1.6-.6-4-2.4-4.3a7.2 7.2 0 0 1-3.7-1.4 3.6 3.6 0 0 0-5 0 3.5 3.5 0 0 0 0 5zm-25.7-2.7a22 22 0 0 0-9.6 4 3.6 3.6 0 0 0-1.3 4.8c.9 1.5 3.3 2.4 4.8 1.3a17.5 17.5 0 0 1 8-3.4c1.8-.3 2.9-2.6 2.4-4.3a3.6 3.6 0 0 0-4.3-2.5zm-34.3 2.2a18.4 18.4 0 0 1 6.2 5 3.7 3.7 0 0 0 4.8 1.3c1.5-.9 2.4-3.3 1.3-4.8a26.3 26.3 0 0 0-8.7-7.6c-4-2.1-7.6 4-3.6 6.1zm-25.3-8q-2.3 4.7-5 9c-2.4 4 3.7 7.4 6 3.6a101.6 101.6 0 0 0 5-9c2-4-4-7.6-6-3.5zm-26.6 14.8a75.1 75.1 0 0 0 9 5.2 3.6 3.6 0 0 0 4.8-1.3 3.5 3.5 0 0 0-1.2-4.8 73 73 0 0 1-9-5.2c-3.8-2.5-7.3 3.6-3.6 6.1zm-35.3 4.2a55.5 55.5 0 0 0 8.4 3.8 3.5 3.5 0 0 0 1.8-6.8 44 44 0 0 1-6.6-3c-4-2.3-7.5 3.8-3.6 6zm76.6-8.8a32.8 32.8 0 0 0-4.9 6.7c-2.2 4 4 7.6 6.1 3.6a25.3 25.3 0 0 1 3.8-5.3c3.1-3.4-1.9-8.3-5-5zm49.9-13.6a67.9 67.9 0 0 0 9.9 10.6 3.6 3.6 0 0 0 5 0 3.5 3.5 0 0 0 0-5 59.4 59.4 0 0 1-8.8-9.2 3.6 3.6 0 0 0-4.9-1.3c-1.5 1-2.4 3.3-1.2 4.9zm30.8-15a10.3 10.3 0 0 1-1.8 7.6c-2.5 3.8 3.6 7.3 6.1 3.5a17.5 17.5 0 0 0 2.5-13c-.3-1.8-2.6-2.9-4.3-2.4a3.6 3.6 0 0 0-2.5 4.3zm14.3 4.5a109 109 0 0 0 15.4 6c4.4 1.3 6.2-5.5 1.9-6.8a95 95 0 0 1-13.8-5.3c-4-2-7.7 4.1-3.5 6.1zm30.7-16.2a31 31 0 0 1-1.7 10.3c-1.5 4.4 5.4 6.2 6.8 2a37.4 37.4 0 0 0 2-12.3c0-4.5-7-4.5-7 0zm0 49.3a8.5 8.5 0 0 0 4.1 5.4c4 2.3 7.5-3.8 3.6-6a1.4 1.4 0 0 1-.8-1.2c-1.1-4.4-8-2.6-6.9 1.8zm16.5-2.2-2.3 3.8c-2.3 3.9 3.8 7.4 6.1 3.5l2.3-3.7c2.4-4-3.7-7.5-6-3.6zM1320 715l-6 8.5c-1.2 1.5-.3 3.9 1.2 4.8a3.6 3.6 0 0 0 4.8-1.3l6.1-8.4c1.1-1.6.3-4-1.2-4.9a3.6 3.6 0 0 0-4.9 1.3zm20.7 4 13.5 8c4 2.4 7.5-3.7 3.6-6l-13.6-8.2c-3.9-2.3-7.5 3.8-3.6 6.1zm37.8-2-2.3 2a3.6 3.6 0 0 0 0 5 3.6 3.6 0 0 0 5 0l2.3-2a3.5 3.5 0 0 0 0-5 3.6 3.6 0 0 0-5 0zm14 14.2 2.8 1.4a3.6 3.6 0 0 0 4.8-1.3 3.5 3.5 0 0 0-1.3-4.8l-2.8-1.4a3.6 3.6 0 0 0-4.8 1.3 3.6 3.6 0 0 0 1.3 4.8zm-388.3-557.4a9.3 9.3 0 0 0-7.7 4.7c-2.2 4 3.9 7.5 6.1 3.5a3.3 3.3 0 0 1 .7-.8s.5-.3.2-.2l.7-.2a3.6 3.6 0 0 0 3.5-3.5 3.6 3.6 0 0 0-3.5-3.5zm-20 17.1a17.5 17.5 0 0 1 4.9 5.4c2.3 3.9 8.4.3 6-3.6a25.9 25.9 0 0 0-7.3-7.9c-1.5-1-4-.2-4.8 1.3a3.6 3.6 0 0 0 1.2 4.8zm-15.7 3-2.2 7.4c-1.3 4.4 5.6 6.3 6.8 2l2.2-7.5c1.3-4.4-5.6-6.3-6.8-1.9zm-31.3 9.4a36.2 36.2 0 0 1 7 8.3c2.4 3.8 8.5.3 6.1-3.6a42.6 42.6 0 0 0-8-9.7c-3.4-3-8.5 2-5 5zm-14.2 18a94.5 94.5 0 0 0-7 7.6 3.6 3.6 0 0 0 0 5c1.2 1.3 3.8 1.5 5 0a96.5 96.5 0 0 1 7-7.5c3.2-3.2-1.8-8.2-5-5zm-8.4 26.8 3.7 7.1a3.5 3.5 0 1 0 6-3.5l-3.6-7.1a3.5 3.5 0 0 0-6 3.5zm-1 35.4a30.7 30.7 0 0 1-3.4 9.5c-2.3 4 3.8 7.5 6 3.5a37.2 37.2 0 0 0 4.3-11.1c.9-4.4-6-6.3-6.8-1.9zm7.7-12.2a12 12 0 0 1 4.3 1.7 3.5 3.5 0 1 0 3.5-6 17.4 17.4 0 0 0-6-2.5 3.6 3.6 0 0 0-4.3 2.5 3.5 3.5 0 0 0 2.5 4.3zm1.2 37.6v8.9c0 4.5 7 4.5 7 0v-9c0-4.5-7-4.5-7 0zM902.8 266a6 6 0 0 1-1 3.9c-2.4 3.8 3.7 7.4 6 3.5a12.8 12.8 0 0 0 2-7.4 3.5 3.5 0 0 0-7 0zm8.6 64.2 7.4 13.2c2.3 4 8.4.4 6.1-3.6l-7.4-13.2c-2.2-4-8.3-.4-6 3.6zm36-99.7a43.3 43.3 0 0 0-5.8 8.5c-2.1 4 4 7.6 6 3.5a35.3 35.3 0 0 1 4.8-7 3.5 3.5 0 1 0-5-5zm22-.4a4.9 4.9 0 0 1 2 .5 3.6 3.6 0 0 0 4.9-1.3 3.5 3.5 0 0 0-1.3-4.8 13.7 13.7 0 0 0-5.6-1.4 3.5 3.5 0 1 0 0 7zm16.4-21.8a35.7 35.7 0 0 1-2.5 8.5 3.6 3.6 0 0 0 1.3 4.8c1.5 1 4 .5 4.8-1.2a43 43 0 0 0 3.2-10.2 3.6 3.6 0 0 0-2.5-4.4c-1.7-.4-4 .6-4.3 2.5zm28 .8a15.5 15.5 0 0 1 6.8 3.6c3.3 3.1 8.3-1.9 5-5a23 23 0 0 0-10-5.4c-4.4-1.1-6.2 5.7-1.8 6.8zm4.6-27.5a29.9 29.9 0 0 1-3.5 6.6 3.5 3.5 0 0 0 1.3 4.8 3.6 3.6 0 0 0 4.8-1.2 37.5 37.5 0 0 0 4.2-8.4 3.5 3.5 0 0 0-2.5-4.3 3.6 3.6 0 0 0-4.3 2.5zM1031 192l4.3 5.1a3.5 3.5 0 1 0 5-5l-4.3-5.1c-1.2-1.5-3.7-1.3-5 0a3.6 3.6 0 0 0 0 5zm12.4-5.1a16.4 16.4 0 0 0 9 .8c1.9-.3 2.9-2.6 2.4-4.3a3.6 3.6 0 0 0-4.3-2.5 9.6 9.6 0 0 1-5.2-.8c-1.8-.7-3.9.8-4.3 2.5-.6 2 .7 3.6 2.4 4.3zm-107 71.6a17.8 17.8 0 0 0 4 7.8c1.3 1.4 3.8 1.2 5 0a3.6 3.6 0 0 0 0-5 10.4 10.4 0 0 1-2-4.7 3.5 3.5 0 1 0-6.9 1.9zm-12 100.5a47.3 47.3 0 0 0-2.4 11.7c-.4 4.5 6.7 4.5 7 0a40 40 0 0 1 2.3-9.9c1.5-4.2-5.3-6-6.8-1.8zm6.2 32.6 4.8 4.6c3.2 3.2 8.2-1.8 5-5l-4.8-4.6c-3.3-3.2-8.3 1.8-5 5zm.5 21.4-.6 5.1c-.2 2 1.8 3.6 3.5 3.6a3.6 3.6 0 0 0 3.6-3.6l.5-5.1c.3-1.9-1.7-3.5-3.5-3.5a3.6 3.6 0 0 0-3.5 3.5zm145.8-226.6a19.4 19.4 0 0 0-6.4 5.6c-1.1 1.5-.2 4 1.3 4.8 1.8 1 3.7.3 4.8-1.3a11.6 11.6 0 0 1 3.9-3 3.5 3.5 0 0 0 1.2-4.8 3.6 3.6 0 0 0-4.8-1.3zm22 17.2a45.8 45.8 0 0 0 7.7 6.3 3.5 3.5 0 1 0 3.6-6.1 36.8 36.8 0 0 1-6.3-5.1c-3.2-3.3-8.2 1.7-5 5zm44.8 8.6 5.6 1.5c4.5 1.1 6.3-5.7 2-6.8l-5.7-1.5c-4.4-1.1-6.3 5.6-1.9 6.8zm17.2-1-2.9 4.2a3.5 3.5 0 0 0 1.3 4.8 3.6 3.6 0 0 0 4.8-1.3l2.9-4.2a3.5 3.5 0 0 0-1.3-4.8 3.6 3.6 0 0 0-4.8 1.3zm-37-13.7c-.1-.3-.3.5 0 .1a3.5 3.5 0 1 0 6 3.6 8 8 0 0 0 .8-5.6 3.5 3.5 0 0 0-6.8 2zm66.5 25.6h6c4.6 0 4.6-7 0-7h-6c-4.6 0-4.6 7 0 7zm21.8.7a10.1 10.1 0 0 0 3.5 7.6 3.7 3.7 0 0 0 5 0c1.3-1.3 1.5-3.8 0-5a3.3 3.3 0 0 1-1.4-2.6c-.1-4.6-7.2-4.6-7 0zm-821 548-3.9 11.8c-1.4 4.3 5.4 6.1 6.8 1.9l4-11.9c1.4-4.3-5.5-6.2-6.9-1.9zm30.7-2.6a55.7 55.7 0 0 1 10.4 13c2.2 3.9 8.3.4 6-3.6a61.6 61.6 0 0 0-11.4-14.5c-3.3-3-8.3 2-5 5zm40.5-42-5 16.3c-1.4 4.3 5.4 6.2 6.8 1.8l5-16.1c1.3-4.4-5.5-6.2-6.9-2zm19.4 51.8 9.2 6.3a3.5 3.5 0 1 0 3.6-6l-9.2-6.4a3.5 3.5 0 1 0-3.6 6.1zm26.4-40.9a22.7 22.7 0 0 1-2.3 11.6c-2 4 4 7.6 6 3.6a29.9 29.9 0 0 0 3.4-15.2c-.2-4.5-7.3-4.5-7 0zm27.2 42.6a51.1 51.1 0 0 0 12.7 9c4 2 7.7-4 3.6-6a45 45 0 0 1-11.3-8c-3.3-3.1-8.3 1.9-5 5zm21.3-41.1a21.2 21.2 0 0 0-9.3 4.5c-1.5 1.2-1.2 3.7 0 5a3.6 3.6 0 0 0 5 0 14 14 0 0 1 6.2-2.7 3.6 3.6 0 0 0 2.5-4.4 3.6 3.6 0 0 0-4.4-2.4zm24.9 37.9a179 179 0 0 1 15.3 12.4c3.4 3 8.4-2 5-5a195.8 195.8 0 0 0-16.8-13.5c-3.7-2.7-7.2 3.4-3.5 6zm-6.2-16.2h13.4c4.6 0 4.6-7 0-7h-13.4c-4.6 0-4.6 7 0 7zm-12.8 29h2.9c4.5 0 4.5-7 0-7h-2.9c-4.5 0-4.5 7 0 7zm-62.3-22.2 12 3.7c4.3 1.4 6.1-5.4 1.8-6.8l-12-3.7c-4.3-1.4-6.2 5.4-1.8 6.8zm-88.5-27 12.6 7.1c4 2.3 7.6-3.8 3.6-6l-12.7-7.2c-4-2.2-7.5 3.9-3.5 6.1zM633 766.4l22.7 3c4.5.7 6.4-6.1 1.9-6.7q-11.3-1.6-22.7-3c-4.4-.7-6.3 6.1-1.9 6.7zm66.7-10.6a11.5 11.5 0 0 1-2.3 8.1c-1 1.6-.2 4 1.3 4.9a3.6 3.6 0 0 0 4.8-1.3 17.5 17.5 0 0 0 3.3-11.7c-.4-4.5-7.5-4.5-7 0zm-17.9 38.7a141.5 141.5 0 0 0 19.1 5c4.5.8 6.4-6 1.9-6.8a143 143 0 0 1-19-5c-4.4-1.5-6.3 5.3-2 6.8zm41.7-17.8a22.7 22.7 0 0 1 9 4.8c3.4 3 8.5-2 5-5a30.6 30.6 0 0 0-12.1-6.6c-4.4-1.2-6.2 5.5-1.9 6.8zm38.9-27.4 4.2-3.6a3.5 3.5 0 0 0 0-5 3.6 3.6 0 0 0-5 0l-4.2 3.6a3.5 3.5 0 0 0 0 5 3.6 3.6 0 0 0 5 0zm.2 23.4a135.5 135.5 0 0 0 12.5 10.6c1.6 1.1 4 .2 4.9-1.3 1-1.8.2-3.7-1.3-4.8a117.5 117.5 0 0 1-11-9.5c-3.3-3.1-8.3 1.9-5 5zm28.4-29.8-.7 4.2a3.6 3.6 0 0 0 2.5 4.3c1.7.5 4-.5 4.3-2.4l.7-4.2a3.6 3.6 0 0 0-2.4-4.4c-1.7-.4-4 .6-4.4 2.5zm40.8-15.3c4.6 0 4.6-7 0-7s-4.5 7 0 7zm21-22.3a76.9 76.9 0 0 1 14 8.6c3.6 2.8 8.6-2.2 5-5a85.1 85.1 0 0 0-15.5-9.7c-4-2-7.7 4-3.6 6zm36-23.1a37.6 37.6 0 0 0-8 12.1c-.8 1.8.7 3.9 2.4 4.3 2 .6 3.6-.7 4.3-2.4a28.7 28.7 0 0 1 6.2-9c3.1-3.3-1.8-8.3-5-5zm-66.3 62.7-3.5 7.8a3.6 3.6 0 0 0 1.3 4.8c1.5.9 4 .5 4.8-1.3l3.5-7.8a3.6 3.6 0 0 0-1.3-4.8c-1.5-.9-4-.5-4.8 1.3zm79.8-86.5a35 35 0 0 0-1.8 7c-.2 1.9.5 3.8 2.5 4.3 1.7.5 4-.5 4.3-2.4a34.8 34.8 0 0 1 1.8-7 3.5 3.5 0 0 0-2.5-4.4 3.6 3.6 0 0 0-4.3 2.5zm13-8.6h8.4c4.6 0 4.6-7 0-7h-8.5c-4.5 0-4.5 7 0 7zm14.9-34.4a17.1 17.1 0 0 1-2.4 6.3c-2.4 3.8 3.7 7.4 6.1 3.5a22.4 22.4 0 0 0 3.1-7.9 3.6 3.6 0 0 0-2.5-4.3c-1.7-.5-4 .6-4.3 2.5zm9.2-31.7-2.2 11.3c-.8 4.4 6 6.3 6.8 1.9l2.2-11.3c.8-4.4-6-6.3-6.8-1.9z" fill="#007a71"/><g fill="#95c11f"><g opacity=".6"><path d="m950.8 170-2.8 4.2a3.5 3.5 0 0 0 1.3 4.9 3.6 3.6 0 0 0 4.8-1.3l2.8-4.2a3.5 3.5 0 0 0-1.2-4.9 3.6 3.6 0 0 0-4.9 1.3zm-26.1 11.7 5.2 2a3.5 3.5 0 1 0 1.8-6.9l-5.1-1.9a3.5 3.5 0 1 0-2 6.8zm-11.6-1.4-4.7 8c-2.3 4 3.8 7.5 6 3.5l4.8-8c2.3-3.9-3.8-7.4-6.1-3.5zm-17.5 24.6a21 21 0 0 1 4 3.2c3.1 3.2 8.1-1.8 5-5a28.5 28.5 0 0 0-5.5-4.3c-3.8-2.4-7.4 3.7-3.5 6zm-2.6 7.7a39.6 39.6 0 0 1-3.9 10c-2.2 4 3.9 7.5 6.1 3.5a47.7 47.7 0 0 0 4.6-11.6c1.1-4.4-5.7-6.3-6.8-1.9zm-18.4 4 2.8 2.3a3.6 3.6 0 0 0 5 0c1.2-1.2 1.5-3.7 0-5l-2.8-2.3a3.6 3.6 0 0 0-5 0c-1.3 1.2-1.5 3.7 0 5zm-1.4 20-1.9 9.4a3.5 3.5 0 0 0 6.9 1.8l1.8-9.4a3.6 3.6 0 0 0-2.5-4.3 3.6 3.6 0 0 0-4.3 2.5zM847 208.3a13.6 13.6 0 0 1 6.5 5.5c2.3 4 8.4.4 6-3.5a20 20 0 0 0-9-8.1 3.7 3.7 0 0 0-4.8 1.3c-.8 1.5-.5 4 1.3 4.8z"/><use xlink:href="#E"/><path d="m875.4 186.7 3.3 5.7c2.3 3.9 8.4.3 6-3.6l-3.2-5.6c-2.3-4-8.4-.4-6 3.5zm14.9-7.2a23 23 0 0 1 7 1c4.3 1.3 6.2-5.5 1.9-6.8a30 30 0 0 0-9-1.3c-4.5 0-4.5 7.1 0 7z"/><use xlink:href="#F"/><path d="M819.2 182.5a56.3 56.3 0 0 1 9.8 3c1.8.8 3.9-.7 4.3-2.4.6-2-.6-3.6-2.4-4.4a56.3 56.3 0 0 0-9.8-3c-4.5-.9-6.4 6-2 6.8zm-17.8-3.2-.8 4.7a3.6 3.6 0 0 0 2.5 4.3c1.7.5 4-.6 4.4-2.4l.8-4.8a3.6 3.6 0 0 0-2.5-4.3c-1.7-.5-4 .6-4.4 2.5zm-15.7 13.1a54.6 54.6 0 0 1 9.5 3.6c4 2 7.7-4.1 3.6-6.1a63.8 63.8 0 0 0-11.2-4.3c-4.4-1.2-6.3 5.6-1.9 6.8zm-26.2-.5a19.3 19.3 0 0 1-9.6 3.5c-4.5.3-4.6 7.4 0 7A26.6 26.6 0 0 0 763 198c3.7-2.5.2-8.6-3.6-6zm34 23.1a16.7 16.7 0 0 1 5.6 6.5 3.5 3.5 0 0 0 6-3.6 23.7 23.7 0 0 0-8-9 3.5 3.5 0 1 0-3.6 6.1zm36-12.7-1.5 3.8c-.7 1.7.8 3.8 2.5 4.3a3.6 3.6 0 0 0 4.3-2.5l1.5-3.7c.7-1.8-.8-3.9-2.5-4.3a3.6 3.6 0 0 0-4.3 2.4zm-5.8 35 2.8 3.8a3.7 3.7 0 0 0 4.8 1.3c1.5-.9 2.4-3.3 1.3-4.8l-2.8-3.8a3.6 3.6 0 0 0-4.8-1.3c-1.5 1-2.4 3.3-1.3 4.9zM809 205.9l3.2 2.8a3.6 3.6 0 0 0 5 0 3.5 3.5 0 0 0 0-5l-3.2-2.8a3.6 3.6 0 0 0-5 0 3.5 3.5 0 0 0 0 5zm41.4 41v10.9c0 4.5 7 4.5 7 0V247c0-4.5-7-4.5-7 0zm11.9 40.6 5.6 5.1c3.4 3.1 8.4-1.9 5-5l-5.6-5.1c-3.4-3.1-8.4 1.9-5 5zm7-15c-.2-.3.2-.3 0 .2 0-.2.2-.7 0 0-1.3 4.4 5.5 6.3 6.8 2a7.5 7.5 0 0 0-1.8-7.2 3.5 3.5 0 1 0-5 5zm16 17.2v6.6c0 4.5 7 4.5 7 0v-6.6c0-4.5-7-4.5-7 0zm-3.4 26.8V330c0 4.5 7.1 4.5 7.1 0v-13.6c0-4.6-7-4.6-7 0zm8 45v8.5c0 4.5 7.1 4.5 7.1 0v-8.5c0-4.5-7-4.5-7 0zm12.3 30.6a22.3 22.3 0 0 1 7.4 8.4c2.1 4 8.2.4 6-3.6a29.8 29.8 0 0 0-10-10.9c-3.7-2.5-7.2 3.6-3.5 6.1zm-9 11.7v2.8c0 4.5 7.1 4.5 7.1 0v-2.8c0-4.5-7-4.5-7 0zm17.8 22.3 6.5 4.8c1.6 1 4 .2 4.9-1.3a3.6 3.6 0 0 0-1.3-4.8l-6.5-4.8c-1.6-1.1-4-.2-4.9 1.3a3.6 3.6 0 0 0 1.3 4.8zm8.2 20.9v8.4c0 4.6 7 4.6 7 0V447c0-4.5-7-4.5-7 0zm-25.5-3.8a1.9 1.9 0 0 1-.4 1.3 3.5 3.5 0 1 0 5 5 9.8 9.8 0 0 0 2.5-6.2 3.5 3.5 0 0 0-7 0zm28.7 55a47.9 47.9 0 0 1 6 4c1.5 1.1 4 .2 4.8-1.3 1-1.8.3-3.6-1.2-4.8a47.2 47.2 0 0 0-6-4c-4-2.1-7.6 4-3.6 6.1zm6.2-24.5v4.7c0 4.6 7 4.6 7 0v-4.7c0-4.5-7-4.5-7 0zm3.7 65.3a29.4 29.4 0 0 1-.8 10.3c-1 4.4 5.7 6.3 6.9 2a35.6 35.6 0 0 0 1-12.3 3.6 3.6 0 0 0-3.6-3.5c-1.7 0-3.7 1.6-3.5 3.5zm-4.4-6.4a10.8 10.8 0 0 1 5.8.9 3.6 3.6 0 0 0 4.8-1.3c.9-1.5.5-4-1.3-4.8a19.5 19.5 0 0 0-11.2-1.6c-1.9.3-3 2.7-2.5 4.3.6 2 2.5 2.8 4.4 2.5zm-22.4-49 .6 10.3c.2 4.5 7.3 4.6 7 0l-.5-10.3c-.2-4.5-7.3-4.5-7 0zm16.5 86v8c0 4.5 7 4.5 7 0v-8c0-4.6-7-4.6-7 0zm-3.6 34.4a5.2 5.2 0 0 1 2.7 1.3c3.4 3.1 8.4-1.9 5-5a12.8 12.8 0 0 0-7.7-3.3c-1.9-.2-3.5 1.7-3.5 3.5a3.6 3.6 0 0 0 3.5 3.5zm-50.1-207.2v13.1c0 4.5 7 4.5 7 0v-13.1c0-4.6-7-4.6-7 0zm.7-18.5a18.6 18.6 0 0 1 12.3 7c2.9 3.5 7.9-1.5 5-5a25.6 25.6 0 0 0-17.3-9c-4.5-.6-4.5 6.5 0 7zm-18-42.8 10.4 3.7c4.3 1.6 6.1-5.2 1.9-6.8l-10.4-3.7c-4.3-1.6-6.1 5.2-1.9 6.8zM838.3 298a11.1 11.1 0 0 1-1.5 5.7c-2.3 4 3.8 7.5 6 3.5a18.4 18.4 0 0 0 2.5-9.2c0-4.6-7-4.6-7 0zm-39.8-28a93.2 93.2 0 0 0 20.7 8.8c4.3 1.2 6.2-5.6 1.8-6.8a85.6 85.6 0 0 1-19-8c-4-2.3-7.5 3.8-3.5 6zm-25.2-30.8a12.2 12.2 0 0 0-3 9 3.6 3.6 0 0 0 3.6 3.5c1.8 0 3.8-1.6 3.6-3.5a5.2 5.2 0 0 1 .8-4.1 3.6 3.6 0 0 0 0-5c-1.2-1.2-3.8-1.5-5 0zM724 224.4l11.3 3.8c4.3 1.4 6.2-5.4 1.9-6.8l-11.4-3.8c-4.3-1.4-6.1 5.4-1.8 6.8zm25-7.1.8 9.4a3.6 3.6 0 0 0 3.6 3.5c1.7 0 3.7-1.6 3.5-3.5l-1-9.4a3.6 3.6 0 0 0-3.5-3.5c-1.7 0-3.7 1.6-3.5 3.5zm-78.8 13.6 12.3 6.6c4 2.1 7.6-4 3.6-6l-12.3-6.7c-4-2.1-7.5 4-3.5 6.1zm-39.7 7.2a29.2 29.2 0 0 1-6 8.6c-3.3 3.2 1.7 8.2 5 5a34.1 34.1 0 0 0 7.1-10 3.6 3.6 0 0 0-1.2-4.9c-1.6-.9-4-.4-4.9 1.3zm-50 12a27.6 27.6 0 0 0 8.9 7.8c4 2.2 7.5-4 3.5-6a19.6 19.6 0 0 1-6.3-5.4 3.7 3.7 0 0 0-4.8-1.2c-1.5.9-2.4 3.3-1.3 4.8zm-38.4 26.6-4.8 6.5c-1.1 1.6-.3 4 1.3 4.8a3.6 3.6 0 0 0 4.8-1.2l4.8-6.6c1-1.5.2-3.9-1.3-4.8a3.6 3.6 0 0 0-4.8 1.3zm-29.2 11.7a11.3 11.3 0 0 1 6.7 1.5c4 2.2 7.5-3.9 3.6-6.1a18.2 18.2 0 0 0-10.3-2.4 3.6 3.6 0 0 0-3.5 3.5 3.6 3.6 0 0 0 3.5 3.5zm-26.3 7.1q-2 5-4.2 9.9c-.7 1.7-.5 3.8 1.3 4.8 1.5.9 4 .5 4.8-1.3l4.2-9.8c.8-1.8.5-3.8-1.3-4.9-1.4-.8-4-.5-4.8 1.3zm-44.8 30a11.2 11.2 0 0 1 5.3 2.4c1.5 1.1 4 .2 4.8-1.3 1.1-1.8.3-3.6-1.2-4.8a17.5 17.5 0 0 0-8.9-3.4c-1.9-.2-3.5 1.8-3.5 3.6 0 2 1.6 3.3 3.5 3.5zm-27 24.3a173 173 0 0 0-9.6 23.4c-1.4 4.3 5.4 6.2 6.8 1.9a160 160 0 0 1 8.8-21.7c2-4-4-7.6-6-3.6zM386 365h.7c4.5 0 4.5-7 0-7h-.7c-4.6 0-4.6 7 0 7zm42.8-24.2 2.9.7c4.4 1.1 6.3-5.7 1.8-6.8l-2.8-.7c-4.4-1-6.3 5.7-1.9 6.8zm130.3-81.5h8.5c4.5 0 4.5-7 0-7H559c-4.5 0-4.6 7 0 7zm147.7-64a13.6 13.6 0 0 1-2.3 9.4c-2.6 3.8 3.5 7.3 6 3.6a19.6 19.6 0 0 0 3.4-13 3.6 3.6 0 0 0-3.5-3.5c-1.8 0-3.8 1.6-3.6 3.5zM226.3 524.4l-10.5 16.8c-2.4 3.9 3.7 7.4 6.1 3.6l10.5-16.9c2.4-3.9-3.7-7.4-6-3.6zm-27 48 8.5 3.7a3.6 3.6 0 0 0 4.8-1.2c.9-1.5.5-4-1.3-4.8l-8.5-3.8a3.7 3.7 0 0 0-4.8 1.3c-.9 1.4-.5 4 1.3 4.8zm50.5-26.4-9.3 13.2c-2.6 3.7 3.5 7.2 6.1 3.5l9.3-13.2c2.7-3.7-3.5-7.2-6-3.5zm-43.7 65.3 8.3 10.4c1.2 1.5 3.8 1.3 5 0a3.6 3.6 0 0 0 0-5l-8.3-10.4c-1.2-1.5-3.8-1.3-5 0a3.6 3.6 0 0 0 0 5zm26.6-16.6-2 7.5c-1.1 4.4 5.7 6.3 6.8 1.9l2-7.5c1.2-4.4-5.6-6.3-6.8-1.9zm-23.4 79.7 1.9 3.8a3.6 3.6 0 0 0 4.8 1.2 3.6 3.6 0 0 0 1.3-4.8l-2-3.7a3.6 3.6 0 0 0-4.8-1.3 3.6 3.6 0 0 0-1.2 4.9zm24.3 19.8 2.7 7.5a3.6 3.6 0 0 0 4.3 2.5 3.5 3.5 0 0 0 2.5-4.4l-2.7-7.5a3.6 3.6 0 0 0-4.4-2.5 3.5 3.5 0 0 0-2.4 4.4zm-.5-30.6 8.5 1.2c1.9.2 3.8-.5 4.3-2.5.5-1.6-.5-4-2.4-4.3l-8.5-1c-1.9-.3-3.8.5-4.3 2.5-.5 1.6.5 4 2.4 4.3zm-1.6 80.4v8.4c0 4.6 7 4.6 7 0V744c0-4.6-7-4.6-7 0zm-17.2-13.5a6.2 6.2 0 0 1 3.9.4 3.6 3.6 0 0 0 4.8-1.2c1-1.6.5-4-1.2-4.9a14.3 14.3 0 0 0-9.4-1 3.6 3.6 0 0 0-2.5 4.3 3.6 3.6 0 0 0 4.4 2.4zm.7 27.7-3 6.5a3.6 3.6 0 0 0 1.3 4.8c1.5.9 4 .5 4.9-1.3l2.9-6.5a3.6 3.6 0 0 0-1.3-4.8c-1.5-.9-4-.5-4.8 1.3zm27 31.5.9.9c3.2 3.2 8.2-1.8 5-5l-1-1c-3.2-3.2-8.2 1.8-5 5zm12.6-29.9a5.5 5.5 0 0 1 .5 3c-.2 1.8.5 3.7 2.5 4.3 1.6.4 4-.6 4.3-2.5a13.8 13.8 0 0 0-1.2-8.3 3.5 3.5 0 0 0-6.1 3.5zm24.7-4 3.7 1c4.5 1 6.3-5.7 2-6.8l-3.8-1c-4.5-1-6.3 5.7-2 6.8zm4.3 18.3-1 2.8a3.5 3.5 0 0 0 2.5 4.3 3.6 3.6 0 0 0 4.4-2.4l1-2.8a3.5 3.5 0 0 0-6.8-2zm13 8.9a20.8 20.8 0 0 0 13.8 4.9c4.5 0 4.5-7.1 0-7a13.3 13.3 0 0 1-8.8-2.8 3.6 3.6 0 0 0-5 0c-1.2 1.2-1.5 3.7 0 5zm37-13.6-3 15c-.8 4.4 6 6.3 6.9 1.9l3-15c.9-4.4-6-6.3-6.8-1.9zm14.5-4a3.4 3.4 0 0 1 3.1.8c3.3 3.1 8.3-1.9 5-5a10.1 10.1 0 0 0-8.2-3c-1.8.3-3.5 1.5-3.5 3.6 0 1.7 1.6 3.8 3.5 3.5zm-35.6-13v8.5c0 4.5 7 4.5 7 0v-8.4c0-4.6-7-4.6-7 0zm-71.7-250.7v6.6c0 4.5 7.1 4.5 7.1 0v-6.6c0-4.5-7-4.5-7 0zm20.6-22.7h1.9c4.5 0 4.5-7 0-7h-2c-4.5 0-4.5 7 0 7zm15.3-26.1v5.6c0 4.6 7 4.6 7 0V453c0-4.5-7-4.5-7 0z"/></g><path d="m401.5 436-2.3 5.2a3.6 3.6 0 0 0 1.2 4.8c1.5.9 4 .5 4.9-1.3l2.3-5.1a3.6 3.6 0 0 0-1.2-4.8c-1.6-1-4-.5-4.9 1.2zM390 458.4a4.2 4.2 0 0 1 2.6 1.6 3.6 3.6 0 0 0 4.8 1.3 3.6 3.6 0 0 0 1.3-4.8 11.6 11.6 0 0 0-6.9-5c-4.4-1-6.2 5.8-1.8 6.9zm-8.7 11.1-3.6 8.5c-.7 1.8.8 3.9 2.5 4.4 2 .5 3.6-.7 4.4-2.5l3.5-8.5c.8-1.8-.8-3.9-2.4-4.4-2-.5-3.6.7-4.4 2.5zM370 490a15.8 15.8 0 0 0 4.5 5c1.6 1.1 4 .2 4.9-1.3 1-1.8.2-3.6-1.3-4.8a7.4 7.4 0 0 1-2-2.5c-2.2-4-8.3-.4-6.1 3.6zm28.4-82.5a33.4 33.4 0 0 0 .3 4.6c.2 2 1.4 3.6 3.5 3.6 1.7 0 3.8-1.7 3.6-3.6a32 32 0 0 1-.3-4.7c0-4.5-7-4.5-7 0zm1.7 22.4h3.7c4.6 0 4.6-7 0-7h-3.7c-4.6 0-4.6 7 0 7zM793.5 613a6.5 6.5 0 0 1-1.2 2.7 3.6 3.6 0 0 0 0 5c1.2 1.2 3.7 1.5 5 0a14.3 14.3 0 0 0 3-5.8c1-4.4-5.8-6.3-6.8-1.9zm7.3-9a5.9 5.9 0 0 1 3.2 1.8c3.1 3.3 8-1.7 5-5a13.1 13.1 0 0 0-8.2-3.9c-2-.2-3.6 1.8-3.6 3.6 0 2 1.7 3.3 3.6 3.5zm7.9-30.1-1.3 5c-1.2 4.4 5.6 6.2 6.8 1.9l1.3-5c1.2-4.4-5.7-6.3-6.8-2zM825 558a17.4 17.4 0 0 0 9-4.3 3.6 3.6 0 0 0 0-5 3.6 3.6 0 0 0-5 0 10.8 10.8 0 0 1-5.8 2.5c-2 .3-3 2.7-2.5 4.3.6 2 2.5 2.8 4.3 2.5zm7.8-33.6a96.2 96.2 0 0 0-6.8 8.5 3.5 3.5 0 0 0 1.3 4.8 3.6 3.6 0 0 0 4.8-1.2 78 78 0 0 1 5.7-7.1c3-3.4-2-8.4-5-5zm-7.3-14.3a18.5 18.5 0 0 0 5.3 3.7 3.7 3.7 0 0 0 4.8-1.3c1-1.5.5-4-1.2-4.8a13.1 13.1 0 0 1-4-2.6c-3.2-3.2-8.2 1.8-5 5zm-12.3-16.9a8 8 0 0 0-.3 4.4c.3 1.9 2.7 3 4.4 2.5 2-.6 2.7-2.5 2.4-4.4.1.5.3-.5.3-.6.8-1.8-.7-3.9-2.4-4.3-2-.6-3.6.7-4.4 2.4z"/></g><path d="M1106.8 213.2c-53.6-7.8-133.8-27.4-161.7 36-31.6 71.9 34.6 141 34.4 212.5 0 2.7 4.2 2.7 4.2 0 .2-66.6-54.6-125.8-40.4-193 16.7-78.7 104.1-59.8 162.4-51.4 2.7.4 3.8-3.7 1.1-4zm2.6 20.7c-44.8-7-123.8-18.8-146.4 34.6-9.7 23-4.7 47.4 4.7 69.4a410.7 410.7 0 0 1 26 85.7c.5 2.6 4.6 1.5 4.1-1.2-4-21-8.3-41.8-16-61.9-9.3-24.5-22.8-46.8-19-74.1 9-67.1 98-55.8 145.5-48.4 2.6.4 3.8-3.7 1-4.1zm-93.8 23.9a37.7 37.7 0 0 0-33.4 38.9c.1 2.7 4.4 2.7 4.2 0a33.4 33.4 0 0 1 29.2-34.7c2.6-.3 2.7-4.6 0-4.2zM1582 484c-24.1-3-47.3.6-52.1 28-2.3 12.6.2 25.5-.8 38.2-2 27-21.8 33.2-45.5 33.3-2.7 0-2.7 4.2 0 4.2 24.3 0 45.6-6 49.3-33 2-14.4-1.7-29.1 1.4-43.5 5.1-24.3 27.1-25.6 47.7-23 2.7.3 2.7-4 0-4.3zm-14-16.1c-20.8-1.4-46.6-.5-59.2 19.2a51.2 51.2 0 0 0-6.2 25.5c-.3 6.8 0 14-1.7 20.6-3.3 12.7-12.5 17.6-24 21.7-2.5 1-1.4 5 1.2 4 18.8-6.7 27-16.5 28.3-36.4 1-14 0-28.7 11.1-39.2 13.5-12.6 33.3-12.3 50.6-11.2 2.7.2 2.7-4 0-4.2zm-137 171.8c-4 16.2-6.3 34.7 7.7 46.7 2 1.8 5-1.2 3-3-12.9-11-10.3-27.9-6.6-42.6.6-2.6-3.5-3.7-4.1-1.1zm-22.6 1.6a43.5 43.5 0 0 0 4.7 32.9c1.3 2.3 5 .2 3.6-2.2a39.1 39.1 0 0 1-4.2-29.6c.6-2.6-3.4-3.7-4.1-1zm34.3 94.6c-44.3-26.3-90.3-42.1-142.4-33.1a183.8 183.8 0 0 0-113.8 70.2c-1.6 2.1 2 4.2 3.7 2a179.5 179.5 0 0 1 111.2-68.1c51-8.8 96 7 139.1 32.6 2.4 1.4 4.5-2.2 2.2-3.6zm-54.9-48.2a176.6 176.6 0 0 0-186.6 33.3c-2 1.8 1 4.8 3 3a172.5 172.5 0 0 1 182.5-32.2c2.5 1 3.6-3 1.1-4zm-422.4-87.3c-1.8 21.4-13.4 42.4-22.6 61.6s-19.8 37.9-34 54a185.8 185.8 0 0 1-98.6 57.8c-2.6.6-1.5 4.7 1.2 4a189.4 189.4 0 0 0 103.3-62.2 249.7 249.7 0 0 0 33.9-56c8.6-18.5 19.3-38.6 21-59.2.2-2.7-4-2.7-4.3 0z" fill="#007a71"/><path d="M1422.8 365a22.4 22.4 0 1 0-42-1l.2.5 14.6 40.6a4.6 4.6 0 0 0 8.5.3l17.8-38.5.8-1.9z" class="G"/><path d="M1416.3 357a14.3 14.3 0 1 1-14.3-14.3 14.3 14.3 0 0 1 14.3 14.3z" fill="#fff"/><path d="M710 323.9a22.2 22.2 0 0 0 1.5-10.7 22.4 22.4 0 0 0-44.7 2.4 22.2 22.2 0 0 0 1.3 7.3l.1.5 14.6 40.5a4.6 4.6 0 0 0 8.5.4l17.8-38.5a20 20 0 0 0 .8-1.9z" class="G"/><path d="M703.5 315.8a14.3 14.3 0 1 1-14.3-14.2 14.3 14.3 0 0 1 14.3 14.2z" fill="#fff"/><path d="M881.8 201.9a27.7 27.7 0 1 0-51.8-1.3v.1l.2.6 18.1 50a5.7 5.7 0 0 0 10.5.5l21.9-47.6a30.6 30.6 0 0 0 1-2.3z" class="G"/><path d="M873.8 192a17.7 17.7 0 1 1-17.6-17.7 17.6 17.6 0 0 1 17.6 17.6z" fill="#fff"/><path d="M455.8 309.8a28 28 0 0 0 2-13.4 28.2 28.2 0 0 0-56.4 3 27.9 27.9 0 0 0 1.6 9.2l.3.6 18.4 51a5.8 5.8 0 0 0 10.6.5l22.4-48.5a28.3 28.3 0 0 0 1.1-2.3z" class="G"/><path d="M447.6 299.7a18 18 0 1 1-18-18c10 0 18 8 18 18z" fill="#fff"/></g><path d="M1171.5 223a19.3 19.3 0 0 1-10.5-3.4 2.6 2.6 0 1 1 2.9-4.5 13 13 0 0 0 10 2.4c5.3-1.3 8.6-6.5 8.6-6.6l4.5 2.8c-.1.2-4.3 7.1-11.9 8.9a15.7 15.7 0 0 1-3.6.4z" class="G"/><path d="M1171.5 224a20.3 20.3 0 0 1-11-3.6 3.6 3.6 0 0 1 4-6.1 13.3 13.3 0 0 0 7.1 2.4 9.4 9.4 0 0 0 2-.2c5-1.1 8-6 8-6a1 1 0 0 1 1.4-.4h.1l4.4 2.7a1 1 0 0 1 .4 1.4 22 22 0 0 1-12.6 9.4 16.5 16.5 0 0 1-3.8.4zm-9-8.3a1.6 1.6 0 0 0-1 3 18.3 18.3 0 0 0 10 3.3 14.8 14.8 0 0 0 3.3-.4c5.8-1.3 9.5-5.8 10.8-7.7l-2.8-1.7a19.8 19.8 0 0 1-2 2.2 14.4 14.4 0 0 1-6.7 4 11.5 11.5 0 0 1-2.5.3 15.2 15.2 0 0 1-8.2-2.7 1.6 1.6 0 0 0-1-.3z" class="E"/><path d="M1258.5 231.6a2.6 2.6 0 0 1-2.5-2 50 50 0 0 0-11.5-18 2.6 2.6 0 1 1 3.7-3.8 55 55 0 0 1 12.8 20.3 2.6 2.6 0 0 1-1.8 3.3 2.5 2.5 0 0 1-.7.2z" class="G"/><path d="M1258.5 232.5a3.7 3.7 0 0 1-3.5-2.6 47.7 47.7 0 0 0-11.2-17.6 3.6 3.6 0 0 1 5.1-5.2c.4.4 9.7 9.5 13 20.7a3.6 3.6 0 0 1-2.4 4.6 3.4 3.4 0 0 1-1 .1zm-12.1-24.5a1.6 1.6 0 0 0-1.2 2.9c.1 0 8.7 8.6 11.7 18.5a1.7 1.7 0 0 0 1.6 1.2 1.7 1.7 0 0 0 1.4-1 1.6 1.6 0 0 0 .2-1.2 53.9 53.9 0 0 0-12.5-19.9 1.7 1.7 0 0 0-1.2-.4z" class="E"/><path d="M1246.8 153.2A42.8 42.8 0 0 0 1178 203l7.8 14.4 3.7 6.9 18.7 34.3a8.5 8.5 0 0 0 14.8 0l30.2-55.6a42.8 42.8 0 0 0-6.4-49.7zm-31.2 60.8a30.8 30.8 0 1 1 30.8-30.8 30.8 30.8 0 0 1-30.8 30.8z" class="G"/><path d="M1246.4 183.2a30.8 30.8 0 1 1-30.8-30.8 30.8 30.8 0 0 1 30.8 30.8z" class="F"/><g class="E"><path d="m1246.8 153.2-.4-.4a42.8 42.8 0 0 1 3.6 46.4l-9.8 18.1h-54.4l3.7 6.9h47l-16.7 30.6a8.5 8.5 0 0 1-12 3l.4.7a8.5 8.5 0 0 0 14.8 0l30.2-55.6a42.8 42.8 0 0 0-6.4-49.7z" opacity=".5"/><path d="M1215.6 263.9a9.3 9.3 0 0 1-8.3-5l-30.2-55.5a43.8 43.8 0 0 1-1.2-39.5 43.8 43.8 0 0 1 83 13 43.9 43.9 0 0 1-4.9 26.4l-30 55.7a9.3 9.3 0 0 1-8.3 5zm0-123.2a41.8 41.8 0 0 0-36.8 61.7L1209 258a7.5 7.5 0 0 0 13.1 0l30.2-55.6a41.8 41.8 0 0 0-36.7-61.7z"/></g><path d="M1268.2 240.1c-3.2 6.9-10.6 5-12.4 2.1a4.3 4.3 0 0 1-.6-1.7 3.3 3.3 0 0 1-3.2-2.5c-1-3.2 3.8-8.8 3.8-8.8l5.3-1.7s10.5 5.2 7 12.6z" class="F"/><g class="E"><path d="M1215.6 215a31.6 31.6 0 0 1-12.4-2.5 31.8 31.8 0 1 1 12.4 2.5zm0-61.7a29.8 29.8 0 1 0 0 59.7 29.8 29.8 0 0 0 0-59.6z"/><circle cx="1202.4" cy="180.1" r="5"/></g><circle cx="1204.1" cy="179" r="1.9" class="F"/><circle cx="1230.5" cy="180.1" r="5" class="E"/><circle cx="1232.1" cy="179" r="1.9" class="F"/><g class="E"><path d="M1261.4 245.8a8.2 8.2 0 0 1-6.5-3 5.2 5.2 0 0 1-.6-1.4 4.2 4.2 0 0 1-3.2-3c-.5-1.7 0-3.8 1.6-6.5a27 27 0 0 1 2.3-3.3 1 1 0 0 1 .5-.3l5.3-1.8a1 1 0 0 1 .8.1 21.4 21.4 0 0 1 5 3.7c3.2 3.3 4 6.8 2.4 10.3a9 9 0 0 1-3.4 4 8 8 0 0 1-4.2 1.2zm-5-15.8a25.2 25.2 0 0 0-2 3c-1.2 2-1.7 3.7-1.4 4.7a2.3 2.3 0 0 0 2.3 1.8 1 1 0 0 1 1 .8 3.3 3.3 0 0 0 .4 1.4 6 6 0 0 0 4.7 2.1c1.5 0 4.2-.5 5.9-4 1.2-2.7.6-5.4-2-8a19.8 19.8 0 0 0-4.2-3.3z"/><path d="M1255.2 241.4a1 1 0 0 1-1-.8 8.7 8.7 0 0 1 .7-4.1 1 1 0 1 1 1.8.8 6.8 6.8 0 0 0-.5 3 1 1 0 0 1-1 1z"/></g><path d="M1228.4 194a15.5 15.5 0 0 1-.9 2c-1.7 3.4-5.2 6.6-12 6.8-6.7-.2-10.1-3.4-11.9-6.7a16.3 16.3 0 0 1-1.8-7.5c4.5 3.4 11 3.7 13.8 3.6s9.2-.2 13.7-3.6a16.4 16.4 0 0 1-.9 5.3z" class="F"/><g class="E"><path d="M1215.6 203.8c-7.9-.3-11.5-4.4-13.1-7.9a17.3 17.3 0 0 1-1.6-7.3 1 1 0 0 1 .5-.9 1 1 0 0 1 1 .1c4 3 9.6 3.4 12.6 3.4h1.2c3 0 8.6-.4 12.5-3.4a1 1 0 0 1 1-.1 1 1 0 0 1 .6.9 17.6 17.6 0 0 1-1.6 7.3c-1.7 3.5-5.2 7.6-13.1 8zm-12.7-13.3a15.7 15.7 0 0 0 1.4 4.6c2 4.3 5.8 6.5 11.3 6.8 5.4-.3 9.2-2.5 11.2-6.8a15.4 15.4 0 0 0 1.4-4.6 25.5 25.5 0 0 1-12 2.7h-1.2c-2.9 0-7.9-.3-12-2.7z"/><path d="M1228.4 194a15.5 15.5 0 0 1-.9 2l-.2.1-.6.1-.6.2h-.6l-.7.2h-.7l-.6.2h-2.3a.5.5 0 0 1 0-1h.5l.5-.1 1-.3.7-.2.6-.2.6-.2.6-.2.5-.2.5-.1.4-.2.4-.1.2-.1a1 1 0 0 1 .7 0zm-16.6 2.7a.4.4 0 0 1-.4.4h-2.8l-.7-.2h-.9l-.8-.2h-.8l-.7-.2-.6-.2h-.5a16.6 16.6 0 0 1-1-2.2 1 1 0 0 1 .6 0h.1l.4.1.4.2.5.2.6.2.6.2.8.2.7.3h.4l.4.1.7.2.7.2.7.1.5.1h.4l.4.2a.4.4 0 0 1 .3.3z"/></g><rect x="1180" y="214.4" width="71.2" height="5.8" rx="2.9" class="F"/><g class="E"><path d="M1248.3 217.3h-65.4a3 3 0 0 1-2.5-1.4 2.8 2.8 0 0 0-.4 1.4 2.9 2.9 0 0 0 2.9 3h65.4a2.9 2.9 0 0 0 2.9-3 2.8 2.8 0 0 0-.4-1.4 3 3 0 0 1-2.5 1.4z" opacity=".5"/><path d="M1248.3 221.2h-65.4a3.9 3.9 0 0 1 0-7.8h65.4a3.9 3.9 0 0 1 0 7.8zm-65.4-5.8a2 2 0 1 0 0 3.8h65.4a2 2 0 1 0 0-3.8z"/></g><path d="M1215.6 134a47.2 47.2 0 0 0-33.4 80.5h66.7a47.2 47.2 0 0 0-33.3-80.5zm0 74c-19.8 0-35.9-11.1-35.9-24.8s16-24.8 35.9-24.8 35.8 11 35.8 24.8-16 24.8-35.8 24.8z" class="F"/><g class="E"><path d="M1215.6 153.8c-19.8 0-35.9 11.1-35.9 24.8a17.4 17.4 0 0 0 .2 2.3c1.7-12.6 17-22.5 35.7-22.5s34 9.9 35.6 22.5a17.4 17.4 0 0 0 .2-2.3c0-13.7-16-24.8-35.8-24.8zm24.2 56.1h-48.4a19 19 0 0 1-16.4-9.3 47 47 0 0 1-6.5-21.7v2.3a47 47 0 0 0 13.8 33.3h66.7a47 47 0 0 0 13.8-33.3v-2.3a47 47 0 0 1-6.6 21.7 19 19 0 0 1-16.4 9.3z" opacity=".5"/><path d="M1249 215.5h-66.8a1 1 0 0 1-.7-.3 48.2 48.2 0 1 1 68.1 0 1 1 0 0 1-.7.3zm-66.4-2h65.9a46.2 46.2 0 1 0-65.9 0z"/></g><ellipse cx="1215.6" cy="183.2" rx="35.8" ry="24.8" opacity=".2" class="F"/><path d="M1215.6 209a50.6 50.6 0 0 1-14.3-2 40.3 40.3 0 0 1-11.6-5.5 27.6 27.6 0 0 1-8-8.1 19 19 0 0 1 0-20.4 27.6 27.6 0 0 1 8-8.2 40.3 40.3 0 0 1 11.6-5.4 51.8 51.8 0 0 1 28.5 0 40.4 40.4 0 0 1 11.7 5.4 27.4 27.4 0 0 1 8 8.2 19 19 0 0 1 0 20.4 27.4 27.4 0 0 1-8 8.2 40.4 40.4 0 0 1-11.7 5.4 50.5 50.5 0 0 1-14.2 2zm0-49.6c-19.2 0-34.9 10.7-34.9 23.8s15.7 23.8 34.9 23.8 34.8-10.7 34.8-23.8-15.6-23.8-34.8-23.8z" class="E"/><g class="F"><ellipse cx="1262" cy="181" rx="6.8" ry="11.3"/><ellipse cx="1168.4" cy="181" rx="6.8" ry="11.3"/></g><g class="E"><path d="M1262 187.3c-3.3 0-6-3.8-6.7-8.8a18.1 18.1 0 0 0-.1 2.5c0 6.2 3 11.3 6.8 11.3s6.8-5.1 6.8-11.3a18.1 18.1 0 0 0-.1-2.5c-.7 5-3.4 8.8-6.7 8.8zm-93.6 0c-3.3 0-6-3.8-6.7-8.8a19.9 19.9 0 0 0-.1 2.5c0 6.2 3 11.3 6.8 11.3s6.8-5.1 6.8-11.3a18.1 18.1 0 0 0-.1-2.5c-.7 5-3.4 8.8-6.7 8.8z" opacity=".5"/><path d="M1262 193.3c-2.2 0-4.2-1.4-5.7-3.8a17.9 17.9 0 0 1 0-17c1.5-2.5 3.5-3.8 5.7-3.8s4.2 1.3 5.7 3.8a18 18 0 0 1 0 17c-1.5 2.4-3.5 3.8-5.7 3.8zm0-22.7c-1.5 0-2.9 1-4 2.9a16 16 0 0 0 0 15c1.1 1.8 2.5 2.8 4 2.8s2.9-1 4-2.9a16 16 0 0 0 0-15c-1.1-1.7-2.5-2.7-4-2.7zm-93.6 22.7c-2.2 0-4.2-1.4-5.7-3.8a18 18 0 0 1 0-17c1.5-2.5 3.5-3.8 5.7-3.8s4.2 1.3 5.7 3.8a17.9 17.9 0 0 1 0 17c-1.5 2.4-3.5 3.8-5.7 3.8zm0-22.7c-1.5 0-2.9 1-4 2.9a16 16 0 0 0 0 15c1.1 1.8 2.5 2.8 4 2.8s2.9-1 4-2.9a16 16 0 0 0 0-15c-1.1-1.7-2.6-2.7-4-2.7z"/></g><path d="m1163.3 218.2.6-.6a5.7 5.7 0 0 0 1.6-4.3 5 5 0 0 0-.9-2.6 4.7 4.7 0 0 1-.1-4.6 2.5 2.5 0 0 0-1-3 2.5 2.5 0 0 0-3.5 1 6.5 6.5 0 0 0-.7 5.3 38.3 38.3 0 0 1-5.3-7.7c-1.6-3.4-3.9-2.8-4.6-.5s3.3 6.5 5.5 8.7c0 0-8.4-7.5-10.8-4.2s7.4 5.4 8.3 7.4c0 0-6-3-8.4-.6s3.2 3.1 7 4.6c3.5 1.4 3.5 4.2 9.2 2.8a6.3 6.3 0 0 0 3.1-1.7z" class="F"/><g class="E"><path d="M1157.5 221.2a6.7 6.7 0 0 1-4.5-1.7 9.1 9.1 0 0 0-2.3-1.5l-2.9-1c-2.7-.8-4.8-1.5-5.2-3a2.3 2.3 0 0 1 .7-2.3 4.2 4.2 0 0 1 2.8-1.2c-1.6-1-3-1.9-3.3-3.2a2.6 2.6 0 0 1 .5-2.2 3 3 0 0 1 2.6-1.3 8.1 8.1 0 0 1 3.5 1c-1-1.6-1.3-2.9-1-4a3.3 3.3 0 0 1 3-2.6c.9 0 2.4.4 3.5 3a27.8 27.8 0 0 0 3.3 5 9 9 0 0 1 1-2.8 3.5 3.5 0 0 1 3-1.9 3.6 3.6 0 0 1 2 .6 3.5 3.5 0 0 1 1.3 4.3 3.7 3.7 0 0 0 0 3.7 6 6 0 0 1 1 3 6.7 6.7 0 0 1-1.9 5l-.5.7a7.2 7.2 0 0 1-3.6 1.9 12.5 12.5 0 0 1-3 .5zm-13-7.7s.2.3 1 .7 1.8.6 3 1l3 1a10.9 10.9 0 0 1 2.7 1.7 4.7 4.7 0 0 0 3.3 1.3 10.9 10.9 0 0 0 2.5-.3 5.4 5.4 0 0 0 2.6-1.4l.6-.6a4.7 4.7 0 0 0 1.3-3.5 4.1 4.1 0 0 0-.7-2.1 5.6 5.6 0 0 1-.2-5.6 1.5 1.5 0 0 0-.6-1.8 1.5 1.5 0 0 0-.8-.3 1.5 1.5 0 0 0-1.3.8 5.6 5.6 0 0 0-.6 4.6 1 1 0 0 1-1.7 1 38.8 38.8 0 0 1-5.5-8c-.6-1.2-1.3-1.7-1.7-1.7s-.8.5-1 1.2c-.1.3-.2 1.2 1.5 3.4a42.7 42.7 0 0 0 3.7 4.3 1 1 0 0 1 0 1.3 1 1 0 0 1-1.4.1c-1.5-1.3-5.9-4.8-8.3-4.8a1.1 1.1 0 0 0-1 .5l-.2.5c.3 1 2.8 2.2 4.5 3 2.3 1.1 3.7 1.8 4.1 2.9a1 1 0 0 1-1.4 1.3 14 14 0 0 0-5.2-1.5 2.5 2.5 0 0 0-2 .6 1.1 1.1 0 0 0-.2.4z"/><path d="M1152.2 216h-.1a1 1 0 0 1-.9-1c0-.2.7-5 5-6.5a1 1 0 0 1 .6 2c-3 1-3.5 4.7-3.6 4.7a1 1 0 0 1-1 .9z"/></g></svg>