<svg width="44" height="44" viewBox="0 0 44 44" fill="none" xmlns="http://www.w3.org/2000/svg">
<path d="M21.9999 42.0681C33.0832 42.0681 42.068 33.0833 42.068 22C42.068 10.9167 33.0832 1.93195 21.9999 1.93195C10.9167 1.93195 1.93188 10.9167 1.93188 22C1.93188 33.0833 10.9167 42.0681 21.9999 42.0681Z" fill="url(#paint0_linear_1403_3245)"/>
<path d="M22 1.93194C33.0845 1.93194 42.0681 10.9155 42.0681 22C42.0681 33.0845 33.0845 42.0681 22 42.0681C10.9155 42.0681 1.93194 33.0845 1.93194 22C1.93194 10.9155 10.9155 1.93194 22 1.93194ZM22 0C9.87706 0 0 9.87706 0 22C0 34.1229 9.87706 44 22 44C34.1229 44 44 34.1229 44 22C44 9.87706 34.1471 0 22 0Z" fill="white"/>
<path opacity="0.1" d="M29.9692 29.2931C17.484 29.2931 6.90664 23.2075 3.28424 14.7794C2.41487 17.0252 1.93188 19.4643 1.93188 22C1.93188 33.0845 10.9154 42.0681 21.9999 42.0681C31.1767 42.0681 38.8803 35.91 41.2952 27.506C37.8177 28.6652 34.0021 29.2931 29.9692 29.2931Z" fill="black"/>
<path d="M32.3969 12.9079C30.4516 12.01 28.399 11.3691 26.2901 11.0013C26.271 10.9981 26.2514 11.0009 26.2339 11.0093C26.2165 11.0178 26.202 11.0314 26.1926 11.0485C25.9282 11.5199 25.6357 12.1366 25.4314 12.6194C23.1582 12.2724 20.8459 12.2724 18.5727 12.6194C18.3447 12.0816 18.0868 11.5571 17.8002 11.0485C17.7906 11.0316 17.7761 11.0181 17.7587 11.0097C17.7413 11.0013 17.7218 10.9983 17.7027 11.0013C15.5934 11.3672 13.5402 12.0084 11.5959 12.9079C11.5793 12.9143 11.5653 12.9263 11.5565 12.9419C7.66781 18.7862 6.60095 24.4871 7.12407 30.1164C7.12594 30.1428 7.14282 30.1692 7.16344 30.1862C9.4279 31.8733 11.9607 33.1614 14.654 33.9956C14.673 34.0017 14.6934 34.0014 14.7123 33.995C14.7312 33.9886 14.7475 33.9762 14.759 33.9598C15.3365 33.1677 15.8502 32.3323 16.2927 31.4535C16.3019 31.4354 16.3051 31.4148 16.3017 31.3947C16.2983 31.3747 16.2886 31.3563 16.274 31.3422C16.2643 31.333 16.2528 31.326 16.2402 31.3215C15.4324 31.0092 14.65 30.6341 13.9002 30.1994C13.8793 30.1875 13.8637 30.1679 13.8567 30.1447C13.8498 30.1215 13.8519 30.0965 13.8627 30.0749C13.8691 30.0609 13.8788 30.0486 13.8909 30.0391C14.0484 29.9203 14.2059 29.7958 14.3559 29.6713C14.3691 29.6606 14.385 29.6537 14.4019 29.6514C14.4187 29.6491 14.4359 29.6514 14.4515 29.6581C19.3621 31.9136 24.6776 31.9136 29.5282 29.6581C29.5444 29.6511 29.5622 29.6486 29.5797 29.6509C29.5972 29.6532 29.6138 29.6603 29.6276 29.6713C29.7776 29.7958 29.9351 29.9203 30.0926 30.0391C30.1053 30.0485 30.1156 30.0609 30.1224 30.0752C30.1292 30.0896 30.1324 30.1054 30.1317 30.1213C30.1309 30.1371 30.1263 30.1526 30.1182 30.1662C30.11 30.1799 30.0987 30.1913 30.0851 30.1994C29.337 30.638 28.5536 31.0127 27.7432 31.3196C27.7303 31.3243 27.7186 31.3318 27.7088 31.3416C27.6991 31.3514 27.6917 31.3632 27.687 31.3762C27.6826 31.3888 27.6809 31.4021 27.6819 31.4154C27.6828 31.4287 27.6865 31.4417 27.6926 31.4535C28.1426 32.3304 28.6582 33.1677 29.2245 33.9598C29.2359 33.9762 29.2522 33.9886 29.2711 33.995C29.29 34.0014 29.3104 34.0017 29.3295 33.9956C32.0272 33.164 34.5642 31.8757 36.8313 30.1862C36.8426 30.1783 36.852 30.1679 36.8589 30.1558C36.8657 30.1437 36.8697 30.1303 36.8706 30.1164C37.4969 23.6083 35.8225 17.9545 32.4344 12.9437C32.431 12.9355 32.4259 12.928 32.4195 12.9218C32.413 12.9157 32.4053 12.9109 32.3969 12.9079V12.9079ZM17.0258 26.6879C15.5465 26.6879 14.3296 25.3225 14.3296 23.6479C14.3296 21.9714 15.524 20.606 17.0258 20.606C18.5389 20.606 19.7446 21.9827 19.7221 23.6479C19.7221 25.3225 18.5277 26.6879 17.0258 26.6879ZM26.9932 26.6879C25.5157 26.6879 24.297 25.3225 24.297 23.6479C24.297 21.9714 25.4914 20.606 26.9932 20.606C28.5063 20.606 29.7138 21.9827 29.6895 23.6479C29.6895 25.3225 28.5063 26.6879 26.9932 26.6879Z" fill="white"/>
<defs>
<linearGradient id="paint0_linear_1403_3245" x1="22.0029" y1="42.0741" x2="22.0029" y2="1.93195" gradientUnits="userSpaceOnUse">
<stop stop-color="#5562EA"/>
<stop offset="1" stop-color="#9381FF"/>
</linearGradient>
</defs>
</svg>
