<svg width="44" height="44" viewBox="0 0 44 44" fill="none" xmlns="http://www.w3.org/2000/svg">
<path d="M21.9999 42.0681C33.0832 42.0681 42.068 33.0833 42.068 22C42.068 10.9167 33.0832 1.93195 21.9999 1.93195C10.9167 1.93195 1.93188 10.9167 1.93188 22C1.93188 33.0833 10.9167 42.0681 21.9999 42.0681Z" fill="url(#paint0_linear_1403_3274)"/>
<path d="M22 1.93194C33.0845 1.93194 42.0681 10.9155 42.0681 22C42.0681 33.0845 33.0845 42.0681 22 42.0681C10.9155 42.0681 1.93194 33.0845 1.93194 22C1.93194 10.9155 10.9155 1.93194 22 1.93194ZM22 0C9.87706 0 0 9.87706 0 22C0 34.1229 9.87706 44 22 44C34.1229 44 44 34.1229 44 22C44 9.87706 34.1471 0 22 0Z" fill="white"/>
<path opacity="0.1" d="M29.9692 29.2931C17.484 29.2931 6.90664 23.2075 3.28424 14.7794C2.41487 17.0252 1.93188 19.4643 1.93188 22C1.93188 33.0845 10.9154 42.0681 21.9999 42.0681C31.1767 42.0681 38.8803 35.91 41.2952 27.506C37.8177 28.6652 34.0021 29.2931 29.9692 29.2931Z" fill="black"/>
<path d="M32.8063 12.1817H30.4514C30.285 10.9555 29.0522 10 27.5601 10H16.4401C14.9479 10 13.7151 10.9555 13.5488 12.1817H11.1938C9.98215 12.1817 9 13.0132 9 14.039V17.8912C9 18.9169 9.98215 19.7485 11.1938 19.7485H13.529V20.8608C13.529 21.7385 14.0867 22.5563 14.9845 22.9952L19.2253 25.0682V26.7703H18.8649C17.7227 26.7703 16.7934 27.5571 16.7934 28.5241V31.3955H14.6796C13.5057 31.3955 12.5508 32.204 12.5508 33.1977C12.5508 34.1915 13.5057 35 14.6796 35H29.3206C30.4944 35 31.4494 34.1915 31.4494 33.1977C31.4494 32.204 30.4944 31.3955 29.3206 31.3955H27.2066V28.5241C27.2066 27.5571 26.2773 26.7703 25.1351 26.7703H24.7747V25.0682L29.0155 22.9952C29.9133 22.5564 30.471 21.7385 30.471 20.8608V19.7485H32.8062C34.0178 19.7485 35 18.9169 35 17.8912V14.039C35.0001 13.0133 34.0179 12.1817 32.8063 12.1817ZM11.4375 17.6848V14.2454H13.529V17.6848H11.4375ZM32.5626 17.6848H30.4711V14.2454H32.5626V17.6848Z" fill="white"/>
<defs>
<linearGradient id="paint0_linear_1403_3274" x1="22.0029" y1="42.0741" x2="22.0029" y2="1.93195" gradientUnits="userSpaceOnUse">
<stop stop-color="#F29E4C"/>
<stop offset="1" stop-color="#F1BA84"/>
</linearGradient>
</defs>
</svg>
