<svg width="22" height="17" viewBox="0 0 22 17" fill="none" xmlns="http://www.w3.org/2000/svg">
<path d="M20.1324 5.95842e-05H1.8676C1.3774 -0.00386218 0.905579 0.186597 0.555674 0.529849C0.205617 0.872918 0.00576191 1.34079 0 1.83104V14.6692C0.00579726 15.1594 0.205634 15.6273 0.555674 15.9704C0.905562 16.3136 1.37736 16.5041 1.8676 16.5001H20.1324C20.6226 16.5041 21.0944 16.3136 21.4443 15.9704C21.7944 15.6273 21.9942 15.1594 22 14.6692V1.83104C21.9942 1.34084 21.7944 0.872944 21.4443 0.529849C21.0944 0.18661 20.6226 -0.00386899 20.1324 5.95842e-05ZM4.12609 13.7501H1.37609V11.0001H4.12609V13.7501ZM4.12609 9.62624H1.37609V6.87624H4.12609V9.62624ZM4.12609 5.50242H1.37609V2.75002H4.12609V5.50242ZM8.24991 12.3761V4.12611L15.1262 8.24993L8.24991 12.3761ZM20.6262 13.7499H17.8762V10.9999H20.6262V13.7499ZM20.6262 9.62611H17.8762V6.87611H20.6262V9.62611ZM20.6262 5.50229H17.8762V2.74988H20.6262V5.50229Z" fill="white"/>
</svg>
