<svg width="44" height="44" viewBox="0 0 44 44" fill="none" xmlns="http://www.w3.org/2000/svg">
<path d="M21.9999 42.0681C33.0832 42.0681 42.068 33.0833 42.068 22C42.068 10.9167 33.0832 1.93195 21.9999 1.93195C10.9167 1.93195 1.93188 10.9167 1.93188 22C1.93188 33.0833 10.9167 42.0681 21.9999 42.0681Z" fill="url(#paint0_linear_1447_794)"/>
<path d="M22 1.93194C33.0845 1.93194 42.0681 10.9155 42.0681 22C42.0681 33.0845 33.0845 42.0681 22 42.0681C10.9155 42.0681 1.93194 33.0845 1.93194 22C1.93194 10.9155 10.9155 1.93194 22 1.93194ZM22 0C9.87706 0 0 9.87706 0 22C0 34.1229 9.87706 44 22 44C34.1229 44 44 34.1229 44 22C44 9.87706 34.1471 0 22 0Z" fill="white"/>
<path opacity="0.1" d="M29.9692 29.2931C17.484 29.2931 6.90664 23.2075 3.28424 14.7794C2.41487 17.0252 1.93188 19.4643 1.93188 22C1.93188 33.0845 10.9154 42.0681 21.9999 42.0681C31.1767 42.0681 38.8803 35.91 41.2952 27.506C37.8177 28.6652 34.0021 29.2931 29.9692 29.2931Z" fill="black"/>
<path d="M31.1823 10.6369C26.0382 5.78244 17.9039 5.87053 12.869 10.8353C7.83423 15.8 7.7454 23.8224 12.6679 28.8954L21.9002 38L31.1324 28.8954C36.2486 23.8898 36.2935 15.7458 31.2322 10.6861C31.2257 10.6861 31.2192 10.6849 31.2131 10.6824C31.2071 10.6799 31.2016 10.6763 31.1969 10.6717C31.1923 10.6672 31.1886 10.6617 31.1861 10.6558C31.1836 10.6498 31.1823 10.6434 31.1823 10.6369Z" fill="#E75858"/>
<path d="M21.9002 30.7163C15.7266 30.6893 10.7442 25.7314 10.7716 19.6431C10.799 13.5549 15.8264 8.64132 22 8.66839C28.1736 8.69545 33.156 13.6533 33.1286 19.7416C33.0872 25.8244 28.0683 30.7301 21.9002 30.7163Z" fill="white"/>
<path d="M16.8598 18.2159C17.3284 18.2159 17.7082 17.8413 17.7082 17.3792C17.7082 16.9172 17.3284 16.5426 16.8598 16.5426C16.3913 16.5426 16.0115 16.9172 16.0115 17.3792C16.0115 17.8413 16.3913 18.2159 16.8598 18.2159Z" fill="#FEFEFF"/>
<path d="M29.3358 16.6903L29.0164 16.5672L28.8568 16.5082C28.8062 16.4888 28.7545 16.4724 28.7021 16.459C28.5993 16.4227 28.4943 16.3931 28.3877 16.3704L28.233 16.331L28.0733 16.3064H27.9984H27.9186H27.8437H27.7639H27.2898H27.2149H27.145L26.9953 16.331L26.8556 16.3655L26.7159 16.4098H26.6809H26.646L26.5761 16.4344C26.5536 16.4421 26.5319 16.452 26.5113 16.4639L26.4414 16.4934L26.3765 16.5229L26.3117 16.5574L26.2468 16.5918L26.1819 16.6263L26.0571 16.705L25.9324 16.7838L25.8126 16.8724L25.6928 16.9659L25.6379 17.0151L25.5831 17.0643L25.5232 17.1135L25.4683 17.1677L25.3635 17.271L25.1589 17.4925L25.064 17.6106L25.0191 17.6647L24.9842 17.7189L24.545 17.1135H24.6249H24.6948H24.8395H25.1189C25.212 17.1086 25.3053 17.1086 25.3984 17.1135H25.5431H25.6829L25.9623 17.148L26.1021 17.1726L26.2368 17.2021L26.3765 17.2415L26.5113 17.2808L26.646 17.3301L26.7109 17.3547L26.7758 17.3842L27.0303 17.5122L27.15 17.586L27.2698 17.6647L27.3247 17.709L27.3796 17.7533L27.4345 17.7976L27.4594 17.8222V17.8468L27.5593 17.9403L27.6541 18.0437L27.699 18.0978C27.7151 18.1137 27.7285 18.132 27.7389 18.1519L27.8237 18.2602L27.9585 18.4964L27.9884 18.5555C27.9904 18.5751 27.9904 18.5949 27.9884 18.6146C28.0072 18.6564 28.0239 18.6991 28.0383 18.7425C28.0546 18.7825 28.0679 18.8236 28.0783 18.8655C28.0928 18.9074 28.1045 18.9501 28.1132 18.9935L28.0284 18.8901L27.9435 18.7966L27.9285 18.6588L27.8387 18.5703C27.7788 18.5112 27.714 18.462 27.6541 18.4079L27.5543 18.334L27.5044 18.2996L27.4545 18.2651L27.3546 18.2012L27.2498 18.1667H27.2249L27.17 18.1372L27.1151 18.1126H27.0652L26.9554 18.0683L26.8456 18.0289L26.6211 17.9649H26.5662H26.5063H26.3915H26.2767H26.1619H25.9274H25.6978C25.6181 17.96 25.5381 17.96 25.4583 17.9649H25.2287L24.9942 17.9994H24.8844H24.8295H24.7846C24.7341 18.0145 24.6811 18.0196 24.6287 18.0144C24.5762 18.0092 24.5253 17.9938 24.4789 17.9691C24.4325 17.9444 24.3915 17.9108 24.3583 17.8704C24.3251 17.83 24.3004 17.7835 24.2855 17.7336C24.269 17.6803 24.2645 17.624 24.2722 17.5688C24.28 17.5135 24.2999 17.4606 24.3305 17.4137L24.3604 17.3694L24.3903 17.3301L24.4452 17.2513C24.4807 17.2016 24.519 17.154 24.56 17.1086C24.6362 17.0122 24.7178 16.9202 24.8045 16.833C24.8495 16.7936 24.8894 16.7493 24.9343 16.705L25.0042 16.646L25.074 16.582L25.1439 16.5229L25.2188 16.4688C25.2666 16.43 25.3165 16.3938 25.3685 16.3605C25.4168 16.3216 25.4686 16.2871 25.5232 16.2572L25.6829 16.1588L25.8525 16.0751L25.9374 16.0357L26.0222 15.9964L26.112 15.9619L26.2019 15.9324L26.2917 15.9029L26.3815 15.8733C26.4978 15.8105 26.6178 15.7546 26.7408 15.706H26.9305H27.2149H27.3097H27.4045H27.4944H27.5892H27.679L27.8587 15.7503L27.9485 15.7749L28.0333 15.8044L28.1182 15.834L28.203 15.8733L28.3677 15.9422L28.5224 16.0308C28.6272 16.0849 28.722 16.1538 28.8218 16.2178L28.9566 16.3261C29.0065 16.3605 29.0464 16.3999 29.0913 16.4344C29.1362 16.4688 29.256 16.6066 29.3358 16.6903Z" fill="#4C4C4C"/>
<path d="M16.7301 19.4955C17.8711 19.4955 18.7961 18.5833 18.7961 17.458C18.7961 16.3327 17.8711 15.4205 16.7301 15.4205C15.5891 15.4205 14.6641 16.3327 14.6641 17.458C14.6641 18.5833 15.5891 19.4955 16.7301 19.4955Z" fill="#4C4C4C"/>
<path d="M17.4188 17.8173C17.8598 17.8173 18.2173 17.4647 18.2173 17.0299C18.2173 16.595 17.8598 16.2424 17.4188 16.2424C16.9778 16.2424 16.6204 16.595 16.6204 17.0299C16.6204 17.4647 16.9778 17.8173 17.4188 17.8173Z" fill="#FEFEFF"/>
<path d="M25.9275 22.5222C25.8918 22.8278 25.8266 23.1294 25.7329 23.4228C25.5536 24.0892 25.1648 24.6825 24.6224 25.1175C24.08 25.5525 23.4118 25.8069 22.7137 25.8441C20.7674 26.0557 19.5797 25.475 18.8511 24.7024C18.6396 24.4722 18.457 24.2177 18.3071 23.9445C17.9808 23.3617 17.7819 22.7179 17.7233 22.0546C17.7233 22.0546 22.9632 22.7043 25.9325 21.1196C25.9867 21.5857 25.985 22.0565 25.9275 22.5222Z" fill="#FEFEFF"/>
<path d="M22.4291 26.292C21.625 26.3462 20.8219 26.1725 20.1146 25.7915C19.4072 25.4104 18.8251 24.8379 18.4368 24.1413C18.0809 23.5041 17.8666 22.7995 17.808 22.0743C17.804 22.0148 17.8136 21.9552 17.836 21.8998C17.8585 21.8445 17.8933 21.7948 17.9378 21.7544C17.9828 21.7147 18.036 21.6849 18.0936 21.6671C18.1513 21.6493 18.2121 21.6438 18.2721 21.6511C19.0876 21.7376 19.9072 21.7803 20.7274 21.779C22.3692 21.779 24.6648 21.6019 26.2418 20.7603C26.3003 20.7301 26.3654 20.7144 26.4314 20.7144C26.4975 20.7144 26.5625 20.7301 26.6211 20.7603C26.6811 20.7889 26.7331 20.8318 26.7722 20.885C26.8114 20.9383 26.8366 21.0002 26.8456 21.0654C26.9093 21.5671 26.9093 22.0746 26.8456 22.5763C26.8069 22.9101 26.7367 23.2396 26.636 23.5606C26.4311 24.3015 25.996 24.9605 25.3918 25.4451C24.7877 25.9297 24.0448 26.2155 23.2675 26.2624C22.9888 26.2868 22.7089 26.2966 22.4291 26.292ZM18.6963 22.5123C18.7875 22.944 18.9422 23.3601 19.1554 23.7476C19.2931 23.9932 19.4607 24.2213 19.6545 24.4268C20.0149 24.7861 20.4487 25.0658 20.927 25.2474C21.4054 25.429 21.9174 25.5082 22.4291 25.4799C22.676 25.4793 22.9226 25.4645 23.1677 25.4356C23.7844 25.4058 24.3756 25.1833 24.8555 24.8002C25.3355 24.4171 25.6794 23.8933 25.8376 23.3047C25.9229 23.0334 25.983 22.755 26.0172 22.473C26.0438 22.231 26.0571 21.9879 26.0572 21.7446C24.3489 22.3562 22.5391 22.645 20.7224 22.596C19.8691 22.596 19.1554 22.5517 18.6963 22.5123Z" fill="#4C4C4C"/>
<path d="M21.491 24.3431C21.4916 24.3963 21.4728 24.448 21.438 24.4887C21.4032 24.5293 21.3547 24.5563 21.3014 24.5646H21.1566H21.0119L20.7275 24.599L20.1436 24.6482H19.5547H19.3551C19.1454 24.4352 18.9612 24.199 18.8062 23.9445C18.8698 23.9028 18.9444 23.8806 19.0207 23.8805H19.0756L19.3451 23.9346L19.6146 23.9789L20.1635 24.0478C20.3432 24.0478 20.5278 24.0823 20.7125 24.0921H20.9919H21.2714C21.3029 24.0933 21.3339 24.1008 21.3623 24.1143C21.3907 24.1278 21.416 24.1469 21.4366 24.1705C21.4572 24.194 21.4727 24.2215 21.482 24.2512C21.4914 24.2809 21.4944 24.3122 21.491 24.3431ZM26.4265 22.5222C26.3908 22.8278 26.3256 23.1294 26.2319 23.4228H26.2069L25.4634 23.6639L25.0641 23.7771L24.8795 23.8264L24.7148 23.8657L24.4653 23.9248H24.3705C24.318 23.9345 24.2637 23.9251 24.2178 23.8983C24.1719 23.8715 24.1374 23.829 24.1209 23.779C24.1044 23.7289 24.1069 23.6746 24.1281 23.6263C24.1492 23.5779 24.1875 23.5388 24.2357 23.5163L24.3205 23.4819L24.5501 23.3834L24.6998 23.3194L24.8645 23.2407L25.2238 23.0685L25.8776 22.719L25.9973 22.6501L26.0921 22.6009L26.172 22.5517C26.2521 22.5177 26.3406 22.5074 26.4265 22.5222Z" fill="#4C4C4C"/>
<defs>
<linearGradient id="paint0_linear_1447_794" x1="22.0029" y1="42.0741" x2="22.0029" y2="1.93195" gradientUnits="userSpaceOnUse">
<stop stop-color="#3F4A58"/>
<stop offset="1" stop-color="#7F7F7F"/>
</linearGradient>
</defs>
</svg>
