<svg width="44" height="44" viewBox="0 0 44 44" fill="none" xmlns="http://www.w3.org/2000/svg">
<path d="M21.9999 42.0681C33.0832 42.0681 42.068 33.0833 42.068 22C42.068 10.9167 33.0832 1.93195 21.9999 1.93195C10.9167 1.93195 1.93188 10.9167 1.93188 22C1.93188 33.0833 10.9167 42.0681 21.9999 42.0681Z" fill="url(#paint0_linear_1403_3221)"/>
<path d="M22 1.93194C33.0845 1.93194 42.0681 10.9155 42.0681 22C42.0681 33.0845 33.0845 42.0681 22 42.0681C10.9155 42.0681 1.93194 33.0845 1.93194 22C1.93194 10.9155 10.9155 1.93194 22 1.93194ZM22 0C9.87706 0 0 9.87706 0 22C0 34.1229 9.87706 44 22 44C34.1229 44 44 34.1229 44 22C44 9.87706 34.1471 0 22 0Z" fill="white"/>
<path opacity="0.1" d="M29.9692 29.2931C17.484 29.2931 6.90664 23.2075 3.28424 14.7794C2.41487 17.0252 1.93188 19.4643 1.93188 22C1.93188 33.0845 10.9154 42.0681 21.9999 42.0681C31.1767 42.0681 38.8803 35.91 41.2952 27.506C37.8177 28.6652 34.0021 29.2931 29.9692 29.2931Z" fill="black"/>
<path d="M33.3743 19.0296H31.4665C31.2975 18.4742 31.056 17.9188 30.7903 17.4116L32.1427 16.0593C32.843 15.3589 32.843 14.2239 32.1427 13.5236L30.4764 11.8573C29.7761 11.157 28.6411 11.157 27.9407 11.8573L26.5884 13.2096C26.0812 12.944 25.5258 12.7025 24.9704 12.5335V10.6257C24.9704 9.63555 24.1734 8.83862 23.1833 8.83862H20.8408C19.8507 8.83862 19.0538 9.63555 19.0538 10.6257V12.5576C18.4984 12.7267 17.9429 12.9682 17.4358 13.2338L16.0834 11.8814C15.3831 11.1811 14.2481 11.1811 13.5478 11.8814L11.8815 13.5236C11.1811 14.2239 11.1811 15.3589 11.8815 16.0593L13.2338 17.4116C12.9682 17.9188 12.7267 18.4742 12.5576 19.0296H10.6498C9.65972 19.0296 8.86279 19.8265 8.86279 20.8167V23.1833C8.86279 24.1734 9.65972 24.9703 10.6498 24.9703H12.5576C12.7267 25.5258 12.9682 26.0812 13.2338 26.5883L11.8815 27.9407C11.1811 28.641 11.1811 29.7761 11.8815 30.4764L13.5478 32.1427C14.2481 32.843 15.3831 32.843 16.0834 32.1427L17.4358 30.7903C17.9429 31.056 18.4984 31.2975 19.0538 31.4665V33.3743C19.0538 34.3644 19.8507 35.1613 20.8408 35.1613H23.1833C24.1734 35.1613 24.9704 34.3644 24.9704 33.3743V31.4665C25.5258 31.2975 26.0812 31.056 26.5884 30.7903L27.9407 32.1427C28.6411 32.843 29.7761 32.843 30.4764 32.1427L32.1427 30.4764C32.843 29.7761 32.843 28.641 32.1427 27.9407L30.7903 26.5883C31.056 26.0812 31.2975 25.5258 31.4665 24.9703H33.3743C34.3644 24.9703 35.1614 24.1734 35.1614 23.1833V20.8408C35.1614 19.8507 34.3644 19.0296 33.3743 19.0296ZM22 27.7234C18.8364 27.7234 16.2766 25.1635 16.2766 22C16.2766 18.8364 18.8364 16.2766 22 16.2766C25.1636 16.2766 27.7234 18.8364 27.7234 22C27.7234 25.1635 25.1636 27.7234 22 27.7234Z" fill="white"/>
<defs>
<linearGradient id="paint0_linear_1403_3221" x1="22.0029" y1="42.0741" x2="22.0029" y2="1.93195" gradientUnits="userSpaceOnUse">
<stop stop-color="#16DB93"/>
<stop offset="1" stop-color="#00C7A3"/>
</linearGradient>
</defs>
</svg>
